<?xml version="1.0" encoding="utf-8"?>
<!-- Generator: Adobe Illustrator 23.1.0, SVG Export Plug-In . SVG Version: 6.00 Build 0)  -->
<svg version="1.1" id="Layer_1" xmlns="http://www.w3.org/2000/svg" xmlns:xlink="http://www.w3.org/1999/xlink" x="0px" y="0px"
	 viewBox="0 0 500 500" style="enable-background:new 0 0 500 500;" xml:space="preserve">
<style type="text/css">
	.st0{fill:#FFFFFF;}
	.st1{fill:none;stroke:#ffffff;stroke-width:59;stroke-miterlimit:10;}
</style>
<mask id="brush_mask">
	<polyline id="brush" class="st1" points="52.3,129 351.2,47.7 84.8,217.2 402.3,115 52.3,323 422.4,190.9 102.3,378.6 433.2,277.3
		145,398.4 447.2,369.1 "/>
</mask>
<g id="me" mask="url(#brush_mask)">
	<path class="st0" d="M383,421c-88.7,0-177.3,0-266,0c0-121.3,0-242.7,0-364c88.7,0,177.3,0,266,0C383,178.3,383,299.7,383,421z
		 M247,391L247,391c4.8,2.7,8.2,2,13.8-2.8c4.2-23.5,7.7-47.3,16.9-69.9c1.2-0.3,2.4-0.8,3.7-1.1c5-1.2,10-2.3,15-3.5
		c2.4-0.5,4-1.8,5.3-4c3.3-5.6,6.7-11.1,8.7-17.3c0.2-0.8,0.8-1.4,1.2-2.1c5,1.3,8.6,4.3,12.6,7.1c6.9,4.8,12.9,10.5,17.8,17.3
		c2.3,3.2,4.3,6.8,5.6,10.5c2.2,5.9,3.7,12.1,5.4,18.1c5,18.1,8.8,36.5,9,55.4c0,2.5,0.6,5,1,7.6c0.3,0,0.7,0,1,0
		c0.3-3.3,1.1-6.6,0.8-9.8c-0.5-7.8-1.3-15.5-2.4-23.3c-1.1-7.9-2.8-15.7-4.2-23.7c0.6-0.7,1.4-1.6,2.2-2.4
		c7.6-7.7,13.3-16.6,15.2-27.5c0.9-5.4,2.1-10.8,2.1-16.3c0.1-10.6-0.4-21.3-1-31.9c-0.6-8.8-1.7-17.5-2.7-26.2
		c-0.7-6.3-1.6-12.5-2.5-18.8c-1.2-8.2-2.4-16.4-3.6-24.6c-0.6-3.8-0.9-7.6-1.7-11.3c-1.3-6.7-2.9-13.3-4.3-19.9
		c-3.9-18-11.5-34.4-21.8-49.5c-10.6-15.5-23.7-28.8-38.7-40c-9-6.7-18.5-12.5-29.4-15.5c-15-4.2-30.3-5.7-45.9-3.8
		c-13.9,1.6-27,5.8-39.1,12.8c-3.4,2-6.4,4.7-9.4,7.3c-1.6,1.4-2.8,3.2-2.5,6.3c1.5-1.9,2.5-3.3,3.8-4.6c1.4-1.4,2.9-2.7,4.6-3.8
		C200,68.2,218.8,64,238.6,63.3c2.8-0.1,5.6,0.6,8.4,0.7c8.4,0.1,16.5,1.9,24.5,4.4c15.3,4.7,28,13.9,39.6,24.4
		c6.5,5.9,12.4,12.5,18.3,19.1c11,12.3,18.9,26.6,24.6,42c4.3,11.7,8.3,23.5,9.8,36c0.8,6.8,2.1,13.4,3.1,20.2
		c1.5,10.8,2.6,21.8,4.4,32.6c2.1,12.7,2.7,25.4,3.5,38.2c0.6,9.3,0.4,18.7,0.1,28c-0.3,7.1-1.6,14.3-5.1,20.6
		c-3,5.5-6.4,10.8-9.8,16.1c-0.4,0.7-1.5,1-2.3,1.5c-1.1-2.5-0.6-4.5,0.2-6.6c1.2-3.1,2.4-6.2,3.2-9.4c2.6-10.5,3.1-21.3,3.8-32.1
		c0.9-13.3-0.5-26.6-2-39.8c-0.4-3.6-1.3-7.2-2-10.8c-0.4-1.7-0.7-1.9-2.8-3.4c2.7,13.1,4.5,26.2,2.9,39.5
		c-1.3,11.2-7.5,33.7-11,38.3c-3.5-5.2-6.6-10.8-10.7-15.5c-4.2-4.8-9.5-8.7-14.6-13.2c1.3-15,2.2-30.1-0.9-45
		c2.6-1.2,4.9-2.2,7-3.4c3.2-1.8,6.2-3.8,8.4-6.9c5.9-8.7,7.2-18,4.2-28c-1.7-5.6-4.8-10.2-9.1-14c-7.2-6.4-19.7-3.8-22.7,3
		c-0.5,1.1-1.4,2-2.4,3.4c-4.7-7-9.2-13.3-12.9-20.3c-5.3-10.1-9.5-20.5-13.1-31.3c-0.9-2.7-2.3-5.3-3.4-7.9
		c7.4,35.1,25.4,63.9,51.7,87.7c-1.8-3.1-4-5.8-6.3-8.6c-3.8-4.6-7.7-9.1-11.5-13.8c-1.4-1.7-2.4-3.8-1.4-6c1.4-3,3.4-5.7,6.9-6.7
		c6.5-1.9,12.1-0.2,16.3,5.3c5.5,7.1,7.5,15.2,6.2,24c-1.2,8.1-5.3,14.5-13,18.3c-5.3,2.6-10.9,4.2-16.6,5.1c-2.2,0.4-4,0.9-5.6,2.8
		c-2.1,2.3-4.5,4.5-7.2,6.1c-7.2,4.5-14.4,9.1-21.9,12.9c-9.8,4.9-20.1,8.8-30.7,11.9c-6.4,1.9-12.9,3.1-19.7,2.4
		c-8.4-0.8-16.9-1.2-25.3-2.2c-6.8-0.8-13.4-2.7-19-6.9c-5-3.7-8.9-8.3-9.5-14.6c-0.5-4.9,0.1-9.9,0.5-14.9
		c0.3-3.5,0.6-6.8-1.1-10.2c-1.7-3.4-2.7-7.1-3.9-10.1c1.6-2.3,3-4.3,4.4-6.4c1.3-1.9,2.9-3.1,5.9-1.9c-1.9,5.9-1.5,11.9,0.2,17.7
		c1.7,6,4.4,11.4,8.8,15.7c5.5,1.5,10.3,0.3,14.9-2.5c0.4-0.3,0.9-0.6,1.3-0.7c3.5-1,4.7-3.9,4.7-6.9c0-8.1,0-16.4-6-23
		c1-0.2,1.9-0.4,2.9-0.6c0.1-0.3,0.1-0.7,0.2-1c-2-1.1-4.1-2.3-6-3.4c-0.5,0.6-0.8,0.8-0.9,1.1c-0.1,0.3-0.1,0.6-0.1,1
		c-0.8-0.1-1.8,0-2.4-0.4c-5.7-3.2-11.8-3.1-18-2.7c-4.4,0.3-8.5,1.6-11.3,5.7c-0.1,1.5,1.7,3.5-0.7,5.1c-1.1-1-2.2-2.1-3.3-3.2
		c0.7-6.7,1.4-13.1,2.1-19.7c2.8-1.2,5.3-2.4,8-3.4c2.5-0.9,5.1-1.5,7.6-2.4c2.5-0.8,5.3-0.7,8.4-3c-8.9-0.5-15.7,3.2-23.5,5.5
		c2.1-24.8,5.5-48.8,13.4-72.9c17.5,32.8,42.5,57.6,71.3,78.2c-4.3,4-8.5,7.9-12.6,11.7c-1.5,1.4-2.6,3-0.9,5.5
		c5.4-4.6,10.2-9.7,17.3-11.1c0.2,0.6,0.5,0.9,0.4,1.2c-1.7,7.7,0.5,15.2,1.9,22.6c0.2,1.3,0.9,2.6,1.7,3.6c2,2.4,3.8,5.3,7.3,5.5
		c4.8,0.4,9.6-0.2,14.3-1.5c1.2-0.3,2.4-1.2,3.3-2.1c4-4.2,7.6-8.8,8.4-15.5c3.6,1.5,6.9,2.9,9.8,4.1c-0.2,2.2-0.3,3.9-0.4,5.5
		c-0.4,5.5-2.9,9.5-8.4,11.1c-1.4,0.4-2.9,0.9-4.3,1.2c-7.7,1.4-15.4,2.8-23.1,3.9c-3.9,0.6-8,1.3-11.9,0.9c-6.6-0.7-12-4-14.5-10.5
		c-1.5-4-2.5-8.3-3.6-12.4c-0.4-1.2-0.5-2.7-2.9-2.4c0,1.5-0.2,3.2-0.1,4.7c0.2,1.7,0.6,3.4,1,5.3c-7.1-1.1-7.6-1.6-14.4,2.2
		c-1-2.1,0-5.1-2.7-6.5c-0.3,0.3-0.7,0.6-0.7,0.8c0.3,3.6,0.5,7.3,0.9,10.9c0.7,5.3-0.5,7.5-5.1,10c-6.1,3.4-12.8,4.5-19.5,5.9
		c-5.2,1-10.3,2.6-15.7,1.4c-0.2,0-0.5,0.4-0.8,0.6c-0.4,2,1,2.4,2.4,2.3c4-0.2,8-0.3,11.9-1c7.6-1.5,15.3-2.5,22.5-6.2
		c5-2.6,7.9-5.9,7.3-11.7c0-0.3,0.2-0.6,0.5-1.8c1.2-0.6,2.8-2.1,4.6-2.3c3.3-0.4,6.7-0.8,9.8,1c0.7,0.4,1.5,1,1.7,1.7
		c1.3,3.8,4.7,5.4,7.6,7.6c4.9,3.7,10.4,4.4,16.1,3.5c8.2-1.2,16.4-2.5,24.6-4c3.9-0.7,7.7-1.9,11.5-3.2c4.3-1.5,6.8-4.8,7.7-9.1
		c0.6-2.8,0.7-5.7,1-8.8c5.9,1.6,11.8,3.6,18.3,3c-6.4-2.1-12.8-4.2-18.6-6.1c-0.7-5.5-1.3-10.6-2-15.6c-0.1-0.8-1.2-1.5-1.8-2.3
		c-0.3,0.1-0.7,0.3-1,0.4c0.3,2.7,0.5,5.5,0.8,8.2s0.8,5.4,1.2,8.4c-3.1-1.1-6-2.2-8.1-2.9c-0.6-5.2-1.2-9.7-1.7-14.2
		c-7.5-7.3-27-10.3-35-5.3c0.9,1.2,1.8,2.4,2.7,3.5v-0.1c-0.5-0.1-1.1-0.1-1.4-0.4c-8.4-6.5-16.7-13.1-25.1-19.6
		c-8.1-6.4-15.6-13.4-22.3-21.3c-1.7-2-3.4-4.1-5.2-6.1c-9-9.5-16.2-20.2-22.5-31.6c-0.9-1.7-1.9-3.3-3.4-4.8c-0.6,1-1,1.5-1.3,2.1
		c-3.8,8-6.1,16.6-7.8,25.2c-2,9.6-3.4,19.3-4.9,28.9c-0.9,5.7-1.6,11.5-2.1,17.3c-0.9,9.9-1.6,19.9-2.3,29.8
		c-0.6,8.8-1.3,17.6-1.7,26.3c-0.3,6.3,0.2,12.7-0.2,19c-0.9,13.7,4.2,25.7,10.3,37.4c1.6,3,4.3,5.5,6.6,8.1
		c1.2,1.3,2.7,2.2,5.3,2.6c-1-1.1-1.3-1.7-1.8-2c-5.8-4.3-9.5-10.2-12.1-16.8c-5.4-13.5-6.4-27.8-6-42.1c0.2-6.8,0.5-13.6,1-20.4
		c0.3-4.3,0.8-8.6,1.2-12.9c0.2,0,0.5,0,0.7,0c1.3,3,2.6,6,3.3,7.5c-0.6,5.1-1.4,8.6-1.3,12.2c0.1,4.5,1,8.9,3,13
		c0.8,1.8,1.5,3.7,1.7,5.7c0.5,5.4,2.4,10,6.4,13.7c1.3,1.2,2.6,2.6,3.5,3.6c0.7,16.8,2.7,32.9,8.1,48.5c-3,6.8-6.2,13.7-9.5,21
		c-1.4-1.1-2.8-2-4-3.1c-5.6-5.2-8.9-12-12.6-18.4c-1.9-3.3-2.8-6.7-2.6-10.5c0.2-3.7-0.1-7.4-0.1-11c-1.2,1.7-1.8,3.5-1.9,5.2
		c-0.5,8.3,0.2,16.7,2.1,24.8c2.3,10,5.3,19.9,12,28.4c-2.5,1.2-4.7,1.1-6.6,0c-2.7-1.6-5.5-3.2-7.8-5.2c-4.9-4.3-7.5-10.1-9.8-16
		c-5.2-13.3-7.2-27.5-10.4-41.4c0.7,0.5,1.1,1.2,1.6,1.8c1.9,2.2,3.9,4.4,5.9,6.6c0.1,0.2,0.3,0.3,0.2,0.3c0.1,0.1-0.1-0.1-0.2-0.2
		c-0.4-0.9-0.6-1.9-1.1-2.7c-4.7-7.4-9.5-14.9-14.2-22.3c-4.4-6.8-6-14.4-5.2-22.4c0.5-4.7,2.1-9.4,3.3-14.1
		c3.7-14.2,6.1-28.6,5.5-43.4c-0.3-6.3-0.3-12.7-0.2-19c0.2-7.5,0.4-15,1.1-22.4c1.2-12.8,4.5-25.2,10.4-36.7
		c2.9-5.6,6.5-10.8,9.5-16.4c4-7.3,9.2-13.4,16.2-17.9c1.3-0.8,2.3-2,3.4-3.1c-5.8,2.4-11.4,4.9-14.9,10.2
		c-5.1,7.6-10.3,15.2-14.7,23.1c-9.8,17.5-13.3,36.8-13.9,56.6c-0.3,11.6,0.6,23.3,0.6,34.9c0,5.1-0.7,10.3-1.6,15.3
		c-1.7,8.8-3.7,17.5-5.7,26.3c-1,4.6-2.1,9.1-1.2,13.8c1.3,6.6,3.3,12.9,7.3,18.4c4.7,6.2,5.8,13.6,7.4,20.9c2.2,10,4.3,20.1,7.1,30
		c1.8,6.4,4.6,12.4,8.9,17.8c4.9,6.1,10.6,10.6,18.9,10.2c0.2,0,0.5,0.4,1,0.8c-2,6.7-4,13.6-6,20.4c-0.4,1.5-1.3,3,0.5,4.9
		c2.4-6.3,4.9-12.1,6.7-18.1c3.4-11.3,6.5-22.7,11.1-33.6c4.7-11.2,10.6-21.9,17.8-31.7c0.5-0.7,1.4-1.2,2.6-2.2
		c0.7,2.2,1.3,3.9,1.7,5.7c0.9,4.6,2.4,8.7,6.9,10c-1.7,7.8-3.6,15.2-4.9,22.8c-0.9,5.5-1.1,11.2-1.2,16.9c-0.1,3.9,1.5,7.1,4.8,9.4
		c1.2,0.8,2.4,1,3.5-0.3c0-0.8-0.1-1.6,0-2.4c2.1-11.4,4.4-22.8,6.3-34.2c0.6-3.8,2.1-7.8-0.8-12c-3-1.2-6.4-2.6-10.2-4.3
		c-1-3.4-1.9-7-3-10.7c-1.6-5.1-0.5-9.6,3-13.4c2.2-2.5,4.7-4.7,7.1-7c5.5,0.8,11.8-1.4,14.9,5.4c-1.7,2.7-3.3,5.2-4.9,7.8
		c1.8,4.8,3.4,9.5,5.2,14.2c0.3,0.7,1.2,1.2,2.4,2.4c0.4-4.1,2.7-6.3,4.9-8.5c0.7-0.7,1.2-1.6,1.9-2.3c4.9-5.2,9.6-10.6,16.1-14
		c4-2.1,8.1-3.7,12.2-5.5c1.5-0.6,3.4-0.6,3.6-2.8c-0.6-3.3-6.1-1.5-5.9-6.1c6.7-3.4,13.4-6.9,20.2-10.4
		c11.8,1.5,16.1,10.6,20.4,19.4c-2.8,8.8-6.9,16.6-11.9,23.9c-13.7,4.6-28.3,5.4-42.6,9.5c1.3,1,2.1,1.6,2.9,2.3
		c-4.6,10.5-7.4,21.3-9.1,32.3c-1.4,9.5-2.6,19.1-3.8,28.6c-0.2,2-0.1,4-0.1,6C245.1,390.5,245.9,390.9,247,391z M142.1,298.7
		c0.2-0.3,0.5-0.6,0.7-0.9c-0.7-1.1-1.2-2.4-2.1-3.3c-2.9-3.5-3.9-7.7-4.4-11.9c-0.6-4.3-0.9-8.6-1-12.9
		c-0.3-10.8-0.7-21.6,1.7-32.2c0.1-0.7-0.3-1.4-0.6-2.8c-1.1,1.1-1.9,1.7-2.3,2.5c-3.1,7.1-5.6,14.5-6,22.4
		c-0.3,5.5,0.2,10.9,2.1,16.1c2.5,6.8,4.4,14,8.8,20C139.7,296.8,141,297.7,142.1,298.7z M157.2,287.2c0.3,0,0.5-0.1,0.8-0.1
		c-0.4-4.1-0.7-8.2-1.2-12.2c-0.9-7.2-1.9-14.4-2.7-21.7c-0.6-5.3-0.7-10.6-1.3-15.9c-1.1-10.9-1.1-21.8,0-32.8c0.3-2.9,0-5.9,0-8.9
		c-1.1,1.2-1.7,2.5-1.8,3.9c-0.4,4-1,7.9-0.9,11.9c0.2,11.6,0.2,23.3,1.1,34.8c0.7,9.6,2.4,19,3.8,28.5
		C155.6,279,156.5,283.1,157.2,287.2z M293,190.9c-9.8-14.1-46.9-14.6-58.9-7.3c1.3,0.1,2.3,0.4,3.2,0.3c4.8-0.6,9.5-1.3,14.3-2.1
		c11.7-1.9,22.8,0.3,33.4,5.2C287.7,188.3,290.3,189.6,293,190.9z M246,259.1c-5.4,1.8-12.1,5.8-13.8,8
		C236.7,267.5,243.8,263.5,246,259.1z M217.2,264c1.7,4.6,6.1,6,9.4,3.1C223.5,266.1,220.5,265.1,217.2,264z M243.6,205.4
		c-4.5,0.5-5,0.8-6.1,4.2C239.8,208.5,242.3,208,243.6,205.4z M155.4,208.2c1.3-2.2,4.4-3.4,4.3-7
		C157,203.1,155.3,205.1,155.4,208.2z M223.4,187c0.2,0.3,0.4,0.6,0.6,0.9c1.5-0.2,3.1-0.4,4.2-3.3C226,185.7,224.7,186.3,223.4,187
		z"/>
	<path d="M145,309c-2-2.2-3.9-4.4-5.9-6.6c-0.5-0.6-0.9-1.2-1.6-1.8c3.2,13.9,5.1,28.1,10.4,41.4c2.3,5.9,4.9,11.8,9.8,16
		c2.4,2,5.1,3.6,7.8,5.2c1.9,1.1,4,1.2,6.6,0c-6.6-8.6-9.6-18.4-12-28.4c-1.9-8.1-2.6-16.4-2.1-24.8c0.1-1.8,0.7-3.5,1.9-5.2
		c0,3.7,0.3,7.4,0.1,11c-0.2,3.8,0.7,7.2,2.6,10.5c3.8,6.5,7,13.2,12.6,18.4c1.2,1.1,2.6,2,4,3.1c3.3-7.3,6.4-14.3,9.5-21
		c-5.3-15.7-7.3-31.7-8.1-48.5c-1-1-2.2-2.3-3.5-3.6c-3.9-3.7-5.9-8.3-6.4-13.7c-0.2-1.9-0.8-3.9-1.7-5.7c-2-4.1-2.9-8.5-3-13
		c-0.1-3.6,0.7-7.2,1.3-12.2c-0.7-1.6-2-4.5-3.3-7.5c-0.2,0-0.5,0-0.7,0c-0.4,4.3-0.9,8.6-1.2,12.9c-0.4,6.8-0.7,13.6-1,20.4
		c-0.4,14.4,0.5,28.6,6,42.1c2.6,6.5,6.3,12.5,12.1,16.8c0.5,0.4,0.9,0.9,1.8,2c-2.6-0.3-4.1-1.2-5.3-2.6c-2.3-2.6-5-5.1-6.6-8.1
		c-6.2-11.7-11.2-23.7-10.3-37.4c0.4-6.3-0.1-12.7,0.2-19c0.4-8.8,1.1-17.6,1.7-26.3c0.7-9.9,1.4-19.9,2.3-29.8
		c0.5-5.8,1.2-11.6,2.1-17.3c1.5-9.7,2.9-19.4,4.9-28.9c1.8-8.6,4-17.2,7.8-25.2c0.3-0.6,0.7-1.1,1.3-2.1c1.5,1.5,2.5,3.1,3.4,4.8
		c6.3,11.4,13.6,22.1,22.5,31.6c1.8,1.9,3.5,4,5.2,6.1c6.7,7.9,14.1,15,22.3,21.3c8.4,6.5,16.7,13.1,25.1,19.6
		c0.4,0.3,0.9,0.3,1.4,0.4c0.7,0.7,1.3,1.5,2.1,1.9c5.8,2.8,11.6,5.6,17.5,8.3c3.5,1.6,7.2,3,11.1,4.5c0.6-4.8,0-8.7-2.2-12.2
		c-4.2-0.8-8-1.7-11.9-2.1c-2.9-0.3-6-0.6-8.9,0c-2.8,0.6-5.2,0.3-7.7-0.5c-0.9-1.2-1.8-2.4-2.7-3.5c8.1-5,27.6-2,35,5.3
		c0.5,4.4,1.1,8.9,1.7,14.2c2.1,0.8,5,1.8,8.1,2.9c-0.4-3-0.9-5.7-1.2-8.4c-0.3-2.7-0.5-5.4-0.8-8.2c0.3-0.1,0.7-0.3,1-0.4
		c0.6,0.8,1.7,1.4,1.8,2.3c0.8,5,1.3,10.1,2,15.6c5.8,1.9,12.2,4,18.6,6.1c-6.5,0.6-12.4-1.4-18.3-3c-0.3,3.1-0.4,6-1,8.8
		c-0.9,4.3-3.4,7.6-7.7,9.1c-3.8,1.3-7.6,2.5-11.5,3.2c-8.2,1.5-16.4,2.8-24.6,4c-5.8,0.8-11.2,0.1-16.1-3.5
		c-2.9-2.2-6.3-3.8-7.6-7.6c-0.2-0.7-1-1.3-1.7-1.7c-3.1-1.7-6.5-1.3-9.8-1c-1.8,0.2-3.4,1.7-4.6,2.3c-0.3,1.1-0.5,1.4-0.5,1.8
		c0.6,5.8-2.3,9.1-7.3,11.7c-7.1,3.7-14.8,4.7-22.5,6.2c-3.9,0.8-7.9,0.8-11.9,1c-1.4,0.1-2.7-0.3-2.4-2.3c0.3-0.2,0.6-0.6,0.8-0.6
		c5.4,1.2,10.5-0.3,15.7-1.4c6.7-1.3,13.4-2.5,19.5-5.9c4.6-2.6,5.7-4.8,5.1-10c-0.5-3.6-0.7-7.3-0.9-10.9c0-0.2,0.4-0.5,0.7-0.8
		c2.7,1.3,1.7,4.4,2.7,6.5c6.8-3.7,7.3-3.3,14.4-2.2c-0.4-1.9-0.8-3.6-1-5.3c-0.1-1.6,0-3.2,0.1-4.7c2.5-0.4,2.6,1.1,2.9,2.4
		c1.2,4.2,2.1,8.4,3.6,12.4c2.5,6.6,7.9,9.8,14.5,10.5c3.9,0.4,7.9-0.3,11.9-0.9c7.7-1.2,15.4-2.6,23.1-3.9c1.5-0.3,2.9-0.8,4.3-1.2
		c5.5-1.7,8-5.6,8.4-11.1c0.1-1.6,0.3-3.3,0.4-5.5c-2.9-1.2-6.2-2.6-9.8-4.1c-0.8,6.7-4.3,11.2-8.4,15.5c-0.9,0.9-2.1,1.8-3.3,2.1
		c-4.7,1.3-9.5,1.9-14.3,1.5c-3.5-0.3-5.3-3.2-7.3-5.5c-0.8-1-1.4-2.3-1.7-3.6c-1.5-7.5-3.6-14.9-1.9-22.6c0.1-0.3-0.2-0.6-0.4-1.2
		c-7.1,1.4-11.9,6.5-17.3,11.1c-1.7-2.5-0.6-4.1,0.9-5.5c4.1-3.9,8.2-7.7,12.6-11.7c-28.8-20.7-53.8-45.5-71.3-78.2
		c-7.9,24-11.3,48-13.4,72.9c7.8-2.3,14.6-6,23.5-5.5c-3.1,2.3-5.9,2.1-8.4,3s-5.1,1.5-7.6,2.4c-2.6,1-5.2,2.2-8,3.4
		c-0.7,6.6-1.4,13-2.1,19.7c1.1,1,2.2,2.1,3.3,3.2c2.4-1.6,0.6-3.5,0.7-5.1c2.8-4.1,6.9-5.4,11.3-5.7c6.2-0.4,12.3-0.5,18,2.7
		c0.7,0.4,1.6,0.3,2.4,0.4l0,0c0.3,0.3,0.7,0.7,1,1l-0.1-0.1c1,0.7,2,1.4,3.1,2.1l-0.1-0.1c6,6.6,5.9,14.9,6,23c0,3-1.2,5.9-4.7,6.9
		c-0.5,0.1-0.9,0.4-1.3,0.7c-4.5,2.8-9.3,4-14.9,2.5c-4.3-4.3-7.1-9.8-8.8-15.7c-1.6-5.8-2.1-11.7-0.2-17.7c-3-1.2-4.6,0-5.9,1.9
		c-1.4,2-2.8,4-4.4,6.4c1.1,3,2.2,6.7,3.9,10.1c1.7,3.4,1.3,6.7,1.1,10.2c-0.4,5-1,10-0.5,14.9c0.6,6.3,4.6,10.9,9.5,14.6
		c5.6,4.2,12.2,6.1,19,6.9c8.4,1,16.9,1.4,25.3,2.2c6.8,0.7,13.3-0.5,19.7-2.4c10.5-3.2,20.9-7,30.7-11.9
		c7.6-3.8,14.7-8.4,21.9-12.9c2.6-1.7,5.1-3.8,7.2-6.1c1.6-1.8,3.4-2.4,5.6-2.8c5.8-1,11.3-2.5,16.6-5.1c7.7-3.8,11.8-10.2,13-18.3
		c1.3-8.8-0.7-16.9-6.2-24c-4.2-5.4-9.8-7.2-16.3-5.3c-3.6,1-5.5,3.7-6.9,6.7c-1,2.2-0.1,4.3,1.4,6c3.8,4.6,7.7,9.2,11.5,13.8
		c2.3,2.7,4.5,5.5,6.3,8.6c-26.3-23.8-44.3-52.6-51.7-87.7c1.2,2.6,2.5,5.2,3.4,7.9c3.5,10.8,7.8,21.2,13.1,31.3
		c3.6,7,8.2,13.3,12.9,20.3c1-1.4,1.9-2.3,2.4-3.4c3.1-6.7,15.6-9.3,22.7-3c4.4,3.9,7.4,8.5,9.1,14c3,10,1.7,19.3-4.2,28
		c-2.2,3.2-5.2,5.1-8.4,6.9c-2.2,1.2-4.5,2.2-7,3.4c3.1,14.9,2.2,30,0.9,45c5.1,4.5,10.3,8.4,14.6,13.2c4.1,4.7,7.1,10.3,10.7,15.5
		c3.6-4.6,9.7-27.2,11-38.3c1.6-13.4-0.2-26.4-2.9-39.5c2.1,1.5,2.4,1.7,2.8,3.4c0.8,3.6,1.6,7.1,2,10.8c1.5,13.2,2.9,26.5,2,39.8
		c-0.7,10.8-1.2,21.6-3.8,32.1c-0.8,3.2-1.9,6.4-3.2,9.4c-0.8,2.1-1.3,4.1-0.2,6.6c0.9-0.5,1.9-0.8,2.3-1.5
		c3.3-5.3,6.8-10.6,9.8-16.1c3.4-6.4,4.8-13.5,5.1-20.6c0.3-9.3,0.5-18.7-0.1-28c-0.8-12.7-1.4-25.5-3.5-38.2
		c-1.8-10.8-2.9-21.7-4.4-32.6c-0.9-6.7-2.3-13.4-3.1-20.2c-1.5-12.5-5.5-24.3-9.8-36c-5.7-15.4-13.6-29.6-24.6-42
		c-5.9-6.6-11.8-13.2-18.3-19.1c-11.6-10.6-24.3-19.7-39.6-24.4c-8-2.5-16.1-4.3-24.5-4.4c-2.8,0-5.6-0.8-8.4-0.7
		c-19.8,0.7-38.6,4.9-55.1,16.5c-1.6,1.1-3.2,2.4-4.6,3.8c-1.2,1.2-2.2,2.7-3.8,4.6c-0.3-3.2,0.9-5,2.5-6.3c3-2.6,6-5.3,9.4-7.3
		c12.1-7,25.1-11.1,39.1-12.8c15.6-1.8,30.8-0.3,45.9,3.8c10.9,3,20.4,8.9,29.4,15.5c15.1,11.2,28.2,24.5,38.7,40
		c10.3,15.1,17.9,31.5,21.8,49.5c1.4,6.6,3,13.3,4.3,19.9c0.7,3.7,1.1,7.5,1.7,11.3c1.2,8.2,2.5,16.4,3.6,24.6
		c0.9,6.2,1.7,12.5,2.5,18.8c1,8.7,2.2,17.5,2.7,26.2c0.7,10.6,1.1,21.3,1,31.9c0,5.4-1.2,10.9-2.1,16.3
		c-1.9,10.9-7.5,19.7-15.2,27.5c-0.8,0.8-1.5,1.7-2.2,2.4c1.5,8.1,3.1,15.9,4.2,23.7c1.1,7.7,1.8,15.5,2.4,23.3
		c0.2,3.2-0.5,6.5-0.8,9.8c-0.3,0-0.7,0-1,0c-0.3-2.5-0.9-5-1-7.6c-0.2-18.9-4-37.3-9-55.4c-1.7-6.1-3.3-12.2-5.4-18.1
		c-1.3-3.7-3.3-7.3-5.6-10.5c-4.9-6.8-10.9-12.4-17.8-17.3c-4-2.8-7.6-5.8-12.6-7.1c-0.4,0.7-1,1.3-1.2,2.1
		c-2,6.2-5.4,11.7-8.7,17.3c-1.3,2.3-2.9,3.5-5.3,4c-5,1.2-10,2.3-15,3.5c-1.3,0.3-2.5,0.7-3.7,1.1c-9.1,22.6-12.7,46.5-16.9,69.9
		c-5.7,4.8-9,5.4-13.9,2.7c1.3-0.3,2.5-0.9,3.8-0.9c3.5,0,6.4-1.4,8.4-3.1c2-12,3.4-23.3,5.9-34.4c2.5-11.2,6-22.2,9.2-33.8
		c-3.9,0.6-7.5,1-11,1.7c-2,0.4-2.8,1.9-3.6,3.7c-4.4,10.5-6.8,21.5-8.6,32.6c-1.4,8.8-2.8,17.7-3.8,26.5c-0.3,2.5-2,5.1-0.3,7.7
		c-1.1-0.1-1.9-0.6-2-1.8c0-2-0.1-4,0.1-6c1.2-9.5,2.4-19.1,3.8-28.6c1.7-11,4.5-21.8,9.1-32.3c-0.8-0.6-1.6-1.3-2.9-2.3
		c14.3-4.1,28.9-4.9,42.6-9.5c5.1-7.3,9.1-15.1,11.9-23.9c-4.3-8.8-8.6-17.9-20.4-19.4c-6.7,3.5-13.5,6.9-20.2,10.4
		c-0.3,4.6,5.3,2.7,5.9,6.1c-0.2,2.2-2.2,2.1-3.6,2.8c-4.1,1.8-8.3,3.5-12.2,5.5c-6.5,3.3-11.2,8.8-16.1,14
		c-0.7,0.7-1.2,1.6-1.9,2.3c-2.2,2.2-4.5,4.4-4.9,8.5c-1.2-1.1-2.1-1.6-2.4-2.4c-1.8-4.6-3.4-9.3-5.2-14.2c1.7-2.6,3.2-5.2,4.9-7.8
		c-3.1-6.8-9.4-4.6-14.9-5.4c-2.4,2.3-4.9,4.5-7.1,7c-3.5,3.9-4.6,8.3-3,13.4c1.1,3.6,2.1,7.3,3,10.7c3.9,1.6,7.2,3,10.2,4.3
		c2.9,4.2,1.4,8.2,0.8,12c-1.9,11.4-4.2,22.8-6.3,34.2c-0.1,0.8,0,1.6,0,2.4c-1.1,1.3-2.3,1.1-3.5,0.3c-3.3-2.2-4.9-5.5-4.8-9.4
		c0.2-5.6,0.3-11.3,1.2-16.9c1.2-7.5,3.2-14.9,4.9-22.8c-4.6-1.3-6-5.4-6.9-10c-0.3-1.7-1-3.4-1.7-5.7c-1.2,1-2.1,1.5-2.6,2.2
		c-7.2,9.8-13.1,20.4-17.8,31.7c-4.6,10.9-7.7,22.3-11.1,33.6c-1.8,6-4.3,11.7-6.7,18.1c-1.9-1.9-1-3.4-0.5-4.9
		c2-6.8,4.1-13.7,6-20.4c-0.5-0.4-0.7-0.8-1-0.8c-8.4,0.4-14.1-4-18.9-10.2c-4.2-5.3-7.1-11.4-8.9-17.8c-2.7-9.9-4.8-20-7.1-30
		c-1.6-7.3-2.7-14.7-7.4-20.9c-4.1-5.4-6.1-11.8-7.3-18.4c-0.9-4.7,0.2-9.3,1.2-13.8c1.9-8.8,4-17.5,5.7-26.3
		c0.9-5,1.6-10.2,1.6-15.3c0-11.6-0.9-23.3-0.6-34.9c0.6-19.8,4.2-39.1,13.9-56.6c4.4-8,9.6-15.5,14.7-23.1
		c3.5-5.2,9.2-7.7,14.9-10.2c-1.1,1-2.1,2.3-3.4,3.1c-7,4.5-12.2,10.7-16.2,17.9c-3,5.5-6.6,10.8-9.5,16.4
		c-5.9,11.5-9.2,23.9-10.4,36.7c-0.7,7.4-0.9,14.9-1.1,22.4c-0.2,6.3-0.1,12.7,0.2,19c0.7,14.8-1.8,29.1-5.5,43.4
		c-1.2,4.7-2.8,9.3-3.3,14.1c-0.8,7.9,0.8,15.5,5.2,22.4c4.7,7.4,9.5,14.8,14.2,22.3C144.4,307.1,144.6,308.1,145,309L145,309z
		 M192,320c1.1-2,2.1-4.1,3.5-5.9c2.2-2.9,4.9-5.4,7.2-8.3c1.3-1.6,2.2-3.6,3.2-5.4c1.4-2.6,2.5-5.4,4.1-7.8
		c1.2-1.9,3.1-3.4,4.8-5.3c-3.6-1.8-7.4-0.7-10.9-1.3c-3.7-0.6-7.5-1.5-11.2-2.2c-3.5-0.6-6.3-3.3-10.6-3.7c1.1,4.4,2,8.2,3,12
		C187.4,301.4,189.7,310.7,192,320c-0.6-0.8-1.5-1.6-1.9-2.5c-1.2-2.5-2.2-5.2-3.3-7.8c0.5,4.9,0.8,9.7,3.9,14.6
		C191.2,322.4,191.6,321.2,192,320z M263.3,238.7c5.2,0.8,10.3-0.3,15.5-1.6c1-0.2,1.8-1.2,2.6-2c3.8-3.6,6.2-8.1,8.2-13.4
		c-12.2-4.2-23.6-10.2-34.9-16.4c0.1,0.7,0.5,1.1,0.9,1.5c0.5,0.5,0.9,0.9,1.3,1.2C257.4,228.2,257.8,230,263.3,238.7z M190,249.8
		c5.3,0,9.6-1.8,13.5-4.3c1-0.6,1.9-1.9,2.3-3.1c1.8-6.5,0.5-12.7-4-17.7c-5-5.5-12-7.1-19.5-7.6C179.5,229.7,182.3,240.4,190,249.8
		z M294,265.6c10.5,4.2,15,12.9,18.9,22.4c1.4,0.6,2.9,1.2,5,2.1c0.8-5.5,1.4-10.6,2.2-15.7c0.9-5.9,0.3-11.9,2.6-17.6
		c0.9-2.2,0.9-4.5-1.1-6.8c-3.8,0.5-7.7,1-11.1,1.4C304.8,256.2,299.6,260.7,294,265.6z M264.7,279.4c-9.9,3-19.5,6-29.1,9
		c3.2,9.1,3.3,10,0,12.5c-0.4-1.6-0.8-3.1-1.4-5.2c-1.3,1.8-2.2,3-3.1,4.2c1.6,3.8,2,7.8,4.8,11.2c8-10.6,16.9-19.6,28.8-25.1
		C264.7,283.6,264.7,281.6,264.7,279.4z M214.3,369.1c2.5-15,5-29.5,7.5-44.3c-1.8-0.6-3.3-1-5.4-1.7c-1.3,5.3-2.8,10.2-3.6,15.3
		c-1.2,7.2-2,14.4-2.6,21.7C209.9,363.4,210.4,366.7,214.3,369.1z M362.8,291.7c-0.3,0-0.7-0.1-1-0.1c-2.7,12-5.2,24.2-10.6,35.2
		c1.4,4.4,2.7,8.6,4.3,13.8c0.9-1.7,1.3-2.4,1.5-3.1c3.2-9,4-18.4,4.9-27.8c0.4-4.1,0.6-8.3,0.9-12.4
		C362.9,295.5,362.8,293.6,362.8,291.7z M172.9,361.5c0.4,0,0.8,0.1,1.3,0.1c1.6-4,3.2-8.1,4.8-12.1c-6.7-4-6.7-4-16.9-18.8
		C163.5,341.8,167.7,351.9,172.9,361.5z M323.2,266.7c-1.1,8.1-2.3,16.2-3.5,24.6c0.7,0.5,1.6,1,2.8,1.8
		C323.9,284,324.2,275.4,323.2,266.7z M170.2,238.9c0.1,1.1,0.2,2.3,0.3,3.9C172.3,241,171.4,239.9,170.2,238.9z M267.9,285.3
		c1.5-0.8,2.2-1.2,3.3-1.8c-1.1-0.6-1.7-1-2.6-1.5C268.3,283,268.2,283.6,267.9,285.3z"/>
	<path d="M142.1,298.7c-1.1-1-2.4-1.9-3.3-3.1c-4.4-6-6.2-13.1-8.8-20c-1.9-5.3-2.4-10.6-2.1-16.1c0.4-7.9,2.9-15.2,6-22.4
		c0.3-0.8,1.2-1.3,2.3-2.5c0.3,1.4,0.7,2.2,0.6,2.8c-2.4,10.6-1.9,21.4-1.7,32.2c0.1,4.3,0.5,8.6,1,12.9c0.6,4.3,1.5,8.5,4.4,11.9
		c0.8,1,1.4,2.2,2.1,3.3C142.5,298.1,142.3,298.4,142.1,298.7z M133.5,277.3c-0.2-5.1-0.5-10.2-0.6-15.3c-0.1-5.1,0-10.2,0-15.3
		C129.1,257,128.5,267.2,133.5,277.3z"/>
	<path d="M157.2,287.2c-0.7-4.1-1.6-8.2-2.2-12.4c-1.4-9.5-3.1-19-3.8-28.5c-0.9-11.6-0.9-23.2-1.1-34.8c-0.1-4,0.5-7.9,0.9-11.9
		c0.1-1.4,0.7-2.7,1.8-3.9c0,3,0.2,6,0,8.9c-1.1,10.9-1.1,21.9,0,32.8c0.5,5.3,0.7,10.6,1.3,15.9c0.8,7.2,1.8,14.4,2.7,21.7
		c0.5,4.1,0.8,8.2,1.2,12.2C157.8,287.2,157.5,287.2,157.2,287.2z"/>
	<path d="M293,190.9c-2.7-1.3-5.3-2.7-8-3.9c-10.7-4.9-21.7-7-33.4-5.2c-4.7,0.8-9.5,1.5-14.3,2.1c-0.9,0.1-1.9-0.2-3.2-0.3
		C246.1,176.3,283.1,176.8,293,190.9z"/>
	<path d="M246,259.1c-2.2,4.3-9.3,8.3-13.8,8C233.9,264.9,240.6,261,246,259.1z"/>
	<path d="M217.2,264c3.3,1.1,6.2,2.1,9.4,3.1C223.3,270.1,218.9,268.6,217.2,264z"/>
	<path d="M199,215c0-0.3,0-0.7,0.1-1s0.4-0.5,0.9-1.1c2,1.1,4,2.2,6,3.4c-0.1,0.3-0.1,0.7-0.2,1c-1,0.2-1.9,0.4-2.9,0.6l0.1,0.1
		c-1-0.7-2-1.4-3.1-2.1l0.1,0.1C199.7,215.7,199.3,215.3,199,215L199,215z"/>
	<path d="M243.6,205.4c-1.3,2.6-3.8,3.1-6.1,4.2C238.6,206.2,239,205.9,243.6,205.4z"/>
	<path d="M155.4,208.2c0-3.2,1.6-5.1,4.3-7C159.8,204.8,156.7,206.1,155.4,208.2z"/>
	<path d="M223.4,187c1.3-0.6,2.6-1.3,4.8-2.4c-1.1,3-2.7,3.1-4.2,3.3C223.8,187.6,223.6,187.3,223.4,187z"/>
	<path d="M145,309c0.2,0.1,0.3,0.3,0.2,0.2C145.3,309.3,145.2,309.1,145,309L145,309z"/>
	<path class="st0" d="M247,391c-1.7-2.6,0-5.2,0.3-7.7c1-8.9,2.4-17.7,3.8-26.5c1.8-11.2,4.2-22.1,8.6-32.6c0.8-1.8,1.6-3.4,3.6-3.7
		c3.5-0.7,7.1-1.1,11-1.7c-3.2,11.6-6.7,22.6-9.2,33.8c-2.5,11.1-3.9,22.5-5.9,34.4c-2,1.7-4.9,3.1-8.4,3.1
		C249.5,390.1,248.2,390.7,247,391L247,391z"/>
	<path class="st0" d="M263.3,238.7c-5.5-8.6-5.9-10.5-6.4-30.7c-0.3-0.3-0.8-0.7-1.3-1.2c-0.4-0.4-0.7-0.8-0.9-1.5
		c11.3,6.2,22.7,12.3,34.9,16.4c-2.1,5.3-4.4,9.8-8.2,13.4c-0.8,0.8-1.7,1.8-2.6,2C273.6,238.4,268.5,239.5,263.3,238.7z"/>
	<path class="st0" d="M190,249.8c-7.7-9.5-10.5-20.1-7.7-32.6c7.5,0.5,14.5,2.1,19.5,7.6c4.5,4.9,5.7,11.1,4,17.7
		c-0.3,1.2-1.2,2.4-2.3,3.1C199.6,248,195.4,249.9,190,249.8z"/>
	<path class="st0" d="M294,265.6c5.6-4.9,10.8-9.4,16.4-14.2c3.4-0.4,7.3-0.9,11.1-1.4c1.9,2.3,1.9,4.7,1.1,6.8
		c-2.3,5.7-1.7,11.8-2.6,17.6c-0.8,5-1.4,10.1-2.2,15.7c-2.1-0.9-3.5-1.5-5-2.1C309,278.5,304.4,269.7,294,265.6z"/>
	<path class="st0" d="M192,320c-2.3-9.3-4.6-18.6-7-27.9c-1-3.8-1.9-7.6-3-12c4.2,0.4,7.1,3,10.6,3.7c3.7,0.7,7.5,1.5,11.2,2.2
		c3.5,0.6,7.3-0.5,10.9,1.3c-1.8,1.9-3.6,3.4-4.8,5.3c-1.6,2.4-2.7,5.2-4.1,7.8c-1,1.9-1.9,3.8-3.2,5.4c-2.3,2.9-4.9,5.4-7.2,8.3
		C194,315.9,193.1,318,192,320L192,320z"/>
	<path class="st0" d="M264.7,279.4c0,2.1,0,4.2,0,6.6c-11.9,5.5-20.8,14.5-28.8,25.1c-2.9-3.3-3.2-7.3-4.8-11.2
		c0.9-1.2,1.8-2.5,3.1-4.2c0.6,2.1,1,3.6,1.4,5.2c3.3-2.5,3.3-3.4,0-12.5C245.2,285.4,254.9,282.5,264.7,279.4z"/>
	<path class="st0" d="M214.3,369.1c-3.9-2.4-4.4-5.8-4.1-9.1c0.6-7.2,1.4-14.5,2.6-21.7c0.8-5,2.3-9.9,3.6-15.3
		c2.1,0.7,3.6,1.1,5.4,1.7C219.3,339.6,216.9,354.1,214.3,369.1z"/>
	<path class="st0" d="M362.8,291.7c0,1.9,0.1,3.8,0,5.7c-0.2,4.1-0.5,8.3-0.9,12.4c-0.9,9.4-1.7,18.8-4.9,27.8
		c-0.3,0.7-0.7,1.4-1.5,3.1c-1.6-5.2-2.9-9.4-4.3-13.8c5.4-11.1,7.9-23.2,10.6-35.2C362.1,291.6,362.4,291.6,362.8,291.7z"/>
	<path class="st0" d="M259,204c2.5,0.8,5,1,7.7,0.5c2.9-0.6,5.9-0.3,8.9,0c3.9,0.5,7.8,1.3,11.9,2.1c2.2,3.5,2.7,7.4,2.2,12.2
		c-3.9-1.6-7.5-2.9-11.1-4.5c-5.9-2.7-11.7-5.5-17.5-8.3C260.3,205.5,259.7,204.6,259,204L259,204z"/>
	<path class="st0" d="M172.9,361.5c-5.3-9.7-9.4-19.7-10.8-30.7c10.2,14.8,10.2,14.8,16.9,18.8c-1.6,4-3.2,8-4.8,12.1
		C173.8,361.6,173.4,361.6,172.9,361.5z"/>
	<path class="st0" d="M323.2,266.7c1.1,8.7,0.8,17.3-0.6,26.4c-1.2-0.8-2.1-1.3-2.8-1.8C320.9,282.9,322,274.8,323.2,266.7z"/>
	<path class="st0" d="M192,320c-0.4,1.2-0.8,2.4-1.4,4.3c-3.1-4.8-3.4-9.7-3.9-14.6c1.1,2.6,2.1,5.2,3.3,7.8
		C190.5,318.4,191.3,319.2,192,320L192,320z"/>
	<path class="st0" d="M170.2,238.9c1.3,0.9,2.1,2.1,0.3,3.9C170.3,241.2,170.2,240.1,170.2,238.9z"/>
	<path class="st0" d="M267.9,285.3c0.3-1.7,0.4-2.3,0.6-3.3c0.9,0.5,1.6,0.9,2.6,1.5C270.1,284.1,269.4,284.5,267.9,285.3z"/>
	<path class="st0" d="M200,216c1,0.7,2,1.4,3.1,2.1C202,217.3,201,216.7,200,216z"/>
	<path class="st0" d="M199,215c0.3,0.3,0.7,0.7,1,1C199.7,215.7,199.3,215.3,199,215z"/>
	<path class="st0" d="M133.5,277.3c-5-10.1-4.4-20.3-0.7-30.5c0,5.1-0.1,10.2,0,15.3C133,267.1,133.3,272.2,133.5,277.3z"/>
</g>
<script>
	var line=document.querySelector('.st1').getTotalLenght();
	console.log(line);
</script>
</svg>
