<svg id="Layer_1" data-name="Layer 1" xmlns="http://www.w3.org/2000/svg" viewBox="0 0 474 423.42">
  <defs>
    <style>
      .cls-1{fill:#fff}
    </style>
  </defs>
  <g id="me">
    <path class="cls-1" d="M383 421H117V57h266Zm-136-30c4.8 2.7 8.2 2 13.8-2.8 4.2-23.5 7.7-47.3 16.9-69.9 1.2-.3 2.4-.8 3.7-1.1 5-1.2 10-2.3 15-3.5a7.65 7.65 0 0 0 5.3-4c3.3-5.6 6.7-11.1 8.7-17.3a8.78 8.78 0 0 1 1.2-2.1c5 1.3 8.6 4.3 12.6 7.1a73.15 73.15 0 0 1 17.8 17.3 42.44 42.44 0 0 1 5.6 10.5c2.2 5.9 3.7 12.1 5.4 18.1 5 18.1 8.8 36.5 9 55.4a51.13 51.13 0 0 0 1 7.6h1c.3-3.3 1.1-6.6.8-9.8-.5-7.8-1.3-15.5-2.4-23.3s-2.8-15.7-4.2-23.7c.6-.7 1.4-1.6 2.2-2.4 7.6-7.7 13.3-16.6 15.2-27.5.9-5.4 2.1-10.8 2.1-16.3.1-10.6-.4-21.3-1-31.9-.6-8.8-1.7-17.5-2.7-26.2-.7-6.3-1.6-12.5-2.5-18.8l-3.6-24.6c-.6-3.8-.9-7.6-1.7-11.3-1.3-6.7-2.9-13.3-4.3-19.9-3.9-18-11.5-34.4-21.8-49.5a169 169 0 0 0-38.7-40c-9-6.7-18.5-12.5-29.4-15.5a116.52 116.52 0 0 0-45.9-3.8A100.19 100.19 0 0 0 187 74.6a65.78 65.78 0 0 0-9.4 7.3 6.8 6.8 0 0 0-2.5 6.3 51.82 51.82 0 0 1 3.8-4.6 28.18 28.18 0 0 1 4.6-3.8C200 68.2 218.8 64 238.6 63.3c2.8-.1 5.6.6 8.4.7 8.4.1 16.5 1.9 24.5 4.4 15.3 4.7 28 13.9 39.6 24.4a254.37 254.37 0 0 1 18.3 19.1c11 12.3 18.9 26.6 24.6 42 4.3 11.7 8.3 23.5 9.8 36 .8 6.8 2.1 13.4 3.1 20.2 1.5 10.8 2.6 21.8 4.4 32.6 2.1 12.7 2.7 25.4 3.5 38.2.6 9.3.4 18.7.1 28-.3 7.1-1.6 14.3-5.1 20.6-3 5.5-6.4 10.8-9.8 16.1-.4.7-1.5 1-2.3 1.5-1.1-2.5-.6-4.5.2-6.6a80.07 80.07 0 0 0 3.2-9.4c2.6-10.5 3.1-21.3 3.8-32.1.9-13.3-.5-26.6-2-39.8-.4-3.6-1.3-7.2-2-10.8-.4-1.7-.7-1.9-2.8-3.4 2.7 13.1 4.5 26.2 2.9 39.5-1.3 11.2-7.5 33.7-11 38.3-3.5-5.2-6.6-10.8-10.7-15.5s-9.5-8.7-14.6-13.2c1.3-15 2.2-30.1-.9-45 2.6-1.2 4.9-2.2 7-3.4 3.2-1.8 6.2-3.8 8.4-6.9 5.9-8.7 7.2-18 4.2-28a30 30 0 0 0-9.1-14c-7.2-6.4-19.7-3.8-22.7 3a24.34 24.34 0 0 1-2.4 3.4c-4.7-7-9.2-13.3-12.9-20.3a209.09 209.09 0 0 1-13.1-31.3c-.9-2.7-2.3-5.3-3.4-7.9 7.4 35.1 25.4 63.9 51.7 87.7a65.35 65.35 0 0 0-6.3-8.6c-3.8-4.6-7.7-9.1-11.5-13.8-1.4-1.7-2.4-3.8-1.4-6 1.4-3 3.4-5.7 6.9-6.7 6.5-1.9 12.1-.2 16.3 5.3a30.54 30.54 0 0 1 6.2 24c-1.2 8.1-5.3 14.5-13 18.3a58 58 0 0 1-16.6 5.1c-2.2.4-4 .9-5.6 2.8a32.37 32.37 0 0 1-7.2 6.1c-7.2 4.5-14.4 9.1-21.9 12.9a184 184 0 0 1-30.7 11.9c-6.4 1.9-12.9 3.1-19.7 2.4-8.4-.8-16.9-1.2-25.3-2.2-6.8-.8-13.4-2.7-19-6.9-5-3.7-8.9-8.3-9.5-14.6-.5-4.9.1-9.9.5-14.9.3-3.5.6-6.8-1.1-10.2s-2.7-7.1-3.9-10.1c1.6-2.3 3-4.3 4.4-6.4 1.3-1.9 2.9-3.1 5.9-1.9a29.68 29.68 0 0 0 .2 17.7c1.7 6 4.4 11.4 8.8 15.7 5.5 1.5 10.3.3 14.9-2.5a4.15 4.15 0 0 1 1.3-.7c3.5-1 4.7-3.9 4.7-6.9 0-8.1 0-16.4-6-23l2.9-.6c.1-.3.1-.7.2-1-2-1.1-4.1-2.3-6-3.4-.5.6-.8.8-.9 1.1a3.08 3.08 0 0 0-.1 1 6.05 6.05 0 0 1-2.4-.4c-5.7-3.2-11.8-3.1-18-2.7-4.4.3-8.5 1.6-11.3 5.7-.1 1.5 1.7 3.5-.7 5.1-1.1-1-2.2-2.1-3.3-3.2.7-6.7 1.4-13.1 2.1-19.7 2.8-1.2 5.3-2.4 8-3.4 2.5-.9 5.1-1.5 7.6-2.4s5.3-.7 8.4-3c-8.9-.5-15.7 3.2-23.5 5.5 2.1-24.8 5.5-48.8 13.4-72.9 17.5 32.8 42.5 57.6 71.3 78.2L238 213.8c-1.5 1.4-2.6 3-.9 5.5 5.4-4.6 10.2-9.7 17.3-11.1.2.6.5.9.4 1.2-1.7 7.7.5 15.2 1.9 22.6a8 8 0 0 0 1.7 3.6c2 2.4 3.8 5.3 7.3 5.5a40.83 40.83 0 0 0 14.3-1.5 7.77 7.77 0 0 0 3.3-2.1c4-4.2 7.6-8.8 8.4-15.5 3.6 1.5 6.9 2.9 9.8 4.1-.2 2.2-.3 3.9-.4 5.5-.4 5.5-2.9 9.5-8.4 11.1-1.4.4-2.9.9-4.3 1.2-7.7 1.4-15.4 2.8-23.1 3.9-3.9.6-8 1.3-11.9.9-6.6-.7-12-4-14.5-10.5-1.5-4-2.5-8.3-3.6-12.4-.4-1.2-.5-2.7-2.9-2.4 0 1.5-.2 3.2-.1 4.7.2 1.7.6 3.4 1 5.3-7.1-1.1-7.6-1.6-14.4 2.2-1-2.1 0-5.1-2.7-6.5-.3.3-.7.6-.7.8.3 3.6.5 7.3.9 10.9.7 5.3-.5 7.5-5.1 10-6.1 3.4-12.8 4.5-19.5 5.9-5.2 1-10.3 2.6-15.7 1.4-.2 0-.5.4-.8.6-.4 2 1 2.4 2.4 2.3a93.93 93.93 0 0 0 11.9-1c7.6-1.5 15.3-2.5 22.5-6.2 5-2.6 7.9-5.9 7.3-11.7 0-.3.2-.6.5-1.8 1.2-.6 2.8-2.1 4.6-2.3 3.3-.4 6.7-.8 9.8 1a3.51 3.51 0 0 1 1.7 1.7c1.3 3.8 4.7 5.4 7.6 7.6 4.9 3.7 10.4 4.4 16.1 3.5 8.2-1.2 16.4-2.5 24.6-4a78.64 78.64 0 0 0 11.5-3.2 11.58 11.58 0 0 0 7.7-9.1 78.79 78.79 0 0 0 1-8.8c5.9 1.6 11.8 3.6 18.3 3l-18.6-6.1c-.7-5.5-1.3-10.6-2-15.6-.1-.8-1.2-1.5-1.8-2.3-.3.1-.7.3-1 .4.3 2.7.5 5.5.8 8.2s.8 5.4 1.2 8.4c-3.1-1.1-6-2.2-8.1-2.9-.6-5.2-1.2-9.7-1.7-14.2-7.5-7.3-27-10.3-35-5.3.9 1.2 1.8 2.4 2.7 3.5v-.1c-.5-.1-1.1-.1-1.4-.4-8.4-6.5-16.7-13.1-25.1-19.6a154.89 154.89 0 0 1-22.3-21.3c-1.7-2-3.4-4.1-5.2-6.1-9-9.5-16.2-20.2-22.5-31.6a19.16 19.16 0 0 0-3.4-4.8c-.6 1-1 1.5-1.3 2.1a106.64 106.64 0 0 0-7.8 25.2c-2 9.6-3.4 19.3-4.9 28.9-.9 5.7-1.6 11.5-2.1 17.3-.9 9.9-1.6 19.9-2.3 29.8-.6 8.8-1.3 17.6-1.7 26.3-.3 6.3.2 12.7-.2 19-.9 13.7 4.2 25.7 10.3 37.4 1.6 3 4.3 5.5 6.6 8.1a8.33 8.33 0 0 0 5.3 2.6c-1-1.1-1.3-1.7-1.8-2-5.8-4.3-9.5-10.2-12.1-16.8-5.4-13.5-6.4-27.8-6-42.1.2-6.8.5-13.6 1-20.4.3-4.3.8-8.6 1.2-12.9h.7c1.3 3 2.6 6 3.3 7.5-.6 5.1-1.4 8.6-1.3 12.2a30.93 30.93 0 0 0 3 13 18.77 18.77 0 0 1 1.7 5.7 20.32 20.32 0 0 0 6.4 13.7c1.3 1.2 2.6 2.6 3.5 3.6.7 16.8 2.7 32.9 8.1 48.5-3 6.8-6.2 13.7-9.5 21-1.4-1.1-2.8-2-4-3.1-5.6-5.2-8.9-12-12.6-18.4a18.47 18.47 0 0 1-2.6-10.5c.2-3.7-.1-7.4-.1-11a10.06 10.06 0 0 0-1.9 5.2 86.19 86.19 0 0 0 2.1 24.8c2.3 10 5.3 19.9 12 28.4a6.72 6.72 0 0 1-6.6 0 52.91 52.91 0 0 1-7.8-5.2c-4.9-4.3-7.5-10.1-9.8-16-5.2-13.3-7.2-27.5-10.4-41.4a9 9 0 0 1 1.6 1.8c1.9 2.2 3.9 4.4 5.9 6.6.1.2.3.3.2.3l-.2-.2a21.76 21.76 0 0 0-1.1-2.7c-4.7-7.4-9.5-14.9-14.2-22.3a34 34 0 0 1-5.2-22.4c.5-4.7 2.1-9.4 3.3-14.1 3.7-14.2 6.1-28.6 5.5-43.4-.3-6.3-.3-12.7-.2-19 .2-7.5.4-15 1.1-22.4a100.38 100.38 0 0 1 10.4-36.7c2.9-5.6 6.5-10.8 9.5-16.4a48.12 48.12 0 0 1 16.2-17.9 19.86 19.86 0 0 0 3.4-3.1c-5.8 2.4-11.4 4.9-14.9 10.2-5.1 7.6-10.3 15.2-14.7 23.1-9.8 17.5-13.3 36.8-13.9 56.6-.3 11.6.6 23.3.6 34.9a87.28 87.28 0 0 1-1.6 15.3c-1.7 8.8-3.7 17.5-5.7 26.3-1 4.6-2.1 9.1-1.2 13.8 1.3 6.6 3.3 12.9 7.3 18.4 4.7 6.2 5.8 13.6 7.4 20.9 2.2 10 4.3 20.1 7.1 30a49.7 49.7 0 0 0 8.9 17.8c4.9 6.1 10.6 10.6 18.9 10.2.2 0 .5.4 1 .8-2 6.7-4 13.6-6 20.4-.4 1.5-1.3 3 .5 4.9 2.4-6.3 4.9-12.1 6.7-18.1 3.4-11.3 6.5-22.7 11.1-33.6a154.3 154.3 0 0 1 17.8-31.7 16.93 16.93 0 0 1 2.6-2.2c.7 2.2 1.3 3.9 1.7 5.7.9 4.6 2.4 8.7 6.9 10-1.7 7.8-3.6 15.2-4.9 22.8a118 118 0 0 0-1.2 16.9 10.59 10.59 0 0 0 4.8 9.4c1.2.8 2.4 1 3.5-.3a19.22 19.22 0 0 1 0-2.4c2.1-11.4 4.4-22.8 6.3-34.2.6-3.8 2.1-7.8-.8-12-3-1.2-6.4-2.6-10.2-4.3-1-3.4-1.9-7-3-10.7a12.93 12.93 0 0 1 3-13.4c2.2-2.5 4.7-4.7 7.1-7 5.5.8 11.8-1.4 14.9 5.4-1.7 2.7-3.3 5.2-4.9 7.8 1.8 4.8 3.4 9.5 5.2 14.2.3.7 1.2 1.2 2.4 2.4.4-4.1 2.7-6.3 4.9-8.5.7-.7 1.2-1.6 1.9-2.3 4.9-5.2 9.6-10.6 16.1-14 4-2.1 8.1-3.7 12.2-5.5 1.5-.6 3.4-.6 3.6-2.8-.6-3.3-6.1-1.5-5.9-6.1 6.7-3.4 13.4-6.9 20.2-10.4 11.8 1.5 16.1 10.6 20.4 19.4a90.56 90.56 0 0 1-11.9 23.9c-13.7 4.6-28.3 5.4-42.6 9.5 1.3 1 2.1 1.6 2.9 2.3a128.79 128.79 0 0 0-9.1 32.3c-1.4 9.5-2.6 19.1-3.8 28.6-.2 2-.1 4-.1 6-.4 1.3.4 1.7 1.5 1.8Zm-104.9-92.3c.2-.3.5-.6.7-.9a18.52 18.52 0 0 0-2.1-3.3c-2.9-3.5-3.9-7.7-4.4-11.9a112 112 0 0 1-1-12.9c-.3-10.8-.7-21.6 1.7-32.2.1-.7-.3-1.4-.6-2.8a12.1 12.1 0 0 0-2.3 2.5c-3.1 7.1-5.6 14.5-6 22.4a40 40 0 0 0 2.1 16.1c2.5 6.8 4.4 14 8.8 20a17.76 17.76 0 0 0 3.1 3Zm15.1-11.5c.3 0 .5-.1.8-.1-.4-4.1-.7-8.2-1.2-12.2-.9-7.2-1.9-14.4-2.7-21.7-.6-5.3-.7-10.6-1.3-15.9a163.42 163.42 0 0 1 0-32.8 88.06 88.06 0 0 0 0-8.9 6.38 6.38 0 0 0-1.8 3.9 95.31 95.31 0 0 0-.9 11.9c.2 11.6.2 23.3 1.1 34.8.7 9.6 2.4 19 3.8 28.5.6 4.3 1.5 8.4 2.2 12.5ZM293 190.9c-9.8-14.1-46.9-14.6-58.9-7.3a21.11 21.11 0 0 0 3.2.3c4.8-.6 9.5-1.3 14.3-2.1 11.7-1.9 22.8.3 33.4 5.2 2.7 1.3 5.3 2.6 8 3.9Zm-47 68.2c-5.4 1.8-12.1 5.8-13.8 8 4.5.4 11.6-3.6 13.8-8Zm-28.8 4.9c1.7 4.6 6.1 6 9.4 3.1-3.1-1-6.1-2-9.4-3.1Zm26.4-58.6c-4.5.5-5 .8-6.1 4.2 2.3-1.1 4.8-1.6 6.1-4.2Zm-88.2 2.8c1.3-2.2 4.4-3.4 4.3-7-2.7 1.9-4.4 3.9-4.3 7Zm68-21.2.6.9c1.5-.2 3.1-.4 4.2-3.3-2.2 1.1-3.5 1.7-4.8 2.4Z" transform="translate(-14 -4.58)"/>
    <path d="M145 309c-2-2.2-3.9-4.4-5.9-6.6a12.94 12.94 0 0 0-1.6-1.8c3.2 13.9 5.1 28.1 10.4 41.4 2.3 5.9 4.9 11.8 9.8 16a58.77 58.77 0 0 0 7.8 5.2c1.9 1.1 4 1.2 6.6 0-6.6-8.6-9.6-18.4-12-28.4A85.89 85.89 0 0 1 158 310a9.76 9.76 0 0 1 1.9-5.2c0 3.7.3 7.4.1 11a18.47 18.47 0 0 0 2.6 10.5c3.8 6.5 7 13.2 12.6 18.4 1.2 1.1 2.6 2 4 3.1 3.3-7.3 6.4-14.3 9.5-21-5.3-15.7-7.3-31.7-8.1-48.5-1-1-2.2-2.3-3.5-3.6a20.77 20.77 0 0 1-6.4-13.7 17 17 0 0 0-1.7-5.7 30.93 30.93 0 0 1-3-13c-.1-3.6.7-7.2 1.3-12.2-.7-1.6-2-4.5-3.3-7.5h-.7c-.4 4.3-.9 8.6-1.2 12.9-.4 6.8-.7 13.6-1 20.4-.4 14.4.5 28.6 6 42.1 2.6 6.5 6.3 12.5 12.1 16.8a13.47 13.47 0 0 1 1.8 2 7.48 7.48 0 0 1-5.3-2.6c-2.3-2.6-5-5.1-6.6-8.1-6.2-11.7-11.2-23.7-10.3-37.4.4-6.3-.1-12.7.2-19 .4-8.8 1.1-17.6 1.7-26.3.7-9.9 1.4-19.9 2.3-29.8.5-5.8 1.2-11.6 2.1-17.3 1.5-9.7 2.9-19.4 4.9-28.9 1.8-8.6 4-17.2 7.8-25.2.3-.6.7-1.1 1.3-2.1a19.16 19.16 0 0 1 3.4 4.8 156.38 156.38 0 0 0 22.5 31.6c1.8 1.9 3.5 4 5.2 6.1a145 145 0 0 0 22.3 21.3c8.4 6.5 16.7 13.1 25.1 19.6a3.26 3.26 0 0 0 1.4.4 9.28 9.28 0 0 0 2.1 1.9c5.8 2.8 11.6 5.6 17.5 8.3 3.5 1.6 7.2 3 11.1 4.5.6-4.8 0-8.7-2.2-12.2-4.2-.8-8-1.7-11.9-2.1a29.51 29.51 0 0 0-8.9 0 14.27 14.27 0 0 1-7.7-.5c-.9-1.2-1.8-2.4-2.7-3.5 8.1-5 27.6-2 35 5.3.5 4.4 1.1 8.9 1.7 14.2 2.1.8 5 1.8 8.1 2.9-.4-3-.9-5.7-1.2-8.4s-.5-5.4-.8-8.2c.3-.1.7-.3 1-.4.6.8 1.7 1.4 1.8 2.3.8 5 1.3 10.1 2 15.6l18.6 6.1c-6.5.6-12.4-1.4-18.3-3a78.79 78.79 0 0 1-1 8.8 11.58 11.58 0 0 1-7.7 9.1 78.64 78.64 0 0 1-11.5 3.2c-8.2 1.5-16.4 2.8-24.6 4-5.8.8-11.2.1-16.1-3.5-2.9-2.2-6.3-3.8-7.6-7.6a3.51 3.51 0 0 0-1.7-1.7c-3.1-1.7-6.5-1.3-9.8-1-1.8.2-3.4 1.7-4.6 2.3a10.41 10.41 0 0 0-.5 1.8c.6 5.8-2.3 9.1-7.3 11.7-7.1 3.7-14.8 4.7-22.5 6.2a78.52 78.52 0 0 1-11.9 1c-1.4.1-2.7-.3-2.4-2.3.3-.2.6-.6.8-.6 5.4 1.2 10.5-.3 15.7-1.4 6.7-1.3 13.4-2.5 19.5-5.9 4.6-2.6 5.7-4.8 5.1-10-.5-3.6-.7-7.3-.9-10.9 0-.2.4-.5.7-.8 2.7 1.3 1.7 4.4 2.7 6.5 6.8-3.7 7.3-3.3 14.4-2.2-.4-1.9-.8-3.6-1-5.3a36.48 36.48 0 0 1 .1-4.7c2.5-.4 2.6 1.1 2.9 2.4 1.2 4.2 2.1 8.4 3.6 12.4 2.5 6.6 7.9 9.8 14.5 10.5 3.9.4 7.9-.3 11.9-.9 7.7-1.2 15.4-2.6 23.1-3.9 1.5-.3 2.9-.8 4.3-1.2 5.5-1.7 8-5.6 8.4-11.1.1-1.6.3-3.3.4-5.5-2.9-1.2-6.2-2.6-9.8-4.1-.8 6.7-4.3 11.2-8.4 15.5a7.77 7.77 0 0 1-3.3 2.1 40.83 40.83 0 0 1-14.3 1.5c-3.5-.3-5.3-3.2-7.3-5.5a9.21 9.21 0 0 1-1.7-3.6c-1.5-7.5-3.6-14.9-1.9-22.6.1-.3-.2-.6-.4-1.2-7.1 1.4-11.9 6.5-17.3 11.1-1.7-2.5-.6-4.1.9-5.5 4.1-3.9 8.2-7.7 12.6-11.7-28.8-20.7-53.8-45.5-71.3-78.2-7.9 24-11.3 48-13.4 72.9 7.8-2.3 14.6-6 23.5-5.5-3.1 2.3-5.9 2.1-8.4 3s-5.1 1.5-7.6 2.4-5.2 2.2-8 3.4c-.7 6.6-1.4 13-2.1 19.7 1.1 1 2.2 2.1 3.3 3.2 2.4-1.6.6-3.5.7-5.1 2.8-4.1 6.9-5.4 11.3-5.7 6.2-.4 12.3-.5 18 2.7a6.37 6.37 0 0 0 2.4.4l1 1-.1-.1c1 .7 2 1.4 3.1 2.1l-.1-.1c6 6.6 5.9 14.9 6 23 0 3-1.2 5.9-4.7 6.9a3.29 3.29 0 0 0-1.3.7c-4.5 2.8-9.3 4-14.9 2.5a36 36 0 0 1-8.8-15.7c-1.6-5.8-2.1-11.7-.2-17.7-3-1.2-4.6 0-5.9 1.9s-2.8 4-4.4 6.4a93.93 93.93 0 0 0 3.9 10.1c1.7 3.4 1.3 6.7 1.1 10.2-.4 5-1 10-.5 14.9.6 6.3 4.6 10.9 9.5 14.6 5.6 4.2 12.2 6.1 19 6.9 8.4 1 16.9 1.4 25.3 2.2 6.8.7 13.3-.5 19.7-2.4a196.94 196.94 0 0 0 30.7-11.9c7.6-3.8 14.7-8.4 21.9-12.9a38.15 38.15 0 0 0 7.2-6.1 8.88 8.88 0 0 1 5.6-2.8 60.28 60.28 0 0 0 16.6-5.1c7.7-3.8 11.8-10.2 13-18.3a30.54 30.54 0 0 0-6.2-24c-4.2-5.4-9.8-7.2-16.3-5.3-3.6 1-5.5 3.7-6.9 6.7-1 2.2-.1 4.3 1.4 6 3.8 4.6 7.7 9.2 11.5 13.8a59.34 59.34 0 0 1 6.3 8.6c-26.3-23.8-44.3-52.6-51.7-87.7a78.31 78.31 0 0 1 3.4 7.9 199.13 199.13 0 0 0 13.1 31.3c3.6 7 8.2 13.3 12.9 20.3a24.34 24.34 0 0 0 2.4-3.4c3.1-6.7 15.6-9.3 22.7-3a30.22 30.22 0 0 1 9.1 14c3 10 1.7 19.3-4.2 28-2.2 3.2-5.2 5.1-8.4 6.9-2.2 1.2-4.5 2.2-7 3.4 3.1 14.9 2.2 30 .9 45 5.1 4.5 10.3 8.4 14.6 13.2 4.1 4.7 7.1 10.3 10.7 15.5 3.6-4.6 9.7-27.2 11-38.3 1.6-13.4-.2-26.4-2.9-39.5 2.1 1.5 2.4 1.7 2.8 3.4a97.8 97.8 0 0 1 2 10.8c1.5 13.2 2.9 26.5 2 39.8-.7 10.8-1.2 21.6-3.8 32.1a61.22 61.22 0 0 1-3.2 9.4c-.8 2.1-1.3 4.1-.2 6.6.9-.5 1.9-.8 2.3-1.5 3.3-5.3 6.8-10.6 9.8-16.1a47.84 47.84 0 0 0 5.1-20.6c.3-9.3.5-18.7-.1-28-.8-12.7-1.4-25.5-3.5-38.2-1.8-10.8-2.9-21.7-4.4-32.6-.9-6.7-2.3-13.4-3.1-20.2-1.5-12.5-5.5-24.3-9.8-36-5.7-15.4-13.6-29.6-24.6-42a254.37 254.37 0 0 0-18.3-19.1c-11.6-10.6-24.3-19.7-39.6-24.4-8-2.5-16.1-4.3-24.5-4.4-2.8 0-5.6-.8-8.4-.7-19.8.7-38.6 4.9-55.1 16.5a33.15 33.15 0 0 0-4.6 3.8c-1.2 1.2-2.2 2.7-3.8 4.6a6.6 6.6 0 0 1 2.5-6.3 65.78 65.78 0 0 1 9.4-7.3 101.3 101.3 0 0 1 39.1-12.8 120.53 120.53 0 0 1 45.9 3.8c10.9 3 20.4 8.9 29.4 15.5a165.19 165.19 0 0 1 38.7 40c10.3 15.1 17.9 31.5 21.8 49.5 1.4 6.6 3 13.3 4.3 19.9.7 3.7 1.1 7.5 1.7 11.3 1.2 8.2 2.5 16.4 3.6 24.6.9 6.2 1.7 12.5 2.5 18.8 1 8.7 2.2 17.5 2.7 26.2.7 10.6 1.1 21.3 1 31.9 0 5.4-1.2 10.9-2.1 16.3-1.9 10.9-7.5 19.7-15.2 27.5-.8.8-1.5 1.7-2.2 2.4 1.5 8.1 3.1 15.9 4.2 23.7s1.8 15.5 2.4 23.3c.2 3.2-.5 6.5-.8 9.8h-1c-.3-2.5-.9-5-1-7.6-.2-18.9-4-37.3-9-55.4-1.7-6.1-3.3-12.2-5.4-18.1a42.44 42.44 0 0 0-5.6-10.5 75 75 0 0 0-17.8-17.3c-4-2.8-7.6-5.8-12.6-7.1a8.78 8.78 0 0 0-1.2 2.1c-2 6.2-5.4 11.7-8.7 17.3a7.39 7.39 0 0 1-5.3 4c-5 1.2-10 2.3-15 3.5-1.3.3-2.5.7-3.7 1.1-9.1 22.6-12.7 46.5-16.9 69.9-5.7 4.8-9 5.4-13.9 2.7a17.46 17.46 0 0 1 3.8-.9 13 13 0 0 0 8.4-3.1c2-12 3.4-23.3 5.9-34.4s6-22.2 9.2-33.8c-3.9.6-7.5 1-11 1.7-2 .4-2.8 1.9-3.6 3.7-4.4 10.5-6.8 21.5-8.6 32.6-1.4 8.8-2.8 17.7-3.8 26.5-.3 2.5-2 5.1-.3 7.7a1.9 1.9 0 0 1-2-1.8c0-2-.1-4 .1-6 1.2-9.5 2.4-19.1 3.8-28.6a128.79 128.79 0 0 1 9.1-32.3c-.8-.6-1.6-1.3-2.9-2.3 14.3-4.1 28.9-4.9 42.6-9.5a87.62 87.62 0 0 0 11.9-23.9c-4.3-8.8-8.6-17.9-20.4-19.4-6.7 3.5-13.5 6.9-20.2 10.4-.3 4.6 5.3 2.7 5.9 6.1-.2 2.2-2.2 2.1-3.6 2.8-4.1 1.8-8.3 3.5-12.2 5.5-6.5 3.3-11.2 8.8-16.1 14-.7.7-1.2 1.6-1.9 2.3-2.2 2.2-4.5 4.4-4.9 8.5-1.2-1.1-2.1-1.6-2.4-2.4-1.8-4.6-3.4-9.3-5.2-14.2 1.7-2.6 3.2-5.2 4.9-7.8-3.1-6.8-9.4-4.6-14.9-5.4-2.4 2.3-4.9 4.5-7.1 7a13 13 0 0 0-3 13.4c1.1 3.6 2.1 7.3 3 10.7 3.9 1.6 7.2 3 10.2 4.3 2.9 4.2 1.4 8.2.8 12-1.9 11.4-4.2 22.8-6.3 34.2a19.22 19.22 0 0 0 0 2.4c-1.1 1.3-2.3 1.1-3.5.3a10.48 10.48 0 0 1-4.8-9.4 137.16 137.16 0 0 1 1.2-16.9c1.2-7.5 3.2-14.9 4.9-22.8-4.6-1.3-6-5.4-6.9-10a55.29 55.29 0 0 0-1.7-5.7 16.93 16.93 0 0 0-2.6 2.2 151.73 151.73 0 0 0-17.8 31.7c-4.6 10.9-7.7 22.3-11.1 33.6-1.8 6-4.3 11.7-6.7 18.1-1.9-1.9-1-3.4-.5-4.9 2-6.8 4.1-13.7 6-20.4-.5-.4-.7-.8-1-.8-8.4.4-14.1-4-18.9-10.2a50.53 50.53 0 0 1-8.9-17.8c-2.7-9.9-4.8-20-7.1-30-1.6-7.3-2.7-14.7-7.4-20.9-4.1-5.4-6.1-11.8-7.3-18.4-.9-4.7.2-9.3 1.2-13.8 1.9-8.8 4-17.5 5.7-26.3a87.28 87.28 0 0 0 1.6-15.3c0-11.6-.9-23.3-.6-34.9.6-19.8 4.2-39.1 13.9-56.6 4.4-8 9.6-15.5 14.7-23.1 3.5-5.2 9.2-7.7 14.9-10.2a25 25 0 0 1-3.4 3.1 48.89 48.89 0 0 0-16.2 17.9c-3 5.5-6.6 10.8-9.5 16.4a100.38 100.38 0 0 0-10.4 36.7c-.7 7.4-.9 14.9-1.1 22.4-.2 6.3-.1 12.7.2 19 .7 14.8-1.8 29.1-5.5 43.4-1.2 4.7-2.8 9.3-3.3 14.1a34.3 34.3 0 0 0 5.2 22.4c4.7 7.4 9.5 14.8 14.2 22.3a6.85 6.85 0 0 1 1.7 2.9Zm47 11a43.63 43.63 0 0 1 3.5-5.9c2.2-2.9 4.9-5.4 7.2-8.3a36.54 36.54 0 0 0 3.2-5.4c1.4-2.6 2.5-5.4 4.1-7.8 1.2-1.9 3.1-3.4 4.8-5.3-3.6-1.8-7.4-.7-10.9-1.3-3.7-.6-7.5-1.5-11.2-2.2-3.5-.6-6.3-3.3-10.6-3.7 1.1 4.4 2 8.2 3 12L192 320a15 15 0 0 1-1.9-2.5c-1.2-2.5-2.2-5.2-3.3-7.8.5 4.9.8 9.7 3.9 14.6.5-1.9.9-3.1 1.3-4.3Zm71.3-81.3c5.2.8 10.3-.3 15.5-1.6 1-.2 1.8-1.2 2.6-2 3.8-3.6 6.2-8.1 8.2-13.4-12.2-4.2-23.6-10.2-34.9-16.4a2.55 2.55 0 0 0 .9 1.5 13.1 13.1 0 0 0 1.3 1.2c.5 20.2.9 22 6.4 30.7ZM190 249.8a24.34 24.34 0 0 0 13.5-4.3 6.07 6.07 0 0 0 2.3-3.1 18.16 18.16 0 0 0-4-17.7c-5-5.5-12-7.1-19.5-7.6-2.8 12.6 0 23.3 7.7 32.7Zm104 15.8c10.5 4.2 15 12.9 18.9 22.4 1.4.6 2.9 1.2 5 2.1.8-5.5 1.4-10.6 2.2-15.7.9-5.9.3-11.9 2.6-17.6a6.07 6.07 0 0 0-1.1-6.8c-3.8.5-7.7 1-11.1 1.4-5.7 4.8-10.9 9.3-16.5 14.2Zm-29.3 13.8c-9.9 3-19.5 6-29.1 9 3.2 9.1 3.3 10 0 12.5-.4-1.6-.8-3.1-1.4-5.2-1.3 1.8-2.2 3-3.1 4.2 1.6 3.8 2 7.8 4.8 11.2 8-10.6 16.9-19.6 28.8-25.1Zm-50.4 89.7c2.5-15 5-29.5 7.5-44.3-1.8-.6-3.3-1-5.4-1.7-1.3 5.3-2.8 10.2-3.6 15.3-1.2 7.2-2 14.4-2.6 21.7-.3 3.3.2 6.6 4.1 9Zm148.5-77.4c-.3 0-.7-.1-1-.1-2.7 12-5.2 24.2-10.6 35.2 1.4 4.4 2.7 8.6 4.3 13.8a19 19 0 0 0 1.5-3.1c3.2-9 4-18.4 4.9-27.8.4-4.1.6-8.3.9-12.4.1-1.8 0-3.7 0-5.6Zm-189.9 69.8c.4 0 .8.1 1.3.1 1.6-4 3.2-8.1 4.8-12.1-6.7-4-6.7-4-16.9-18.8 1.4 11.1 5.6 21.2 10.8 30.8Zm150.3-94.8c-1.1 8.1-2.3 16.2-3.5 24.6.7.5 1.6 1 2.8 1.8a97.76 97.76 0 0 0 .7-26.4Zm-153-27.8c.1 1.1.2 2.3.3 3.9 1.8-1.8.9-2.9-.3-3.9Zm97.7 46.4c1.5-.8 2.2-1.2 3.3-1.8-1.1-.6-1.7-1-2.6-1.5a25.54 25.54 0 0 0-.7 3.3Z" transform="translate(-14 -4.58)"/>
    <path d="M142.1 298.7a24.22 24.22 0 0 1-3.3-3.1c-4.4-6-6.2-13.1-8.8-20a40.22 40.22 0 0 1-2.1-16.1c.4-7.9 2.9-15.2 6-22.4.3-.8 1.2-1.3 2.3-2.5a11.65 11.65 0 0 1 .6 2.8c-2.4 10.6-1.9 21.4-1.7 32.2.1 4.3.5 8.6 1 12.9s1.5 8.5 4.4 11.9a37 37 0 0 1 2.1 3.3 3.13 3.13 0 0 1-.5 1Zm-8.6-21.4c-.2-5.1-.5-10.2-.6-15.3s0-10.2 0-15.3c-3.8 10.3-4.4 20.5.6 30.6ZM157.2 287.2c-.7-4.1-1.6-8.2-2.2-12.4-1.4-9.5-3.1-19-3.8-28.5-.9-11.6-.9-23.2-1.1-34.8a95.31 95.31 0 0 1 .9-11.9 6.38 6.38 0 0 1 1.8-3.9c0 3 .2 6 0 8.9a163.42 163.42 0 0 0 0 32.8c.5 5.3.7 10.6 1.3 15.9.8 7.2 1.8 14.4 2.7 21.7.5 4.1.8 8.2 1.2 12.2ZM293 190.9c-2.7-1.3-5.3-2.7-8-3.9-10.7-4.9-21.7-7-33.4-5.2-4.7.8-9.5 1.5-14.3 2.1a21.11 21.11 0 0 1-3.2-.3c12-7.3 49-6.8 58.9 7.3ZM246 259.1c-2.2 4.3-9.3 8.3-13.8 8 1.7-2.2 8.4-6.1 13.8-8ZM217.2 264c3.3 1.1 6.2 2.1 9.4 3.1-3.3 3-7.7 1.5-9.4-3.1ZM199 215a3.4 3.4 0 0 1 .1-1c.1-.3.4-.5.9-1.1 2 1.1 4 2.2 6 3.4-.1.3-.1.7-.2 1l-2.9.6.1.1c-1-.7-2-1.4-3.1-2.1l.1.1-1-1ZM243.6 205.4c-1.3 2.6-3.8 3.1-6.1 4.2 1.1-3.4 1.5-3.7 6.1-4.2ZM155.4 208.2c0-3.2 1.6-5.1 4.3-7 .1 3.6-3 4.9-4.3 7ZM223.4 187c1.3-.6 2.6-1.3 4.8-2.4-1.1 3-2.7 3.1-4.2 3.3ZM145 309c.2.1.3.3.2.2.1.1 0-.1-.2-.2Z" transform="translate(-14 -4.58)"/>
    <path class="cls-1" d="M247 391c-1.7-2.6 0-5.2.3-7.7 1-8.9 2.4-17.7 3.8-26.5 1.8-11.2 4.2-22.1 8.6-32.6.8-1.8 1.6-3.4 3.6-3.7 3.5-.7 7.1-1.1 11-1.7-3.2 11.6-6.7 22.6-9.2 33.8s-3.9 22.5-5.9 34.4a13 13 0 0 1-8.4 3.1 16.2 16.2 0 0 0-3.8.9ZM263.3 238.7c-5.5-8.6-5.9-10.5-6.4-30.7-.3-.3-.8-.7-1.3-1.2a3.18 3.18 0 0 1-.9-1.5c11.3 6.2 22.7 12.3 34.9 16.4-2.1 5.3-4.4 9.8-8.2 13.4a6.76 6.76 0 0 1-2.6 2c-5.2 1.3-10.3 2.4-15.5 1.6ZM190 249.8c-7.7-9.5-10.5-20.1-7.7-32.6 7.5.5 14.5 2.1 19.5 7.6 4.5 4.9 5.7 11.1 4 17.7a5.46 5.46 0 0 1-2.3 3.1c-3.9 2.4-8.1 4.3-13.5 4.2ZM294 265.6c5.6-4.9 10.8-9.4 16.4-14.2 3.4-.4 7.3-.9 11.1-1.4a6.48 6.48 0 0 1 1.1 6.8c-2.3 5.7-1.7 11.8-2.6 17.6-.8 5-1.4 10.1-2.2 15.7-2.1-.9-3.5-1.5-5-2.1-3.8-9.5-8.4-18.3-18.8-22.4ZM192 320c-2.3-9.3-4.6-18.6-7-27.9-1-3.8-1.9-7.6-3-12 4.2.4 7.1 3 10.6 3.7 3.7.7 7.5 1.5 11.2 2.2 3.5.6 7.3-.5 10.9 1.3-1.8 1.9-3.6 3.4-4.8 5.3-1.6 2.4-2.7 5.2-4.1 7.8a32 32 0 0 1-3.2 5.4c-2.3 2.9-4.9 5.4-7.2 8.3a43 43 0 0 0-3.4 5.9ZM264.7 279.4v6.6c-11.9 5.5-20.8 14.5-28.8 25.1-2.9-3.3-3.2-7.3-4.8-11.2.9-1.2 1.8-2.5 3.1-4.2.6 2.1 1 3.6 1.4 5.2 3.3-2.5 3.3-3.4 0-12.5 9.6-3 19.3-5.9 29.1-9ZM214.3 369.1c-3.9-2.4-4.4-5.8-4.1-9.1.6-7.2 1.4-14.5 2.6-21.7.8-5 2.3-9.9 3.6-15.3 2.1.7 3.6 1.1 5.4 1.7-2.5 14.9-4.9 29.4-7.5 44.4ZM362.8 291.7c0 1.9.1 3.8 0 5.7-.2 4.1-.5 8.3-.9 12.4-.9 9.4-1.7 18.8-4.9 27.8-.3.7-.7 1.4-1.5 3.1-1.6-5.2-2.9-9.4-4.3-13.8 5.4-11.1 7.9-23.2 10.6-35.2a1.7 1.7 0 0 1 1 0ZM259 204a15.39 15.39 0 0 0 7.7.5 29.5 29.5 0 0 1 8.9 0c3.9.5 7.8 1.3 11.9 2.1 2.2 3.5 2.7 7.4 2.2 12.2-3.9-1.6-7.5-2.9-11.1-4.5-5.9-2.7-11.7-5.5-17.5-8.3a19.85 19.85 0 0 1-2.1-2ZM172.9 361.5c-5.3-9.7-9.4-19.7-10.8-30.7 10.2 14.8 10.2 14.8 16.9 18.8-1.6 4-3.2 8-4.8 12.1-.4-.1-.8-.1-1.3-.2ZM323.2 266.7a93.79 93.79 0 0 1-.6 26.4c-1.2-.8-2.1-1.3-2.8-1.8 1.1-8.4 2.2-16.5 3.4-24.6ZM192 320c-.4 1.2-.8 2.4-1.4 4.3-3.1-4.8-3.4-9.7-3.9-14.6 1.1 2.6 2.1 5.2 3.3 7.8a15.67 15.67 0 0 0 2 2.5ZM170.2 238.9c1.3.9 2.1 2.1.3 3.9a30.07 30.07 0 0 1-.3-3.9ZM267.9 285.3c.3-1.7.4-2.3.6-3.3.9.5 1.6.9 2.6 1.5-1 .6-1.7 1-3.2 1.8ZM200 216c1 .7 2 1.4 3.1 2.1-1.1-.8-2.1-1.4-3.1-2.1ZM199 215l1 1ZM133.5 277.3c-5-10.1-4.4-20.3-.7-30.5 0 5.1-.1 10.2 0 15.3s.5 10.1.7 15.2Z" transform="translate(-14 -4.58)"/>
  </g>
  <path style="fill:none;stroke:#71ccff;stroke-linecap:round;stroke-miterlimit:10;stroke-width:52px" d="m26 101.42 355-76-349 119 372.48-75.57L34.71 189.54 412 121.42 28.4 245.22l424.6-94.8-406.99 130.3L449 206.82l-397 97.6 401-70.1-413.84 92.32L453 272.72l-396 77.6 396-30.6-403 57.7 403-22.66-385 42.66h380"/>
</svg>
