<?xml version="1.0" encoding="utf-8"?>
<!-- Generator: Adobe Illustrator 26.0.2, SVG Export Plug-In . SVG Version: 6.00 Build 0)  -->
<svg version="1.1" id="Layer_1" xmlns="http://www.w3.org/2000/svg" xmlns:xlink="http://www.w3.org/1999/xlink" x="0px" y="0px"
	 viewBox="0 0 30.6 61.2" style="enable-background:new 0 0 30.6 61.2;" xml:space="preserve">
<style type="text/css">
	.st0{fill:none;stroke:#FFB8E4;stroke-width:0.35;stroke-miterlimit:10;}
	.st1{fill:#FFB8E4;stroke:#FFB8E4;stroke-width:0.5;stroke-miterlimit:10.0004;}
	.st2{fill:none;stroke:#FFFFFF;stroke-width:0.35;stroke-miterlimit:10;}
	.st3{fill:#FFFFFF;stroke:#FFFFFF;stroke-width:0.5;stroke-miterlimit:10.0004;}
</style>
<g>
	<path class="st0" d="M17,50.2c0,3.8-1,8.1-3.3,7.6c-0.8-0.2-1.1,3.4-3.3,2.3c-2.2-1.2-2.3,0.5-3.8-0.5c-1.4-1-0.7-1.6-1.5-2.8
		c-0.8-1.1-3.9-2.2-3.4-5.2C2,49.4,4.6,48.3,4,49.3s-4.8-2.9-3.5-4.8c0.7-1.1-0.2-2.8,0.3-4c0.8-1.9,3.1-1.6,3.5-2.3
		c1.1-1.7,1.8-1.8,4.6-1c2,0.5,1.3,1.6,3.5,3.3c2.1,1.7,2.2,3.3,2.5,4.8C15.1,46.8,17,46.4,17,50.2z"/>
	<path class="st0" d="M28,47.7c-0.1-1.3-2.3-4.5-5.1-2.7c-3.5,2.1-2.1,1.5-3.9,1.8c-1.6,0.3-5.2,2.2-5.9,5.4
		c-0.6,2.7-2.4,3.8-0.4,5.8c1.4,1.4,1.1,1.5,2,2.2s3.4,1.3,4.2,0.8c0.8-0.5,2-2.7,3.4-1.8c2.1,1.2,2.4-4.7,0.2-5.3
		c-1.4-0.4-0.9-1.9,0.3-0.4c1.8,2.3,4,3.1,4.9-0.1c0.5-1.8,1.9,0.2,2.4-2.2C30.7,48.7,28.2,49.7,28,47.7z"/>
	<path class="st0" d="M15.7,49.9c3.4,0.9,10.7-0.9,9.2-2.5c-1.4-1.4,3.7-0.5,3.5-2.7c-0.2-2.3,1-2.3,0.2-3.7s-1.5-1-2.3-2
		c-0.8-1-0.2-3.1-3.2-3c-2.9,0.1-5.6,3.7-4.5,3.5s0.2-6.8-1.9-6.2c-1.3,0.3-1-0.7-2-0.9c-1.9-0.5-2.8,1.8-3.5,1.5
		c-0.9-0.3-3.7,0.7-3,4.4s-0.2,2.6,0.6,5c0.7,2.3,2.2,2.8,3.4,3.5C13.4,47.3,12.3,49,15.7,49.9z"/>
	<path class="st0" d="M14.6,36.6c2.1,0.5,2,1.6,3.1,1.4s2.1,0.5,2.8,1.7c0.7,1.2,2.1,1.6,2,3.5c-0.1,1.9-2.5,7-8.5,7
		c-3.8,0-4.5-2.4-5.1-3.9s-2.1-2.3-1.5-4.5c0.8-3,1.7-3.3,3.2-3.5C12.1,38,12.5,36.1,14.6,36.6z"/>
	<path class="st0" d="M19,52.4c0.7-0.7,3,0.5,3.4-1.5c0.3-1.4-4.9-3.4-8.6-1.3c-1.4,0.8-5.5-3-8.1-0.9c-1.5,1.3,4.6,8.5,6.4,6.1
		C12.1,54.8,13,58.3,19,52.4z"/>
	<g>
		<path class="st0" d="M19,47.4c0.5-0.2,1.1-0.8,1.2-1.2c0.2-0.8-0.2-1-1.6,0c-2,1.5-2.8,1.7-4.9,1.3c-2-0.3-4-4.7-4.3-3.7
			c0,0.1,0,0.2,0,0.3c0.2,0.6,1.2,3.5,5,3.9C17.4,48.3,18,47.8,19,47.4z"/>
		<path class="st0" d="M14.4,47.8c0.1,0,0.1,0.1,0.2,0.1c0.5,0,2.8-0.1,0.4-4.1c-2.4-4-1.8-3.5-1.5-3.5c0.4,0,0.5-0.1,0.8,0.8
			c0.6,1.8,1.4,5.3,1,5.8C14.8,47.5,14.2,47.6,14.4,47.8z"/>
		<path class="st0" d="M15.8,47.9c0.3-0.2,0.5-0.5,0.7-0.8c1.6-3.2,2.2-3.6,2.2-3.6c0.7-0.6,0.7-0.1,1-0.6c0.2-0.4,0.8,0.3,0.1,0.7
			c-0.5,0.3-0.5,0-1,0.4c-0.4,0.3-2.2,2.6-2.9,3.4c-0.4,0.5-1,0.4-1.1,0.1c-0.4-1.1-0.8-1.1-2-2.3c-1.9-1.9-1.2-1.9-1.3-2.1
			c-0.1-0.2-0.1-0.2-0.1-0.3c0-0.1,0.1,0,0.1-0.1c0-0.1,0,0,0-0.2c0-0.2,0.2,0,0.4,0.3c0.5,0.9,1.9,4.4,2.3,4.8
			C14.8,48.1,15.3,48.2,15.8,47.9z"/>
		<path class="st0" d="M11.4,47.5c-1.4-0.6-1.6,0.3-2.2,0.2c-1.1-0.3-0.7-1.3,1.2-0.8c1.1,0.3,1.7,1,2.5,1.1c1.7,0,2.9-0.7,3.4-2.3
			c0.6-2.1,0.6-4.4,0.8-4.5c0.3-0.1,0.3-0.4-0.2-0.8c-0.4-0.3-0.6,2.2-0.5,4c0.1,1,0.4,2-0.4,2.8C16,47.2,14.3,48.7,11.4,47.5z"/>
		<path class="st0" d="M20.6,47c-0.6-0.3-1.9-0.5-5.8-0.1s-4.6-0.3-4.1-0.6c0.9-0.6,5.4,0.9,7.5,1.1S21.1,47.3,20.6,47z"/>
	</g>
</g>
<ellipse transform="matrix(0.75 -0.6615 0.6615 0.75 -32.3245 20.0683)" class="st1" cx="10.4" cy="52.8" rx="0.5" ry="0.5"/>
<ellipse transform="matrix(0.75 -0.6615 0.6615 0.75 -35.1965 17.5542)" class="st1" cx="5.6" cy="55.3" rx="0.5" ry="0.5"/>
<ellipse transform="matrix(0.75 -0.6615 0.6615 0.75 -34.7176 25.6738)" class="st1" cx="16.6" cy="58.8" rx="0.5" ry="0.5"/>
<ellipse transform="matrix(0.75 -0.6615 0.6615 0.75 -30.8177 27.9966)" class="st1" cx="21.6" cy="54.8" rx="0.5" ry="0.5"/>
<ellipse transform="matrix(0.75 -0.6615 0.6615 0.75 -26.1233 26.4921)" class="st1" cx="22" cy="47.8" rx="0.5" ry="0.5"/>
<ellipse transform="matrix(0.75 -0.6615 0.6615 0.75 -26.8468 23.4163)" class="st1" cx="17.6" cy="47.2" rx="0.5" ry="0.5"/>
<ellipse transform="matrix(0.75 -0.6615 0.6615 0.75 -22.7913 21.7927)" class="st1" cx="17.4" cy="41" rx="0.5" ry="0.5"/>
<ellipse transform="matrix(0.75 -0.6615 0.6615 0.75 -20.0775 20.5876)" class="st1" cx="17.2" cy="36.9" rx="0.5" ry="0.5"/>
<ellipse transform="matrix(0.75 -0.6615 0.6615 0.75 -24.471 18.2868)" class="st1" cx="12" cy="41.5" rx="0.5" ry="0.5"/>
<ellipse transform="matrix(0.75 -0.6615 0.6615 0.75 -27.6167 18.841)" class="st1" cx="11.1" cy="46" rx="0.5" ry="0.5"/>
<ellipse transform="matrix(0.75 -0.6615 0.6615 0.75 -31.3532 15.5338)" class="st1" cx="4.9" cy="49.2" rx="0.5" ry="0.5"/>
<ellipse transform="matrix(0.75 -0.6615 0.6615 0.75 -27.4856 13.5871)" class="st1" cx="4.2" cy="43.2" rx="0.5" ry="0.5"/>
<ellipse transform="matrix(0.75 -0.6615 0.6615 0.75 -25.3862 29.0792)" class="st1" cx="25.8" cy="48.1" rx="0.5" ry="0.5"/>
<ellipse transform="matrix(0.75 -0.6615 0.6615 0.75 -20.1031 25.776)" class="st1" cx="24" cy="39.5" rx="0.5" ry="0.5"/>
<ellipse transform="matrix(0.75 -0.6615 0.6615 0.75 -31.3984 23.7372)" class="st1" cx="15.7" cy="53.4" rx="0.5" ry="0.5"/>
<g>
	<path class="st2" d="M17,18.2c0,3.8-1,8.1-3.3,7.6c-0.8-0.2-1.1,3.4-3.3,2.3c-2.2-1.2-2.3,0.5-3.8-0.5c-1.4-1-0.7-1.6-1.5-2.8
		s-3.9-2.2-3.4-5.2C2,17.4,4.6,16.3,4,17.3s-4.8-2.9-3.5-4.8c0.7-1.1-0.2-2.8,0.3-4c0.8-1.9,3.1-1.6,3.5-2.3c1.1-1.7,1.8-1.8,4.6-1
		c2,0.6,1.3,1.6,3.5,3.3c2.1,1.6,2.2,3.3,2.5,4.8C15.1,14.9,17,14.4,17,18.2z"/>
	<path class="st2" d="M28,15.7c-0.1-1.3-2.3-4.5-5.1-2.7c-3.5,2.1-2.1,1.5-3.9,1.8c-1.6,0.3-5.2,2.2-5.9,5.4
		c-0.6,2.7-2.4,3.8-0.4,5.8c1.4,1.4,1.1,1.5,2,2.1s3.4,1.3,4.2,0.8c0.8-0.5,2-2.7,3.4-1.8c2.1,1.2,2.4-4.7,0.2-5.3
		c-1.4-0.4-0.9-1.9,0.3-0.4c1.8,2.3,4,3.1,4.9-0.1c0.5-1.9,1.9,0.2,2.4-2.2C30.7,16.7,28.2,17.7,28,15.7z"/>
	<path class="st2" d="M15.7,17.9c3.4,0.9,10.7-0.9,9.2-2.4c-1.4-1.4,3.7-0.5,3.5-2.7s1-2.3,0.2-3.7S27,8,26.2,7S26,3.9,23.1,4
		s-5.6,3.7-4.5,3.5s0.2-6.8-1.9-6.2c-1.3,0.4-1-0.7-2-0.9c-1.9-0.5-2.8,1.8-3.5,1.5c-0.9-0.3-3.7,0.7-3,4.4s-0.2,2.6,0.6,5
		c0.7,2.3,2.2,2.8,3.4,3.4C13.4,15.4,12.3,17,15.7,17.9z"/>
	<path class="st2" d="M14.6,4.6c2.1,0.5,2,1.6,3.1,1.4s2.1,0.5,2.8,1.7c0.7,1.2,2.1,1.6,2,3.5c-0.1,1.9-2.5,7-8.5,7
		c-3.8,0-4.5-2.4-5.1-3.9s-2.1-2.3-1.5-4.5c0.8-3,1.7-3.3,3.2-3.6C12.1,6,12.5,4.1,14.6,4.6z"/>
	<path class="st2" d="M19,20.4c0.7-0.7,3,0.5,3.4-1.5c0.3-1.4-4.9-3.4-8.6-1.3c-1.4,0.8-5.5-3.1-8.1-0.9c-1.5,1.3,4.6,8.6,6.4,6.1
		C12.1,22.9,13,26.3,19,20.4z"/>
	<g>
		<path class="st2" d="M19,15.4c0.5-0.2,1.1-0.8,1.2-1.2c0.2-0.8-0.2-1-1.6,0c-2,1.5-2.8,1.7-4.9,1.4c-2-0.3-4-4.7-4.3-3.7
			c0,0.1,0,0.2,0,0.3c0.2,0.6,1.2,3.4,5,3.9C17.4,16.3,18,15.8,19,15.4z"/>
		<path class="st2" d="M14.4,15.8c0.1,0,0.1,0.1,0.2,0.1c0.5,0,2.8-0.1,0.4-4.1c-2.4-4-1.8-3.5-1.5-3.5c0.4,0,0.5-0.1,0.8,0.8
			c0.6,1.8,1.4,5.3,1,5.8C14.8,15.5,14.2,15.6,14.4,15.8z"/>
		<path class="st2" d="M15.8,15.9c0.3-0.2,0.5-0.5,0.7-0.9c1.6-3.2,2.2-3.6,2.2-3.6c0.7-0.6,0.7-0.1,1-0.6c0.2-0.4,0.8,0.3,0.1,0.7
			c-0.5,0.3-0.5-0.1-1,0.4c-0.4,0.3-2.2,2.6-2.9,3.4c-0.4,0.4-1,0.4-1.1,0.1c-0.4-1.1-0.8-1.1-2-2.3c-1.9-1.9-1.2-1.9-1.3-2.1
			c-0.1-0.2-0.1-0.2-0.1-0.3c0-0.1,0.1,0,0.1-0.1s0-0.1,0-0.2c0-0.2,0.2,0,0.4,0.3c0.5,0.9,1.9,4.4,2.3,4.8
			C14.8,16.1,15.3,16.2,15.8,15.9z"/>
		<path class="st2" d="M11.4,15.5c-1.4-0.6-1.6,0.4-2.2,0.2c-1.1-0.3-0.7-1.3,1.2-0.8c1.1,0.3,1.7,1.1,2.5,1.1
			c1.7,0,2.9-0.7,3.4-2.3c0.6-2.1,0.6-4.4,0.8-4.5C17.5,9,17.5,8.7,17,8.3c-0.4-0.3-0.6,2.2-0.5,4c0.1,1,0.4,2-0.4,2.8
			C16,15.2,14.3,16.7,11.4,15.5z"/>
		<path class="st2" d="M20.6,15c-0.6-0.3-1.9-0.5-5.8-0.1s-4.6-0.3-4.1-0.6c0.9-0.6,5.4,0.9,7.5,1.1S21.1,15.3,20.6,15z"/>
	</g>
</g>
<ellipse transform="matrix(0.75 -0.6615 0.6615 0.75 -11.1629 12.0697)" class="st3" cx="10.4" cy="20.8" rx="0.5" ry="0.5"/>
<ellipse transform="matrix(0.75 -0.6615 0.6615 0.75 -14.0348 9.5556)" class="st3" cx="5.6" cy="23.3" rx="0.5" ry="0.5"/>
<ellipse transform="matrix(0.75 -0.6615 0.6615 0.75 -13.5562 17.6751)" class="st3" cx="16.6" cy="26.8" rx="0.5" ry="0.5"/>
<ellipse transform="matrix(0.75 -0.6615 0.6615 0.75 -9.656 19.9981)" class="st3" cx="21.6" cy="22.8" rx="0.5" ry="0.5"/>
<ellipse transform="matrix(0.75 -0.6615 0.6615 0.75 -4.9616 18.4935)" class="st3" cx="22" cy="15.8" rx="0.5" ry="0.5"/>
<ellipse transform="matrix(0.75 -0.6615 0.6615 0.75 -5.6851 15.4177)" class="st3" cx="17.6" cy="15.2" rx="0.5" ry="0.5"/>
<ellipse transform="matrix(0.75 -0.6615 0.6615 0.75 -1.6297 13.7941)" class="st3" cx="17.4" cy="9.1" rx="0.5" ry="0.5"/>
<ellipse transform="matrix(0.75 -0.6615 0.6615 0.75 1.0841 12.589)" class="st3" cx="17.2" cy="4.9" rx="0.5" ry="0.5"/>
<ellipse transform="matrix(0.75 -0.6615 0.6615 0.75 -3.3094 10.2883)" class="st3" cx="12" cy="9.5" rx="0.5" ry="0.5"/>
<ellipse transform="matrix(0.75 -0.6615 0.6615 0.75 -6.4518 10.8362)" class="st3" cx="11.1" cy="14" rx="0.5" ry="0.5"/>
<ellipse transform="matrix(0.75 -0.6615 0.6615 0.75 -10.1916 7.5352)" class="st3" cx="4.9" cy="17.2" rx="0.5" ry="0.5"/>
<ellipse transform="matrix(0.75 -0.6615 0.6615 0.75 -6.324 5.5887)" class="st3" cx="4.2" cy="11.2" rx="0.5" ry="0.5"/>
<ellipse transform="matrix(0.75 -0.6615 0.6615 0.75 -4.2246 21.0806)" class="st3" cx="25.8" cy="16.1" rx="0.5" ry="0.5"/>
<ellipse transform="matrix(0.75 -0.6615 0.6615 0.75 1.0618 17.7712)" class="st3" cx="24" cy="7.5" rx="0.5" ry="0.5"/>
<ellipse transform="matrix(0.75 -0.6615 0.6615 0.75 -10.2368 15.7386)" class="st3" cx="15.7" cy="21.4" rx="0.5" ry="0.5"/>
</svg>
