<svg xmlns="http://www.w3.org/2000/svg" xml:space="preserve" id="Layer_1" x="0" y="0" version="1.1" viewBox="0 0 1280 800">
  <style>
    .st0{fill:none;stroke:#333}.st0,.st1{stroke-width:.3;stroke-miterlimit:10}.st1,.st2{stroke:#333}.st1{fill:#ededed}.st2{opacity:.7;fill:#333;stroke-width:.5;stroke-miterlimit:10.0003;enable-background:new}.st3,.st5,.st6{fill:none;stroke:#333;stroke-width:.3269;stroke-miterlimit:10}.st5,.st6{opacity:.7;fill:#333;stroke-width:.5449;stroke-miterlimit:10.0006;enable-background:new}.st6{stroke-width:.5;stroke-miterlimit:9.9996}.st7,.st9{fill:none;stroke:#333;stroke-width:.3596;stroke-miterlimit:10}.st9{opacity:.7;fill:#333;stroke-width:.5;stroke-miterlimit:10.0004;enable-background:new}.st10{fill:none;stroke:#333;stroke-width:.2637;stroke-miterlimit:10}.st12,.st13,.st14{opacity:.7;fill:#333;stroke:#333;stroke-width:.4395;stroke-miterlimit:10.001;enable-background:new}.st13,.st14{stroke-width:.5;stroke-miterlimit:10.0008}.st14{stroke-miterlimit:10.0012}
  </style>
  <path d="M34.5 152.1c-.5-.3 33.7-28.1 54.2-29.5 20.4-1.4 29.8 12 25.4 19.8 0 0 4.2 8.7-4.7 18L108 156s-4.2 10.5-11.7 10l1-4.1s-4 6.7-10.7 5.9l1.2-4.6s-3.9 4.9-12.9 5.1l2.2-5.5s-4.4 4.6-13.9 2.7l2.1-3.6s-5.2 1.8-14.3-1.2l2.7-3.4c-.1-.1-8.8.9-19.2-5.2z" class="st0"/>
  <path d="M52.2 146.4s53.8-17.5 89.5 7.1" class="st0"/>
  <path d="M104.2 140.9c2.7-7.4-8.5-11.6-8.5-11.6m10.4 11.8s-.1 10.3-15.8 14.2m-10.1-25.9s16.2 1.9 13.1 10.9m-20.1 14.5s17.7-4.9 15.9-14.4m-22.4-6.2s10.9-.1 12.2 6.2m-18.4 12.5s13.2 0 14.3-11.3m-21.4.1s10.4-1.4 12.1 1.4m-17.6 9.2s14-4.6 14.8-8.1m27.4-31.3 4.1-.2s-13.5-4.4-13.3-10.4l4.6-.2s-13.1-4.4-12.9-10.9l3.2-.6s-9.1-7.4-7.1-14.4l4.2 1.2s2.6-2.4-3.1-6.8-.1-11.5-5.8-17.2c-3.7-3.6 21.1-1 21.1-1L83 49s9.7 1.4 12.2 5.4l1.2-2.8s8 3.8 9.5 7.4l-.7-4.1s9.4 5.1 9.7 10.1l-.7-4.1s8.6 7.9 9.3 12.9l-.7-5c-.1-.4 6.1 3.8 9.6 19.3 2.7 12.1 5.3 25.5-7.2 33.8s-33.4-2.2-35.1-9z" class="st0"/>
  <path d="M123.8 146.7s16.3-54.5-46.2-85.6" class="st0"/>
  <path d="M103.7 109.1s16.2 12.4 19.9 4.3l-1.5-5.1s8.8-5.5 1.9-16.2" class="st0"/>
  <path d="M99 97.4s18.1 13.4 21.2 5.7m-3.2-6.6s6.9-6.3-1-19.2M91.2 88.1s20.9 13.8 23.4 4.5m-5.7-7.8s2.4-10.5-3.9-17.6M84.4 80.1s15 6.2 19.3-.9m-5.8-5.1s4.6-9.5-.6-13.8m-21.6 8.3s16.8 5.6 16.1.8m-5-3.2s1.3-8.3-3.4-9.5" class="st0"/>
  <path d="M179.4 196.5c-24.4 3.5-53.2 1.8-52.8-14 .2-5.6-23.4-3.7-18.1-19.3s-5.6-14.7-.2-25.1c5.2-10.2 9.8-6.3 16.4-12.5 6.6-6.2 10.7-27.4 30.5-27.2 14.3.2 23.9 15.8 16.8 13.4s14.1-33.8 27.5-27.7c7.9 3.6 18.2-3.9 26.4-2 13 3 13.5 18.2 18.2 20.2 12.2 5.1 13.4 9.9 11.2 28.5-1.6 13.5-9.1 9.9-18.1 25.9-8.6 15.3-19.1 17.8-28.7 21-9.4 3.1-4.6 15.3-29.1 18.8z" class="st1"/>
  <path d="M206.8 265.8c8.2-2 26.6-19.1 12.4-35.9-17.3-20.4-11.8-12.3-15.5-23.2-3.3-9.9-19.2-31.6-41-32.9-17.9-1.1-27-11.9-37.7 3.1-7.7 10.7-8.7 8.5-12 15.1-3.3 6.6-5.2 23.3-.8 28.3 4.3 4.8 19.3 10.2 15.1 20.4-5.9 14.6 32.9 10.8 34.3-4 .9-9.4 11.3-7.4 3.1 1.4-12.9 13.8-16.3 29 5.5 31.8 12.5 1.6.8 12.3 16.4 13.4 16.1.9 7-14.2 20.2-17.5z" class="st0"/>
  <path d="M179.9 187.9c-2.7 23.1 16.7 68.4 25 57 7.7-10.6 6.7 23.7 21.1 19.9 14.4-3.8 16 3.9 24.2-2.7 8.2-6.5 5.2-10.9 10.9-16.7 5.7-5.8 20-4.7 16.2-23.5-3.8-18.9-29.9-32.6-27.4-25.6 2.4 7 44-5.2 38-18.5-3.6-7.9 3.5-7.4 4.1-14 1.2-12.6-14.2-16.6-13.2-21.2 1.2-5.8-8-23.6-31.4-15.3s-16.8 1.3-31.6 8.5c-14.1 6.9-16.1 16.8-18.9 25.7-2.7 8.9-14.3 3.3-17 26.4z" class="st0"/>
  <path d="M264.9 167.5c-1.3 14.1-8.1 14.8-5.7 21.8 2.4 7-1 13.9-8.4 19.7-7.4 5.9-8.2 15.4-20.9 16.5-12.7 1.1-47.8-9.3-53.9-48.2-3.9-24.6 11.2-31.3 20.1-37.3 8.9-6 12.6-15.7 27.9-14.2 20.4 2 23 7.9 26.2 17.3 3.3 9.4 16 10.3 14.7 24.4z" class="st0"/>
  <path d="M167 211.6c5.3 3.9-.3 19.9 13.3 20.7 9.4.6 17.3-35.1-.4-56.8-6.8-8.4 14.2-39-2.6-53.4-10.1-8.7-50.8 38.5-33.1 47.2 0 .1-21.5 9.5 22.8 42.3zm32.7-4.7c1.9 3 6.2 6.6 8.9 6.8 5.2.5 6.4-2.3-1.8-10.4-11.6-11.6-13.6-16.5-13.6-30.3-.1-13.2 26.2-30.6 19.9-31.7-.6-.1-1.2 0-1.7.2-3.9 1.7-21.1 11.6-20.1 36.6.6 19.3 4.6 22.9 8.4 28.8z" class="st0"/>
  <path d="M192.5 177.4c-.2.4-.3.9-.2 1.3.4 3.2 3.5 17.9 26.9-1.6 23.6-19.7 21-15.4 21.2-13.3.2 2.8 1 3.3-4.3 5.9-11.1 5.4-33.1 14.2-36.8 12.3-4.5-2.3-5.9-6.2-6.8-4.6z" class="st0"/>
  <path d="M193.1 186.5c1.7 1.7 3.9 2.9 6.2 3.7 22.6 6.9 25.4 10.8 25.4 10.8 4.8 4.1 1.1 4.6 4.6 5.8 2.8 1-.9 5.7-4.6 1.1-2.2-2.7-.2-3.3-3.4-6.2-2.3-2.1-19.2-11.7-24.7-15.6-3.3-2.3-3.4-6.2-1.7-7.1 6.8-3.4 6.4-6.2 13.1-15.3 10.5-14.3 11.1-9.8 12.5-10.4s1.2-1 1.8-.9c.9.1.2.9.7.9.5.1.3-.2 1.1-.4 1.4-.3.1 1.4-1.4 2.6-5.3 4.2-26.5 16.5-28.5 19.6-3.3 5.1-3.7 8.9-1.1 11.4z" class="st0"/>
  <path d="M191.5 157.9c2.6-9.8-3.8-9.8-3.3-14.2.9-7.6 7.9-5.7 6.6 7.1-.7 7.4-5.1 12.1-4.4 17.4 1.4 11.1 7.2 18.3 18.3 19.9 14.5 2.1 28.9-.6 29.8.9 1.2 2 2.8 1.7 4.9-1.9 1.8-3.1-14.7-1.7-26.4 1.1-6.6 1.6-12.8 4.3-18.2.1-1.3-1-12.6-10.3-7.3-30.4z" class="st0"/>
  <path d="M203.8 216.6c1.5-4 1.6-12.6-5-37.8s-2.8-29.9-.4-27.3c5 5.4-.5 36 .6 49.8 1.2 13.8 3.4 19.2 4.8 15.3z" class="st0"/>
  <ellipse cx="155.9" cy="156.4" class="st2" rx="3.4" ry="3.5" transform="rotate(-50.18 155.87572 156.39722)"/>
  <ellipse cx="134.7" cy="128.1" class="st2" rx="3.4" ry="3.5" transform="rotate(-50.18 134.6605 128.10852)"/>
  <ellipse cx="123.4" cy="202.7" class="st2" rx="3.4" ry="3.5" transform="rotate(-50.18 123.36582 202.69442)"/>
  <ellipse cx="154.4" cy="231.2" class="st2" rx="3.4" ry="3.5" transform="rotate(-50.18 154.35786 231.21288)"/>
  <ellipse cx="199.8" cy="226.6" class="st2" rx="3.4" ry="3.5" transform="rotate(-50.18 199.78881 226.61219)"/>
  <ellipse cx="199.1" cy="197.3" class="st2" rx="3.4" ry="3.5" transform="rotate(-50.18 199.10236 197.31096)"/>
  <ellipse cx="239.1" cy="190.4" class="st2" rx="3.4" ry="3.5" transform="rotate(-50.18 239.07985 190.38022)"/>
  <ellipse cx="266" cy="184.6" class="st2" rx="3.4" ry="3.5" transform="rotate(-50.18 265.99963 184.589)"/>
  <ellipse cx="261.6" cy="143.4" class="st2" rx="3.4" ry="3.5" transform="rotate(-50.18 261.57304 143.376)"/>
  <ellipse cx="230.6" cy="155.3" class="st2" rx="3.4" ry="3.5" transform="rotate(-50.18 230.5735 155.29707)"/>
  <ellipse cx="200.9" cy="154.3" class="st2" rx="3.4" ry="3.5" transform="rotate(-50.18 200.93321 154.27301)"/>
  <ellipse cx="173.3" cy="117.2" class="st2" rx="3.4" ry="3.5" transform="rotate(-50.18 173.3342 117.14693)"/>
  <ellipse cx="212.2" cy="106.9" class="st2" rx="3.4" ry="3.5" transform="rotate(-50.18 212.17771 106.92075)"/>
  <ellipse cx="201.5" cy="251.5" class="st2" rx="3.4" ry="3.5" transform="rotate(-50.18 201.49032 251.46968)"/>
  <ellipse cx="255.8" cy="231.6" class="st2" rx="3.4" ry="3.5" transform="rotate(-50.18 255.78575 231.60726)"/>
  <ellipse cx="157.2" cy="191.5" class="st2" rx="3.4" ry="3.5" transform="rotate(-50.18 157.20683 191.52458)"/>
  <path d="M731.1 351.8c-.4-.5 39.7-13.9 58.5-8.2 18.8 5.6 22.7 20.8 16.1 26.3 0 0 .8 9.2-10.2 14.6l.2-4.5s-7.3 8-13.9 5l2.3-3.3s-5.8 4.7-11.6 1.7l2.7-3.8s-5.1 3-13.3.2l3.8-4.2s-5.5 2.7-13.4-2.2l3.1-2.6s-5.2-.2-12.4-5.9l3.5-2.2c0 .2-8.2-1.9-15.4-10.9z" class="st3"/>
  <path d="M748.9 352.7s31.4 1.4 56.9 17.2" class="st3"/>
  <path d="M797.3 365.2c4.9-5.7-3.7-13.3-3.7-13.3m5.4 14.2s-3.6 9.2-19 7.4m-.3-26.6s13.9 7.1 8 14.2m-22.9 6.2s17.5 1.5 19.1-7.5M766 346.7s9.8 3.6 8.9 9.7m-20.8 4.9s11.8 4.5 16.7-5.3m-19.3-7.1s9.8 2.2 10.3 5.3m-18.8 2.3s14.1.6 16-2.3m148.5 67s57.8 13 74-8.1-10.5-37.9-4.6-53.5c6-15.6-23.3-14.8-28.6-19.8s-24.6-21.6-44.8-7c-20.1 14.7-57.5 55.6 4 88.4z" class="st3"/>
  <path d="M895.6 401s36.8-45.8 23.5-70-40.4-7.9-52.7-20.3c-12.3-12.5-23.9 14.1-30.8 16.6-6.9 2.5-30.9 12.2-25.5 36.9 5.4 24.7 28.4 76.9 85.5 36.8z" class="st3"/>
  <path fill="#ededed" stroke="#333" stroke-miterlimit="10" stroke-width=".3269" d="M871.9 491.4c-3.1 3.9-7.3 6.9-12 8.5-8.2 2.6-18.9 2.1-26.8-14.6-7.4-15.6-10.9-13.1-15-13.3-11-.6-15-18.4 2.8-33 17.8-14.7 35.7-22.7 51.3-14.8s38.7 38.3 38.2 45.9c-1.3 21.1-13.6 21.3-21.3 16.9-10.1-5.9-13.3-.5-17.2 4.4z"/>
  <path d="M967.3 474.1c-20.6-4.2 2.2 14.8-17.3 18.9-19.5 4.2-20.8-12-31.2-6.9-10.3 5.1-32.9-22.4-25.5-37s12.4-21 22.4-21.5c10-.5 23-2 49.3-11.4 23.6-8.5 32.8 18.5 23.7 32-9.2 13.4-.8 30.1-21.4 25.9zm-129.5-35.5s-29.9 22-38.7-2.9c-8.8-24.9-22.3-16.4-21.4-32.2.9-15.9 43.4-33.7 51.5-22.5 8 11.2 60.1 41.3 8.6 57.6zm39.5-34c0 .5.2.9.4 1.2 1.8 2.3 10.9 12.2 18.7-20 7.9-32.5 8-27.2 9.1-25.6 1.5 2.1 2.3 2-.4 7.8-5.6 12.1-17.3 34.6-20.9 35.7-4.2 1.3-7-1-6.9.9z" class="st3"/>
  <path d="M868.8 382.7c-2.3-10.8-8-7.2-9.7-11.6-2.8-7.8 4.3-9.9 9.3 3 2.9 7.5 3 14.8 6 19.4 6.5 9.8 13.2 13 23.9 8.2 14-6.4 22.7-19.5 24.3-18.5 2 1.2 3.3 0 3.5-4.6.1-4-7.7.3-20.3 18.5-4.3 6.1-9.4 11.4-16.3 10.5-1.5-.3-16.1-2.7-20.7-24.9z" class="st3"/>
  <path d="M914 402.8c8.6-5.7 9.9-.9 13.6-3.2 6.3-3.8 4-7.5-7.5-2.4-6.6 3-13.2 8-17.9 8.9-10.2 1.9-14.5-1-17-12.1-3.2-14.5-2.3-27-3.8-27.5-1.9-.6-2.9-6 1.3-5.7 4.9.4 3 11.6 1.6 24.5-.8 7.4-2.7 14.6 1.7 19 .8 1.1 10.3 10.1 28-1.5z" class="st3"/>
  <path d="M918.7 408.8c-2.1-4-16.6 7.2-40.2-4s-24.7-17.7-21.2-18.1c7.4-.8 18.3 12.9 29.6 21.2 11.4 8.3 33.9 4.8 31.8.9z" class="st3"/>
  <path d="M880 435.1s14.2 17.2 38.4 1 35.6-37 2.3-35.2c0 0 13.3-32.1-16.2-29.4-29.5 2.7-51.2 19-44.7 31.8 6.4 12.7 7 31.8 20.2 31.8z" class="st3"/>
  <path d="M892.2 423.2s11 47.1-36.1 7.7-31.4-68.8-22.8-68.3c8.5.5 9.2-12.6 14.2-9.9 5 2.7 4.8 20.6 11.8 18.7 7-1.9 22.3.2 30 21.5 7.8 21.3 16.9 16.3 2.9 30.3z" class="st3"/>
  <ellipse cx="810.5" cy="400" class="st5" rx="3.7" ry="3.8" transform="rotate(-73.638 810.488 399.9792)"/>
  <ellipse cx="817" cy="442.1" class="st5" rx="3.7" ry="3.8" transform="rotate(-73.638 817.02014 442.07292)"/>
  <ellipse cx="868.1" cy="473.1" class="st5" rx="3.7" ry="3.8" transform="rotate(-73.638 868.13046 473.09568)"/>
  <ellipse cx="911.6" cy="448.8" class="st5" rx="3.7" ry="3.8" transform="rotate(-73.638 911.55946 448.7913)"/>
  <ellipse cx="898.2" cy="419.8" class="st5" rx="3.7" ry="3.8" transform="rotate(-73.638 898.16638 419.78834)"/>
  <ellipse cx="935.1" cy="395.5" class="st5" rx="3.7" ry="3.8" transform="rotate(-73.638 935.12243 395.51709)"/>
  <ellipse cx="959.5" cy="378.1" class="st5" rx="3.7" ry="3.8" transform="rotate(-73.638 959.52173 378.05666)"/>
  <ellipse cx="937.2" cy="338.8" class="st5" rx="3.7" ry="3.8" transform="rotate(-73.638 937.21104 338.7682)"/>
  <ellipse cx="911.4" cy="364.1" class="st5" rx="3.7" ry="3.8" transform="rotate(-73.638 911.39003 364.13138)"/>
  <ellipse cx="881.3" cy="376" class="st5" rx="3.7" ry="3.8" transform="rotate(-73.638 881.321 375.9709)"/>
  <ellipse cx="837.6" cy="350.8" class="st5" rx="3.7" ry="3.8" transform="rotate(-73.638 837.61492 350.82637)"/>
  <ellipse cx="872" cy="323.7" class="st5" rx="3.7" ry="3.8" transform="rotate(-73.638 872.0127 323.75124)"/>
  <ellipse cx="924" cy="472.9" class="st5" rx="3.7" ry="3.8" transform="rotate(-73.638 924.04496 472.91266)"/>
  <ellipse cx="969.7" cy="429.5" class="st5" rx="3.7" ry="3.8" transform="rotate(-73.638 969.70207 429.47775)"/>
  <ellipse cx="853.8" cy="432.2" class="st5" rx="3.7" ry="3.8" transform="rotate(-73.638 853.7617 432.17814)"/>
  <path d="M273.5 395c2.6.7 10.1 3.7 13.2 5.8.2.1-2.7-2.8-1.4-2.2 3.5 1.4 10.5 8.4 12.4 9.7 0 0-2.2-3 0-1.4 6.1 4.6 9.6 10.1 8.4 18.8 0 0-1.2 9-14.5 12.6-3.1.9 3.1-4-.4-2-2.2 1.3-6.5 2.6-9.5 2.7-1.3.1-2.6.1-4 0-1.8 0 3.4-2.9 1.8-2.2-1.9.9-6.4 1.9-12.9.9-1.3-.2-2.5-.5-3.8-.9-2-.5 4.4-1.2 2.5-1.3-2.3 0-11.8-2.6-13.5-3.7-1.6-1.1 5.2.4 3.4-.5-2.4-1.1-11-5.7-12.3-7-.9-1 3.4.6 2-.5-2.8-2.1-7.9-7.1-9.3-8.7-.1-.1 0-.3.2-.2l2.8 1.1-8.4-9.9c3.1-2.2 10.4-5.6 12.9-5.5 1.3.1-3.2-.3-1.8-1 2.9-1.3 10.6-2.5 12.2-2.3 1 .1-3.8-.9-2.9-1.1 1-.3 10.6-1.8 16.4-.3 2.2.5-2.6-1.4-1.5-1.4 4.1 0 6.5.1 8 .5z" class="st0"/>
  <path d="M242.5 408.7s36.9 4.1 64.1 13.3" class="st0"/>
  <path d="M245 416.7s9-2.2 9.4-6.2m-.9 12.9s19.6.5 22.8-9.1m-2.1 17.4s19.1-5 18.8-13.7m-47.9-14.6s4.6 2.4 5.6 6.5m7-6.5c.1.2 8.1 2.8 8.5 8.9m6.8-9.6s9.3 3.2 12.2 13.4m5.2-6.5s8.8 4.3 9.5 10.4m78.7-33.3s35.6 17.3-13.7 27-59.9-15.6-55.2-20.7c4.7-5.2-3.3-12.4 1.1-14.2s15.6 7.5 18 2.1c2.4-5.4 11.6-14.1 29.2-8 17.4 6 19-2.4 20.6 13.8z" class="st0"/>
  <path d="M380 400.6s18.2-.2 20.4-23.9-5.1-41.7-21.2-19.6c0 0-13.6-25-27.1-4.9s-14.3 42.3-2.9 44.8c11.5 2.5 23.9 11.9 30.8 3.6z" class="st0"/>
  <path d="M385.3 375.9s38.1-30 33-51.2c-5.1-21.2-29.6-12.8-36.4-24.7-6.8-11.9-21.5 7.2-27.3 8s-26.4 4.5-27.5 24.9c-1.1 20.3 5.6 65.2 58.2 43z" class="st0"/>
  <path d="M366.2 373.1s-10.2-47-32.4-51-25.9 21.7-40.1 23c-14.3 1.4-3.4 22.5-5.3 28.2s-8.2 25.9 10.3 35.2c18.6 9.3 63.6 21.5 67.5-35.4z" class="st0"/>
  <path d="M411.6 434.8c.9 4 .7 8.2-.8 12-2.6 6.5-8.4 13.1-23.1 9.5-13.7-3.3-14 .2-16.2 2.7-6.1 6.7-19.4 0-19.6-18.8-.2-18.9 4-34.4 17-40.3s44.3-4.8 48.9-.6c12.7 11.8 6.5 19.6-.2 22.2-8.9 3.4-7.1 8.2-6 13.3z" class="st1"/>
  <path d="M449.7 365.1c-13.3 10.9 10.5 6.2 3.1 20.8s-18.4 7.1-20.5 16.2-31.2 9.4-36.7-2.8-7-18.7-2.1-25.3c4.9-6.6 10.6-15.6 18.2-37.3 6.8-19.4 28.7-11.3 32.5 1.5 3.9 12.7 18.8 16 5.5 26.9zm-89.3 64.1s-1.4 30.4-21.8 23.1-21.9 5.8-31.5-3 1-45 12.2-44.4c11.3.7 57.3-16.9 41.1 24.3zm-1.2-42.6c.3.2.7.4 1 .4 2.4.1 13.4-.6-3.1-22.2-16.6-21.8-13.2-19.1-11.6-19 2.1.2 2.5-.4 4.8 4.2 4.8 9.8 13.1 28.9 11.9 31.7-1.4 3.3-4.3 3.9-3 4.9z" class="st0"/>
  <path d="M340.8 380.7c-8-4.1-8.7 1.4-12.4.1-6.4-2.2-4.1-7.9 6.7-4.4 6.2 2 11 5.7 15.4 6.1 9.6.9 15.1-1.7 17.5-11 3.2-12.2-.6-24.5.8-25 1.8-.6 1.7-2.1-1.1-4.6-2.5-2.1-3.7 5 1.3 22.4 1.7 5.9 2.4 11.9-1.7 15.8-.9 1-9.9 9.1-26.5.6z" class="st0"/>
  <path d="M376.9 362.3c.8-8.4 4.5-6.8 5-10.3.8-6-2.7-6.4-5.4 3.5-1.5 5.8-1.7 12.5-3.6 16-4.1 7.4-8.1 8.7-16.5 4.6-10.9-5.4-18.3-12.5-19.4-11.8-1.4.9-5.3-1.3-3-3.7 2.8-2.9 8.9 4 16.5 11.6 4.3 4.3 7.9 9.2 13 8.8 1.1-.1 11.7-1.5 13.4-18.7z" class="st0"/>
  <path d="M383.2 362.4c-3.6-.7-4 14.3-23.3 23.5s-24 6.6-22.4 4.1c3.3-5.1 17.6-5 28.8-7.9 11.1-2.9 20.4-19 16.9-19.7z" class="st0"/>
  <ellipse cx="310" cy="355.1" class="st6" rx="3.4" ry="3.5" transform="rotate(-47.538 309.95842 355.13134)"/>
  <ellipse cx="298.4" cy="392.4" class="st6" rx="3.4" ry="3.5" transform="rotate(-47.538 298.34515 392.44224)"/>
  <ellipse cx="328" cy="438.6" class="st6" rx="3.4" ry="3.5" transform="rotate(-47.538 327.9441 438.64707)"/>
  <ellipse cx="373.5" cy="436.1" class="st6" rx="3.4" ry="3.5" transform="rotate(-47.538 373.53022 436.14975)"/>
  <ellipse cx="374.2" cy="406.8" class="st6" rx="3.4" ry="3.5" transform="rotate(-47.538 374.20535 406.85322)"/>
  <ellipse cx="414.5" cy="401.8" class="st6" rx="3.4" ry="3.5" transform="rotate(-47.538 414.467 401.78423)"/>
  <ellipse cx="431.6" cy="384.2" class="st6" rx="3.4" ry="3.5" transform="rotate(-47.538 431.6117 384.23159)"/>
  <ellipse cx="439.1" cy="355.8" class="st6" rx="3.4" ry="3.5" transform="rotate(-47.538 439.0922 355.85313)"/>
  <ellipse cx="407.6" cy="366.3" class="st6" rx="3.4" ry="3.5" transform="rotate(-47.538 407.57307 366.3344)"/>
  <ellipse cx="378" cy="363.9" class="st6" rx="3.4" ry="3.5" transform="rotate(-47.538 378.01347 363.9448)"/>
  <ellipse cx="352.2" cy="325.6" class="st6" rx="3.4" ry="3.5" transform="rotate(-47.538 352.17005 325.58188)"/>
  <ellipse cx="391.4" cy="317.2" class="st6" rx="3.4" ry="3.5" transform="rotate(-47.538 391.4356 317.16609)"/>
  <ellipse cx="394.2" cy="441.7" class="st6" rx="3.4" ry="3.5" transform="rotate(-47.538 394.2328 441.72012)"/>
  <ellipse cx="332.6" cy="399.1" class="st6" rx="3.4" ry="3.5" transform="rotate(-47.538 332.61677 399.13391)"/>
  <path d="m313.2 655.4 3.8-1.2s-13.3.1-14.4-4.5l4.2-1.3s-12.9 0-14-5l2.8-1.3s-9.8-3.3-9.4-9.2l4.1-.2s1.9-2.5-4.2-4.4-2.4-8.8-8.8-11.7c-4.1-1.8 19.1-6.2 19.1-6.2l-2.6-2.2s9.2-1.5 12.3 1l.6-2.5s8.1.8 10.2 3.2l-1.4-3s9.7 1.5 10.9 5.3l-1.4-3s9.5 3.8 11.2 7.5l-1.6-3.7c-.2-.3 6.4 1.4 12.7 12.3 5 8.6 10 18.2.3 27.8-9.9 9.7-31.4 7.1-34.4 2.3z" class="st0"/>
  <path d="M351 672.7s3.9-46-59.7-53.7" class="st0"/>
  <path d="M324.9 649s17.4 5.3 19.2-1.9l-2.4-3.6s7-6.5-1.5-12.9" class="st0"/>
  <path d="M318.3 641.2s19.3 5.6 20.6-1.1m-4.3-4.2s5.1-6.6-4.8-14.5m-20.6 14.7s21.9 5.2 22.4-2.6m-6.8-4.5s.1-8.7-7.1-12.5m-16.3 15.2s15 .9 17.5-5.7m-6.3-2.4s2.3-8.5-3.4-10.5M291 625.2s16.5 0 15-3.5m-5.3-1.2s-.5-6.7-5-6.4m161.4 141.2c5.4-5.4 11.4-27-8-32.8-23.5-7.2-15.2-3.6-23.4-10.1-7.4-5.8-30.5-14.6-48-5.3-14.4 7.7-26.8 3.9-27.8 20.2-.7 11.7-2.6 10.5-1.9 17s7.4 20 13.3 21.6c5.7 1.6 20-1.5 21.7 8.2 2.5 13.8 30.9-7.5 24.8-19.2-3.9-7.5 5.2-10.9 3.1-.4-3.3 16.5 1.5 29.5 19.9 21.2 10.5-4.7 6.7 8.8 19.3 2.3 12.9-6.9-1.6-14 7-22.7z" class="st0"/>
  <path d="M398.1 709.6c9.2 18.6 46.5 43.5 47.4 30.9.8-11.6 16.9 14.6 26.2 4.9s14.3-4.7 17.5-13.5c3.2-8.8-1.2-10.6.3-17.7s13.2-13 1-25.3-39.2-10.4-33.9-6.2c5.3 4.1 31.7-24.8 20.5-31.9-6.6-4.2-.9-7.2-3.6-12.4-5.2-10-19.2-5.8-20.7-9.7-2-4.9-17.8-13.9-31.9 3.3s-12.5 8.9-20.4 21.4c-7.6 11.9-4.3 20.3-2.1 28.3 2.1 8-9.6 9.2-.3 27.9z" class="st0"/>
  <path d="M401.9 716.2c-17.3 14.2-40.6 26.5-47.9 14.5-2.6-4.3-20 8.3-23.5-5.9-3.5-14.2-11.6-8.4-12.5-18.8-.9-10.1 4.5-9.4 6.6-17.2s-5.1-25.7 10.4-34.9c11.2-6.6 26.4.5 19.6 2.1s-5.6-32.1 7.9-33.8c8-1 12.3-11.6 19.6-14 11.6-3.9 19.5 7.3 24 6.5 12-2 15.2 1.1 22.7 16.1 5.4 10.9-2.2 11.7-1.3 28 .9 15.6-6.1 22.4-12 29.3-6 7 3.7 13.9-13.6 28.1z" class="st1"/>
  <path d="M454.1 654c5.9 11.2.9 15 6.2 19.1s6 10.9 3.1 18.8 1.2 15.4-8.1 22.3c-9.3 6.9-41.7 15.6-65.5-10.7-15.1-16.7-6.6-28.8-2.7-37.5 4-8.7 2.1-17.8 14.7-23.9 16.9-8.2 21.8-4.9 28.9.6 7.2 5.4 17.6 0 23.4 11.3z" class="st0"/>
  <path d="M399.6 733.5c6 .4 9.5 15.1 20.5 9.3 7.6-4-3.8-34.5-28.2-42.5-9.4-3.1-8-36-28.1-38.9-12.1-1.7-20.7 52.9-2.6 51.2 0-.1-12.1 17.2 38.4 20.9zm23.1-19c2.9 1.3 8.1 2 10.3.9 4.3-2.1 3.8-4.7-6.5-7-14.7-3.2-18.6-6-25.5-16.3-6.5-9.9 5.4-35.4-.1-33.3-.5.2-.9.5-1.2 1-2.2 3.1-10.8 18.7 2.2 37 10.1 14.2 15 15 20.8 17.7z" class="st0"/>
  <path d="M402.7 695.7c0 .4.2.8.5 1.1 1.9 2.2 11.5 11.8 20.1-13.9 8.7-25.9 8.8-21.5 9.9-20 1.5 2 2.4 2-.5 6.4-6 9.3-18.8 26.3-22.6 26.7-4.5.4-7.5-1.9-7.4-.3z" class="st0"/>
  <path d="M407.6 702.3c2.2.5 4.5.4 6.6-.2 20.9-5.5 25.1-3.9 25.1-3.9 5.7.9 3.1 2.9 6.4 2.2 2.6-.6 2.1 4.7-3 3-3-1-1.8-2.4-5.7-3-2.8-.4-20.6.3-26.9 0-3.7-.2-5.7-3-4.8-4.5 3.6-5.7 1.9-7.7 2.7-17.7 1.2-15.7 3.8-12.6 4.6-13.8.8-1.2.5-1.3.9-1.5.7-.3.6.5 1 .3.5-.2.1-.3.7-.9.9-.9.8 1 .2 2.6-2.1 5.7-12.5 24.9-12.6 28.2 0 5.5 1.6 8.5 4.8 9.2z" class="st0"/>
  <path d="M392.4 681.5c-2.8-8.6-7.8-5.6-9.5-9.1-3.1-6.2 3.3-8 8.7 2.2 3.1 5.9 2 11.5 5.1 15.1 6.6 7.7 14.6 10.4 24 6.3 12.3-5.3 22.1-14.1 23.6-13.4 1.9 1 3-.1 2.9-3.8-.1-3.2-12.3 5.7-20 13.3-4.4 4.3-7.8 9.3-14.1 8.7-1.6 0-15.1-1.6-20.7-19.3z" class="st0"/>
  <path d="M430.7 719.8c-.8-3.7-5-10.2-22.4-26s-16.8-21.1-13.7-20.3c6.5 1.6 17.3 27.3 24.9 37.1s12 12.8 11.2 9.2z" class="st0"/>
  <ellipse cx="345.3" cy="660" class="st6" rx="3.4" ry="3.5" transform="rotate(-47.538 345.2864 660.05795)"/>
  <ellipse cx="333.7" cy="697.4" class="st6" rx="3.4" ry="3.5" transform="rotate(-47.538 333.67312 697.36885)"/>
  <ellipse cx="363.3" cy="743.6" class="st6" rx="3.4" ry="3.5" transform="rotate(-47.538 363.26533 743.581)"/>
  <ellipse cx="408.9" cy="741.1" class="st6" rx="3.4" ry="3.5" transform="rotate(-47.538 408.85144 741.08368)"/>
  <ellipse cx="409.5" cy="711.8" class="st6" rx="3.4" ry="3.5" transform="rotate(-47.538 409.53344 711.77988)"/>
  <ellipse cx="449.8" cy="706.7" class="st6" rx="3.4" ry="3.5" transform="rotate(-47.538 449.79492 706.71095)"/>
  <ellipse cx="476.9" cy="702.1" class="st6" rx="3.4" ry="3.5" transform="rotate(-47.538 476.93286 702.16536)"/>
  <ellipse cx="474.4" cy="660.8" class="st6" rx="3.4" ry="3.5" transform="rotate(-47.538 474.41344 660.78735)"/>
  <ellipse cx="442.9" cy="671.2" class="st6" rx="3.4" ry="3.5" transform="rotate(-47.538 442.90093 671.26096)"/>
  <ellipse cx="413.4" cy="668.9" class="st6" rx="3.4" ry="3.5" transform="rotate(-47.538 413.34144 668.8714)"/>
  <ellipse cx="387.5" cy="630.5" class="st6" rx="3.4" ry="3.5" transform="rotate(-47.538 387.49793 630.50871)"/>
  <ellipse cx="414.8" cy="640.1" class="st6" rx="3.4" ry="3.5" transform="rotate(-47.538 414.76362 640.09258)"/>
  <ellipse cx="427.4" cy="766" class="st6" rx="3.4" ry="3.5" transform="rotate(-47.538 427.40678 765.99236)"/>
  <ellipse cx="464.6" cy="738.6" class="st6" rx="3.4" ry="3.5" transform="rotate(-47.538 464.55413 738.6541)"/>
  <ellipse cx="368" cy="704" class="st6" rx="3.4" ry="3.5" transform="rotate(-47.538 367.94474 704.06052)"/>
  <path d="M538 198.5c1.5-4.8-2.2-19.9-16.1-19-17 1.2-10.6 1.4-18-.7-6.6-1.9-23.9-1.9-31.5 8.3-6.3 8.4-15.3 9-10.3 19.6 3.5 7.6 2 7.3 4.6 11.3 2.6 4 11.4 10.9 15.6 10.5 4.1-.4 11.9-5.8 16.2-.1 6.2 8.1 16.5-12.3 8.8-18.3-5-3.8-.5-8.2 1.7-1 3.6 11.3 11 18.4 19.5 8.7 4.9-5.6 7.1 4 12.7-3.2 5.8-7.4-5.6-8.5-3.2-16.1z" class="st0"/>
  <path d="M485.9 183.8c12.1 9.6 43.6 16.4 39.9 8.1-3.5-7.6 15.4 5.2 17.9-3.2 2.5-8.4 7.3-6.5 6.2-12.9s-4.4-6.5-5.8-11.3 3.8-11.5-8-16.4-27.8 2.9-23.1 4.3c4.7 1.3 11.2-23.5 1.8-25.3-5.5-1.1-3-4.4-6.5-7-6.6-5.1-13.8 1-16.1-1.1-2.9-2.7-15.8-4.6-18.6 9.9s-4.7 8.7-5.3 18.6c-.6 9.4 4.2 13.9 8.3 18.5 4 4.5-2.8 8.2 9.3 17.8z" class="st0"/>
  <path d="M494.1 185.4c-5.1 13.6-14.4 27.7-23.4 22.2-3.2-1.9-8.9 10.7-16.3 2.8-7.4-7.9-10.1-2-14.5-8.2-4.3-6-.8-7.1-2.4-12.5s-12.7-14.6-6.8-24.6c4.2-7.2 16-6.9 12.6-4.1-3.5 2.8-15.4-18.4-8-23.2 4.4-2.8 3-10.6 6.5-14.1 5.5-5.6 14.4-.8 16.9-2.6 6.5-4.5 9.6-3.5 19.7 3.8 7.4 5.3 3 7.9 9.7 17.8 6.4 9.4 4.7 15.6 3.8 21.6-1.1 5.8 7.3 7.4 2.2 21.1z" class="st0"/>
  <path d="M501.6 134.7c7.5 5.7 5.7 9.3 10.4 10.6 4.7 1.3 7.4 5.5 8.3 11.2.9 5.7 6 9.5 2.6 16.2s-20.5 20.1-44.2 9.1c-15-6.9-13.9-16.7-14.5-23.2-.5-6.5-4.8-11.8.9-18.8 7.6-9.3 11.8-8.4 18.1-6.7 6.4 1.8 10.9-4.1 18.4 1.6z" class="st0"/>
  <path d="M485.8 201.7c4 .2 8.1 9.9 14.7 5.9 4.5-2.7-6.7-22.8-23.8-27.9-6.6-1.9-9.7-23.7-23.4-25.4-8.2-1-7.1 35.2 4.6 33.9-.1 0-6 11.5 27.9 13.5zm17.2-21.1c2.3.1 5.8-.9 6.8-2.2 2-2.6.9-4.1-6.5-2.8-10.4 1.9-13.8 1.2-21.6-3.8-7.4-4.7-8.2-24.7-11-21.8-.3.3-.4.6-.5 1-.4 2.6-.7 15.2 13.6 23.7 11.2 6.5 14.6 5.7 19.2 5.9z" class="st0"/>
  <path d="M484.1 173.7c.1.3.4.5.6.6 1.9.9 11.2 4.6 8.2-14.6-3-19.4-1.5-16.5-.2-15.9 1.6.9 2.2.7 1.8 4.3-.8 7.7-3.3 22.4-5.6 23.7-2.8 1.6-5.4.9-4.8 1.9z" class="st0"/>
  <path d="M489.3 176.7c1.5-.3 3-1 4.1-1.9 11.5-9.3 14.7-9.4 14.7-9.4 3.9-1 2.9 1.1 4.8-.3 1.5-1.1 2.9 2.5-.9 2.8-2.3.1-1.9-1.1-4.6-.4-2 .5-13 5.8-17.1 7.3-2.4.9-4.6-.4-4.5-1.7.4-4.7-1.3-5.6-4.1-12.4-4.4-10.6-1.7-9.3-1.6-10.3.1-1-.1-1 .1-1.2.4-.4.5.2.8-.1.2-.3 0-.2.2-.8.3-.8.8.4 1 1.7.5 4.3.2 19.8 1.3 22 1.6 3.6 3.6 5.1 5.8 4.7z" class="st0"/>
  <path d="M472.8 167.2c-4.6-4.9-6.8-1.5-9.1-3.4-4-3.2-.5-6.2 6.2-.9 3.9 3 5 7 8.2 8.6 6.7 3.2 12.7 2.8 17.3-2.4 6.1-6.9 9.4-15.3 10.6-15.2 1.5.1 1.9-.9.6-3.3-1.1-2.1-6 7.1-8.3 14.2-1.4 4-1.9 8.2-6.1 9.6-.9.2-10 2.8-19.4-7.2z" class="st0"/>
  <path d="M509.8 181.9c-1.8-2.2-6.5-5.3-22.8-10.9-16.3-5.6-17.6-9.3-15.4-9.6 4.7-.7 20 13.2 28 17.6 8.1 4.3 11.9 5.1 10.2 2.9z" class="st0"/>
  <ellipse cx="448.1" cy="198.7" class="st6" rx="3.4" ry="3.5" transform="rotate(-47.538 448.0672 198.75631)"/>
  <ellipse cx="526.1" cy="202.7" class="st6" rx="3.4" ry="3.5" transform="rotate(-47.538 526.0668 202.756)"/>
  <ellipse cx="537.1" cy="166.8" class="st6" rx="3.4" ry="3.5" transform="rotate(-47.538 537.06716 166.77026)"/>
  <ellipse cx="447.7" cy="176.4" class="st6" rx="3.4" ry="3.5" transform="rotate(-47.538 447.74244 176.45983)"/>
  <ellipse cx="488" cy="171.4" class="st6" rx="3.4" ry="3.5" transform="rotate(-47.538 488.01072 171.38347)"/>
  <ellipse cx="515.1" cy="166.8" class="st6" rx="3.4" ry="3.5" transform="rotate(-47.533 515.1351 166.8159)"/>
  <ellipse cx="508.6" cy="133.5" class="st6" rx="3.4" ry="3.5" transform="rotate(-47.533 508.62227 133.44559)"/>
  <ellipse cx="481.1" cy="135.9" class="st6" rx="3.4" ry="3.5" transform="rotate(-47.538 481.11749 135.94777)"/>
  <ellipse cx="451.6" cy="133.5" class="st6" rx="3.4" ry="3.5" transform="rotate(-47.538 451.55789 133.55816)"/>
  <ellipse cx="502.8" cy="213.3" class="st6" rx="3.4" ry="3.5" transform="rotate(-47.538 502.7696 213.32647)"/>
  <path d="m102.8 640.8 2.8-2.1s-6.4 10.2-3 14l3.1-2.3s-6.1 10-2.5 14l2.4-1.3s-1.9 9.7 3.2 13.2l2.1-3s3 .1 1.7 6c-1.4 5.9 6.2 7.5 5.5 14.3-.4 4.3 14.2-10.8 14.2-10.8l.6 3.4s5.6-6.2 5-10.1l2.3 1.2s3.1-6.8 2.2-9.9l1.8 3s3.4-8.4.8-11.8l1.8 3s1.3-9.8-.9-13.4l2.3 3.6c.1.3 1.9-5.8-4.2-17.7-4.8-9.3-10.3-19.4-22.9-18.1s-20.9 19.5-18.3 24.8z" class="st0"/>
  <path d="M106.4 600.7s40 26.5 16.3 80.5" class="st0"/>
  <path d="M113.7 636s3.8-16.8 10.6-13.6l1.8 4.1s8.7-1.2 10 9.5" class="st0"/>
  <path d="M117 646.1s4.5-18.5 10.7-15.1m1.4 5.9s7.9.3 9.7 13m-21.8 6.4s6.1-20.2 12.8-15.6m.4 8.2s7.2 5.5 6.9 13.5m-20.2 2.8s6.4-12.1 13-9.8m-1 6.4s8.1 3.7 7.1 9.3m-18.6 6.3s7.8-12.7 10-9.3m-1.5 4.8s5.3 4.7 2.9 8" class="st0"/>
  <path d="M176.8 599.7c2.6-5.3 1-23.8-15.6-25.2-20.1-1.7-12.8-.3-21-4-7.4-3.4-27.7-6.5-38.5 4.2-8.9 8.7-19.6 7.9-15.6 21.2 2.8 9.5 1 8.9 3.4 14.1s11.4 14.9 16.4 15.2c4.8.3 15-4.7 19.1 2.8 5.9 10.7 21.6-11.5 13.5-19.9-5.1-5.4.9-9.7 2.2-.9 2.2 13.9 9.7 23.6 21.4 13.7 6.7-5.7 7.7 6 15.5-1.5 8.3-7.9-4.9-11.2-.8-19.7z" class="st1"/>
  <path d="M118.2 573.1c12.5 13.4 48.3 27 45.4 16.7-2.7-9.5 17.2 8.9 21.6-.6 4.4-9.5 9.7-6.3 9.6-14-.1-7.7-4-8.4-4.9-14.4-.8-6 6.5-12.8-6.5-20.7s-33.2-1.5-27.9.9c5.3 2.4 17.3-25.6 6.6-29.4-6.3-2.3-2.8-5.7-6.4-9.4-6.9-7.2-16.4-1.3-18.7-4.2-2.9-3.7-17.7-8.1-23.6 8.3-5.9 16.5-7 9.4-9.6 20.9-2.4 11 2.5 17.2 6.5 23.2 4.1 6.1-4.6 9.2 7.9 22.7z" class="st0"/>
  <path d="M127.6 576.4c-8.4 15.1-21.9 30-31.4 21.9-3.4-2.9-12.4 11-19.7.4s-11.5-4.2-15.6-12.3c-4-7.9.3-8.5-.6-15.2s-12.3-19.4-3.7-30.1c6.3-7.7 20.1-5.3 15.5-2.6-4.6 2.7-14.8-24.4-5.2-28.7 5.7-2.5 5.4-11.9 10.2-15.5 7.5-5.6 17.1 1.6 20.3 0 8.4-4.2 11.9-2.4 22.4 7.9 7.7 7.5 2.2 9.8 8.2 22.7 5.8 12.2 2.7 19.2.6 26-2.2 7 7.4 10.4-1 25.5z" class="st0"/>
  <path d="M145.4 518.2c7.8 8.1 5 11.9 10.3 14.3s7.8 7.8 7.8 14.6 5.3 12.3.1 19.5c-5.2 7.2-27.6 20-53.6 2.9-16.4-10.8-13.4-22.2-12.8-29.9.6-7.7-3.5-14.8 4.4-21.9 10.6-9.6 15.3-7.8 22.4-4.6 7.2 3.2 13.6-2.9 21.4 5.1z" class="st0"/>
  <path d="M114.9 594.1c4.7 1 7.8 13.1 16.2 9.6 5.8-2.4-3.8-28-23.1-37-7.4-3.5-7.2-29.6-22.9-34.1-9.5-2.7-14.7 40.1-.7 40.6 0 0-9 12.6 30.5 20.9zm24-21.7c2.7.5 7 0 8.4-1.3 2.9-2.6 1.8-4.7-7.1-4.4-12.6.4-16.4-1.1-24.7-8.3-7.9-6.9-5.2-30.5-9-27.6-.3.3-.6.6-.7 1.1-.9 3-3.5 17.7 11.8 30.2 11.8 9.6 15.9 9.2 21.3 10.3z" class="st0"/>
  <path d="M117.8 560.9c.1.3.4.6.7.8 2.1 1.4 12.3 7.4 12.3-15.7-.1-23.3 1.2-19.7 2.5-18.7 1.8 1.3 2.5 1.2 1.4 5.4-2.3 9-7.8 25.7-10.8 26.8-3.6 1.4-6.5.1-6.1 1.4z" class="st0"/>
  <path d="M123.5 565.4c1.9-.1 3.7-.6 5.2-1.5 15.2-8.9 18.9-8.4 18.9-8.4 4.8-.5 3.2 1.8 5.7.5 2-1 2.9 3.5-1.6 3.1-2.7-.2-2.1-1.7-5.4-1.3-2.4.2-16.4 4.5-21.4 5.6-3 .6-5.4-1.3-5-2.8 1.3-5.5-.5-6.8-2.7-15.3-3.3-13.3-.3-11.2 0-12.4.3-1.2 0-1.2.3-1.5.5-.4.6.3.9.1s0-.3.3-.9c.5-.9.9.7.8 2.1-.1 5.1-3.2 23.3-2.4 26.1 1.6 4.5 3.7 6.7 6.4 6.6z" class="st0"/>
  <path d="M105.8 551.3c-4.5-6.6-7.7-3-10.1-5.6-4.1-4.5.5-7.3 7.5 0 4.1 4.3 4.7 9.2 8.1 11.5 7.3 5 14.4 5.6 20.8.3 8.4-7 13.8-16.3 15.2-16 1.8.4 2.4-.7 1.3-3.7-1-2.6-8.2 7.3-12.3 15.2-2.3 4.5-3.7 9.3-8.9 10.2-1.2.1-12.3 1.6-21.6-11.9z" class="st0"/>
  <path d="M146.6 575.2c-1.7-2.9-6.7-7.4-24.8-16.9s-19.1-14-16.4-14c5.7 0 21.1 19.1 29.8 25.6 8.8 6.5 13 8.1 11.4 5.3z" class="st0"/>
  <ellipse cx="67.3" cy="545.9" class="st6" rx="3.4" ry="3.5" transform="rotate(-47.538 67.28024 545.87156)"/>
  <ellipse cx="129.9" cy="619.9" class="st6" rx="3.4" ry="3.5" transform="rotate(-47.538 129.85015 619.90011)"/>
  <ellipse cx="120.5" cy="596.6" class="st6" rx="3.4" ry="3.5" transform="rotate(-47.538 120.52488 596.58971)"/>
  <ellipse cx="160.8" cy="591.5" class="st6" rx="3.4" ry="3.5" transform="rotate(-47.538 160.79031 591.51304)"/>
  <ellipse cx="187.9" cy="576" class="st6" rx="3.4" ry="3.5" transform="rotate(-47.538 187.9243 575.9752)"/>
  <ellipse cx="180.4" cy="545.6" class="st6" rx="3.4" ry="3.5" transform="rotate(-47.538 180.4123 545.60371)"/>
  <ellipse cx="153.9" cy="556.1" class="st6" rx="3.4" ry="3.5" transform="rotate(-47.538 153.8931 556.08482)"/>
  <ellipse cx="124.4" cy="553.7" class="st6" rx="3.4" ry="3.5" transform="rotate(-47.538 124.3402 553.688)"/>
  <ellipse cx="98.5" cy="515.3" class="st6" rx="3.4" ry="3.5" transform="rotate(-47.538 98.48756 515.32142)"/>
  <ellipse cx="137.8" cy="506.9" class="st6" rx="3.4" ry="3.5" transform="rotate(-47.538 137.76238 506.90917)"/>
  <ellipse cx="92.4" cy="568.8" class="st6" rx="3.4" ry="3.5" transform="rotate(-47.538 92.40557 568.8095)"/>
  <ellipse cx="78.9" cy="588.9" class="st6" rx="3.4" ry="3.5" transform="rotate(-47.538 78.93634 588.8703)"/>
  <path d="M679.6 449.2c.2-.3-26.3-6.2-37.9-1.3-11.6 4.9-13.1 14.8-8.5 17.9 0 0 .1 6 7.5 8.6l-.4-2.8s5.2 4.6 9.2 2.3l-1.7-2s4 2.6 7.5.3l-2-2.2s3.5 1.6 8.5-.8l-2.7-2.4s3.7 1.3 8.4-2.3l-2.2-1.4s3.3-.5 7.5-4.6l-2.4-1.1c.1-.1 5.1-1.9 9.2-8.2z" class="st7"/>
  <path d="M668.3 451s-34.4 5.2-47.2 28.5" class="st7"/>
  <path d="M638.2 462.2c-3.5-3.3 1.5-8.8 1.5-8.8m-2.5 9.5s2.9 5.6 12.6 3.5m-1.6-17.1s-8.4 5.5-4.2 9.6m15 2.5s-11.1 2.2-12.7-3.5m10.7-9.6s-6 3-5 6.8m13.5 1.7s-7.2 3.6-11-2.3m11.8-5.7s-6.1 2.1-6.2 4.1m12.2.1s-9 1.3-10.4-.4m-40.2-36.8c.2-.3 13.4 17.1 13.8 27.3.4 10.1-6.4 14.6-10.2 12.3 0 0-4.4 1.9-8.8-2.6l2.2-.6s-5.1-2.2-4.8-6l2 .5s-3.3-2.1-2.8-5.4l2.3.7s-2.3-2-2.3-6.5l2.7 1.2s-2.2-2.3-1.2-6.9l1.8 1.1s-.8-2.6.8-7l1.7 1.4c0-.1-.4-4.5 2.8-9.5z" class="st7"/>
  <path d="M624.2 424.6s7.8 26.9-4.8 44.2" class="st7"/>
  <path d="M626.2 450.4c3.6 1.5 5.9-4 5.9-4m-6 5s-5.1-.2-6.8-8m12.9-4.7s-1.2 8-5.6 6.3m-6.8-10.1s2.2 8.8 6.9 8.1m3.3-11s-.1 5.4-3.3 6m-5.8-9.4s-.2 6.5 5.4 7.3m.2-10.6s.5 5.2-.9 6m-4.3-8.9s2.1 7 3.8 7.5m24.8 86.9c.8-4.8-4.8-18.8-18-16-16.1 3.4-10 2.7-17.3 1.7-6.6-.9-23.1 1.4-29.1 12.2-4.9 8.9-13.4 10.7-7.2 20.2 4.4 6.8 2.8 6.7 5.9 10.2 3.1 3.4 12.4 8.9 16.3 8 3.8-.9 10.6-7.1 15.5-2.2 7.1 7 14.2-14 5.9-18.7-5.3-3-1.6-7.8 1.5-1.2 4.9 10.3 13 16.2 19.9 5.7 3.9-6 7.4 2.9 11.7-4.8 4.6-8-6.4-7.4-5.1-15.1z" class="st7"/>
  <path fill="#ededed" stroke="#333" stroke-miterlimit="10" stroke-width=".3596" d="M597.9 509.7c12.8 7.6 44 9.8 39.3 2.4-4.3-6.8 15.5 2.9 16.7-5.5 1.2-8.4 6.1-7.2 4.3-13.1-1.8-6-5.1-5.6-7.1-10.1s2.1-11.5-9.8-14.6c-11.9-3.1-26.2 6.6-21.5 7.2 4.7.6 7.5-24-1.7-24.5-5.5-.3-3.5-3.8-7.2-5.9-7-4-13.1 2.8-15.6 1.1-3.1-2.2-15.7-2.2-16.5 12-.8 14.2-3.3 9-2.6 18.5.7 9.1 5.9 12.8 10.5 16.6 4.4 3.9-1.6 8.4 11.2 15.9z"/>
  <path d="M606.1 510.1c-3 13.7-10.1 28.4-19.4 24.4-3.3-1.4-7.1 11.4-15.3 4.9-8.1-6.5-9.9-.6-15-5.9-5-5.2-1.7-6.7-4-11.7-2.3-5-14.1-12.2-9.8-22.6 3.1-7.5 14.4-8.8 11.5-5.6-2.9 3.2-17.2-15.6-10.7-21.2 3.8-3.3 1.5-10.5 4.3-14.4 4.5-6.1 13.7-2.7 15.8-4.7 5.6-5.2 8.7-4.6 19.3 1 7.7 4.1 4 7.2 11.7 15.8 7.3 8.2 6.6 14.3 6.5 20.1-.2 5.8 8.1 6.2 5.1 19.9z" class="st7"/>
  <path d="M606.4 460.7c7.9 4.5 6.7 8.1 11.3 8.8 4.7.6 7.8 4.2 9.5 9.6 1.6 5.4 7 8.3 4.6 15.1-2.4 6.8-16.9 22-41.1 14.7-15.3-4.6-15.6-14.2-17-20.3-1.3-6.1-6.2-10.7-1.6-18.1 6.1-9.9 10.1-9.7 16.4-8.8 6.4.8 10-5.5 17.9-1z" class="st7"/>
  <path d="M600.3 526.9c3.9-.3 9.1 8.4 14.9 3.7 4-3.2-9.5-21-26.6-23.5-6.6-1-12.5-21.4-25.8-21.2-8 .1-2.1 34.7 8.9 31.8 0 0-4.1 11.9 28.6 9.2zm13.6-22.5c2.2-.2 5.4-1.6 6.2-3 1.6-2.7.3-4.1-6.6-1.8-9.7 3.2-13.1 3-21.2-.7-7.7-3.5-11.1-22.6-13.5-19.4-.2.3-.3.6-.3 1 0 2.6 1.4 14.6 16.2 20.8 11.7 4.8 14.8 3.5 19.2 3.1z" class="st7"/>
  <path d="M594.9 500.4c.2.2.4.4.7.5 2 .6 11.3 2.9 5.9-15.1-5.5-18.2-3.6-15.6-2.4-15.1 1.7.6 2.2.4 2.3 3.9.3 7.5-.1 21.9-2.2 23.4-2.4 1.7-5 1.4-4.3 2.4z" class="st7"/>
  <path d="M600.3 502.5c1.4-.5 2.7-1.3 3.7-2.4 9.8-10.5 12.8-11 12.8-11 3.6-1.5 3 .6 4.5-1 1.3-1.3 3.1 2-.5 2.8-2.2.4-2-.8-4.5.2-1.8.7-11.7 7.3-15.4 9.3-2.2 1.2-4.5.2-4.6-1-.2-4.6-2-5.1-5.6-11.3-5.7-9.6-2.9-8.7-2.9-9.7s-.2-.9-.1-1.2c.3-.4.5.1.7-.1s-.1-.2 0-.7c.2-.8.8.3 1.2 1.5 1.1 4 2.9 18.9 4.2 20.9 2.3 3.2 4.4 4.4 6.5 3.7z" class="st7"/>
  <path d="M583.2 495.6c-5-4.1-6.7-.5-9.1-2-4.2-2.5-1.3-5.8 5.8-1.7 4.2 2.4 5.8 6 9 7.1 6.9 2.2 12.5 1 16.3-4.6 4.9-7.4 7-15.9 8.1-16 1.5-.1 1.7-1.1.1-3.2-1.3-1.8-4.8 7.6-6.1 14.7-.8 4-.7 8.1-4.6 10-.8.4-9.1 4.1-19.5-4.3z" class="st7"/>
  <path d="M620.6 504.7c-2-1.9-7-4.2-23.3-7.4s-18.1-6.5-16-7.1c4.4-1.3 20.9 10 29.2 13.1 8.3 3 12 3.3 10.1 1.4z" class="st7"/>
  <path d="M854.6 658.3c-3.3-5.5-20.9-14.9-31.8-.7-13.3 17.2-7.7 11.3-15.9 16.5-7.4 4.7-22.1 21.2-18.8 37.2 2.7 13.2-4.4 22.2 10 26.5 10.3 3.1 8.6 4.3 14.7 5.2s20.1-1.6 23.3-5.9c3.1-4.2 4.5-16.2 13.7-15.6 13.1 1 2.3-26.2-10-23.9-7.9 1.5-8.3-6.5.5-2.5 13.8 6.2 26.9 5.1 24.9-11.3-1.2-9.4 9.9-3.4 7.7-14.9-2.4-11.9-13-1.9-18.3-10.6z" class="st1"/>
  <path d="M796.2 695.5c19.4-3.4 52.7-27.8 41.7-31.2-10.2-3.1 18.1-10.3 12.1-19.8s0-12.4-7-16.9c-7-4.5-9.9-1.3-15.8-4-5.9-2.8-7.8-13.4-22.4-6.3-14.7 7.1-20.8 29.1-15.5 25.7 5.2-3.4-12.9-30.6-22.6-23.2-5.8 4.4-6.7-.8-12.2.2-10.5 2-10.8 14-14.8 14.4-5 .5-17.7 11.2-6.4 26.2 11.3 15 4.4 11.9 13.2 20.9 8.5 8.6 16.9 7.8 24.8 7.8 7.8 0 5.5 9.6 24.9 6.2z" class="st0"/>
  <path d="M804.7 689c8.7 16.4 14.2 37.3 1.4 41.2-4.6 1.4 2.6 17.6-11.2 18s-10.5 7.9-20.2 6.9c-9.4-1-7.4-5.3-14-8.3-6.6-3-24.7-.3-29.3-14.3-3.3-10.2 7-21.2 6.8-15.5s-30.7-1-29-12.1c1-6.6-7.5-11.9-8-18.2-.7-10 11.4-14.5 11.9-18.3 1.2-10 4.8-12.1 20.3-15.6 11.3-2.5 10.2 3.8 25.2 5.9 14.4 2 18.9 8.8 23.8 14.7 4.9 5.8 13.7-.8 22.3 15.6z" class="st0"/>
  <path d="M762.7 638.9c11.8-2.3 13.7 2.5 18.9-.9 5.2-3.3 11.5-2.5 17.8 1.5 6.2 4 14.2 2.4 17.6 11.3s1.8 36.6-28.8 50c-19.4 8.4-27.8-.9-34.5-5.9-6.6-5-15.3-5.5-17.2-16.9-2.4-15.2 1.9-18.4 9-22.9 7.2-4.6 5.4-14 17.2-16.2z" class="st0"/>
  <path d="M813.2 710.9c3.6-3.6 16.4.6 18.2-9 1.2-6.7-27.5-13-46.9-.9-7.5 4.6-30.9-10.9-44.2.7-8 7 27.6 36.8 36.2 24.4.1 0 6.1 15.4 36.7-15.2zm-5.5-34.4c2-2.1 4.1-6.3 3.7-8.4-.7-4.1-3.2-4.4-8.2 3.8-7 11.6-10.6 14.2-21.9 17.4-10.8 3.1-30.5-13.2-30.2-8 0 .5.2.9.5 1.3 2.2 2.6 13.9 13.6 34.2 7.1 15.7-5 17.8-9 21.9-13.2z" class="st0"/>
  <path d="M785.1 688.7c.4.1.8 0 1.1-.1 2.5-1 13.9-6.8-7-20.3-21.1-13.6-17-12.6-15.4-13.2 2.2-.8 2.5-1.5 5.7 1.9 6.7 7.3 18.6 22.2 17.8 25.5-.8 4-3.7 5.9-2.2 6.2z" class="st0"/>
  <path d="M792.4 686.2c1-1.7 1.6-3.7 1.7-5.6.9-18.9 3.5-22 3.5-22 2.4-4.6 3.5-1.9 3.8-4.8.2-2.4 4.9-.6 1.9 3.2-1.8 2.3-2.7.9-4.3 4-1.2 2.3-5.5 17.4-7.5 22.5-1.2 3.1-4.4 4.1-5.5 2.9-4.2-4.4-6.4-3.5-15.3-6.6-13.9-4.8-10.3-6.3-11.2-7.2s-1-.7-1.1-1.2c-.1-.7.7-.3.6-.8 0-.4-.3-.2-.6-.8-.5-1 1.1-.4 2.4.5 4.6 3.1 19.1 16.6 22.1 17.4 4.8 1.6 8 1.1 9.5-1.5z" class="st0"/>
  <path d="M769.3 693.9c-8.6.2-7.2 5.2-10.9 5.8-6.5 1.1-6.3-4.7 4.4-6.7 6.2-1.2 11 1.1 15.1-.6 8.8-3.7 13.5-9.7 12.4-18.6-1.4-11.6-6.6-22-5.5-23.1 1.4-1.4.8-2.6-2.6-3.3-2.9-.7 1.7 11.7 6.5 20 2.7 4.7 6.2 8.8 3.9 14-.5 1.2-5.7 12.1-23.3 12.5z" class="st0"/>
  <path d="M814.8 671.1c-3.6-.2-10.6 1.7-29.8 12.5-19.2 10.8-23.9 9-22.3 6.5 3.3-5.1 29.6-7.8 40.6-11.8 11-4.1 15-7 11.5-7.2z" class="st0"/>
  <ellipse cx="748.9" cy="733.3" class="st2" rx="3.5" ry="3.4" transform="rotate(-48.685 748.88936 733.31461)"/>
  <ellipse cx="826.6" cy="645.9" class="st2" rx="3.5" ry="3.4" transform="rotate(-48.685 826.65155 645.89442)"/>
  <ellipse cx="824.9" cy="725.8" class="st2" rx="3.5" ry="3.4" transform="rotate(-48.685 824.89447 725.81979)"/>
  <ellipse cx="821.5" cy="680.3" class="st2" rx="3.5" ry="3.4" transform="rotate(-48.685 821.4714 680.27996)"/>
  <ellipse cx="792.2" cy="680.2" class="st2" rx="3.5" ry="3.4" transform="rotate(-48.685 792.16078 680.19789)"/>
  <ellipse cx="786.3" cy="640.1" class="st2" rx="3.5" ry="3.4" transform="rotate(-48.685 786.28042 640.04525)"/>
  <ellipse cx="751" cy="647.6" class="st2" rx="3.5" ry="3.4" transform="rotate(-48.685 750.98089 647.64054)"/>
  <ellipse cx="749.2" cy="677.3" class="st2" rx="3.5" ry="3.4" transform="rotate(-48.685 749.18247 677.24351)"/>
  <ellipse cx="711.3" cy="703.9" class="st2" rx="3.5" ry="3.4" transform="rotate(-48.685 711.34077 703.86419)"/>
  <ellipse cx="846.4" cy="679.2" class="st2" rx="3.5" ry="3.4" transform="rotate(-48.685 846.37597 679.234)"/>
  <ellipse cx="772.8" cy="699.9" class="st2" rx="3.5" ry="3.4" transform="rotate(-48.685 772.83923 699.90423)"/>
  <ellipse cx="785.3" cy="721.9" class="st2" rx="3.5" ry="3.4" transform="rotate(-48.685 785.28285 721.93012)"/>
  <path d="M1055 763.9c-.4.5-22.2-41.9-19.1-63.9 3.1-21.9 19.3-28.8 26.7-22.4 0 0 10.2-2.5 18 9l-5 .5s10.2 6.8 8 14.7l-4.1-2s6.2 5.7 3.9 12.7l-4.6-2.3s4.3 5.2 2.4 14.8l-5.3-3.6s3.9 5.7-.2 15.3l-3.4-3s.7 5.9-4.5 14.8l-3-3.6c-.1 0-1.1 9.4-9.8 19z" class="st0"/>
  <path d="M1052.9 743.9s-6.4-60.9 27.6-93" class="st0"/>
  <path d="M1058.7 687.7c-7.2-4.5-14.2 6.4-14.2 6.4m14.8-8.4s10.8 2.4 11.5 19.9m-29.6 4.9s5.6-16.7 14.5-11.4m10.8 24.5s-1.3-19.8-11.7-20m-11.5 22.3s2.4-11.6 9.3-11.6m9 22.4s3-13.9-8.7-17.7m-4.7 22.6s.8-11.3 4.2-12.4m5.8 20.6s-1.7-15.9-5.3-17.5m-10.4-57.8.9-3s-6.5 8.7-10.7 7.1l.9-3.4s-6.4 8.3-11 6.7l.3-2.4s-7.5 4.8-12.1 1.6l1.9-2.7s-1.1-2.5-5.6.6-8.3-2.7-13.8.1c-3.5 1.8 4.4-15.4 4.4-15.4l-3.1.6s3.3-6.7 6.8-7.5l-1.7-1.6s4.7-4.8 7.6-5.1l-3.1-.5s5.9-5.6 9.6-4.5l-3.1-.5s7.8-4.3 11.5-3.6l-3.8-.7c-.3 0 4.3-3.5 16.2-2.3 9.4 1 19.6 2.3 22.7 13.3 3.2 10.9-9.5 23.6-14.8 23.2z" class="st0"/>
  <path d="M1075 658.4s-35.3-24.9-72.9 12.6" class="st0"/>
  <path d="M1043 663.8s12.9-8.7 7.9-13.3l-4.1-.2s-1.8-7.7-11.2-5.3" class="st0"/>
  <path d="M1033.4 664.3s14-9.8 9.2-13.9m-5.4.7s-2.9-6.5-14.1-3.9m1.7 20.5s15-11.7 8.9-15.8m-7 2.2s-7-4.2-13.6-1.4m4.4 18s8.1-9.3 4-14.1m-5.1 2.9s-5.7-5.6-10.1-2.9m.7 17.6s8.1-10.7 4.5-11.4m-3.5 2.8s-5.7-2.9-7.6.2" class="st0"/>
  <path d="M1143 628.9c7.5 21.3 11 47.5-3.2 49.9-5.1.8.8 21.7-14.1 19.7s-12.2 7.7-22.5 4.7c-10-2.9-7.4-7.7-14.2-12.5-6.8-4.8-26.5-4.8-29.8-22.5-2.4-12.8 10-24.3 9.1-17.5s-32.9-6.7-29.8-19.8c1.8-7.8-6.8-15.7-6.5-23.4.4-12.2 14-15.4 14.9-19.9 2.4-11.8 6.5-13.7 23.6-15.1 12.4-1 10.5 6.4 26.5 11.6 15.3 5 19.3 14 23.9 22 4.5 7.9 14.7 1.4 22.1 22.8z" class="st1"/>
  <path d="M1200.4 592c-3.3-7-21.9-20.5-34.4-4.8-15.3 19.2-8.9 12.8-18.1 18-8.2 4.8-25 22.9-22.3 42.7 2.2 16.2-5.9 26.4 9.5 33.3 11 5 9.1 6.3 15.6 8.1 6.5 1.8 21.9.5 25.6-4.3 3.6-4.7 5.8-19.1 15.7-17.1 14.1 2.8 3.9-31.4-9.7-30.1-8.6.8-8.7-8.8.7-3 14.7 9.2 28.9 9.5 27.6-10.6-.8-11.5 10.9-2.9 9.1-17.1-2-14.6-14-3.8-19.3-15.1z" class="st0"/>
  <path d="M1135.2 629.9c21.2-1.7 58.5-27.1 46.7-32.6-10.8-5 20.1-10.2 14.1-22.5s.6-15-6.7-21.3c-7.3-6.2-10.7-2.8-16.9-6.8s-7.7-17.1-24-10.4c-16.3 6.8-24 32.6-18.1 29.2 5.9-3.4-12.4-38.6-23.3-30.9-6.4 4.6-7.3-1.8-13.3-1.2-11.5 1.1-12.4 15.7-16.7 15.6-5.4 0-19.8 11.3-8.2 30.9 11.6 19.5 4.1 14.9 13.3 26.9 8.7 11.5 17.9 11.5 26.4 12.4 8.5 1 5.5 12.4 26.7 10.7z" class="st0"/>
  <path d="M1101.8 557.3c12.9-1.3 14.7 4.7 20.6 1.3 5.8-3.4 12.6-1.5 19.2 4 6.6 5.6 15.2 4.6 18.5 15.8 3.3 11.2.1 44.5-33.7 56.9-21.4 7.8-30.1-4.5-37-11.4-6.9-6.9-16.3-8.5-17.7-22.5-1.8-18.7 3-22 10.9-26.6 7.8-4.7 6.3-16.2 19.2-17.5z" class="st0"/>
  <path d="M1158.8 637.4c2.6-5.4 17.9-3.2 16.3-15.6-1.2-8.6-34.6-9.3-51 10.4-6.3 7.6-37.5-5.9-47.4 11.7-6 10.6 43.5 38.8 48.3 21.4-.1 0 12.2 17.6 33.8-27.9zm-10-28.6c2.3-2.2 4.8-6.7 4.6-9.2-.5-4.8-3.2-5.3-9.1 3.5-8.3 12.5-12.4 15.1-24.8 17.6-11.9 2.4-32.1-18.2-32-12.3 0 .5.2 1.1.5 1.5 2.2 3.2 14.1 16.9 36.4 11.6 17.2-4 19.7-8.3 24.4-12.7z" class="st0"/>
  <path d="M1123.6 620.5c.4.1.8.1 1.2 0 2.8-.9 15.4-6.3-6.2-23.8-21.8-17.7-17.5-16.1-15.7-16.7 2.5-.7 2.8-1.5 6 2.8 6.8 9 18.6 27.2 17.6 30.9-1.3 4.3-4.5 6.3-2.9 6.8z" class="st0"/>
  <path d="M1131.6 618.4c1.2-1.9 1.9-4 2.2-6.2 2.2-21.5 5.2-24.8 5.2-24.8 2.9-5 3.9-1.8 4.4-5.1.4-2.7 5.3-.2 1.8 3.9-2.1 2.4-3 .7-5 4.2-1.4 2.5-7.1 19.3-9.6 25-1.5 3.4-5 4.2-6.1 2.8-4.2-5.5-6.7-4.6-16.1-9.1-14.7-6.9-10.7-8.2-11.6-9.4-.8-1.2-1.1-.9-1.1-1.4-.1-.8.7-.3.7-.8s-.3-.2-.6-1c-.5-1.2 1.2-.3 2.6.8 4.7 4 19.5 20.9 22.7 22.1 5.2 2.1 8.7 1.7 10.5-1z" class="st0"/>
  <path d="M1106.2 624.8c-9.2-.6-8.2 5.2-12.2 5.5-7 .6-6.5-6 5.2-7.2 6.8-.7 11.8 2.4 16.4.9 9.7-3.3 15.2-9.7 14.7-19.9-.7-13.4-5.7-25.8-4.4-26.9 1.6-1.4 1-2.9-2.6-4.1-3.1-1 1.1 13.5 5.7 23.5 2.6 5.6 6.2 10.7 3.3 16.4-.7 1.2-7.1 13.1-26.1 11.8z" class="st0"/>
  <path d="M1156.8 603.4c-3.9-.6-11.6.8-33 11.2-21.4 10.3-26.3 7.8-24.4 5.2 3.9-5.5 32.4-5.9 44.6-9.4 12.1-3.4 16.5-6.4 12.8-7z" class="st0"/>
  <ellipse cx="1186.1" cy="628.7" class="st9" rx="3.4" ry="3.5" transform="rotate(-56.489 1186.07964 628.6843)"/>
  <ellipse cx="1193.7" cy="596.1" class="st9" rx="3.4" ry="3.5" transform="rotate(-56.489 1193.67513 596.12028)"/>
  <ellipse cx="1157.3" cy="555.1" class="st9" rx="3.4" ry="3.5" transform="rotate(-56.489 1157.25872 555.08033)"/>
  <ellipse cx="1112.6" cy="564.7" class="st9" rx="3.4" ry="3.5" transform="rotate(-56.489 1112.60987 564.6519)"/>
  <ellipse cx="1116.5" cy="593.7" class="st9" rx="3.4" ry="3.5" transform="rotate(-56.489 1116.50097 593.69367)"/>
  <ellipse cx="1077.5" cy="605" class="st9" rx="3.4" ry="3.5" transform="rotate(-56.489 1077.52353 604.97384)"/>
  <ellipse cx="1051.4" cy="613.7" class="st9" rx="3.4" ry="3.5" transform="rotate(-56.489 1051.41246 613.6863)"/>
  <ellipse cx="1071.4" cy="659.2" class="st9" rx="3.4" ry="3.5" transform="rotate(-56.489 1071.4177 659.19428)"/>
  <ellipse cx="1089.8" cy="638.9" class="st9" rx="3.4" ry="3.5" transform="rotate(-56.489 1089.83848 638.91443)"/>
  <ellipse cx="1119.4" cy="636.7" class="st9" rx="3.4" ry="3.5" transform="rotate(-56.489 1119.41409 636.67902)"/>
  <ellipse cx="1150.9" cy="670.6" class="st9" rx="3.4" ry="3.5" transform="rotate(-56.489 1150.92047 670.55082)"/>
  <ellipse cx="1113.4" cy="685" class="st9" rx="3.4" ry="3.5" transform="rotate(-56.489 1113.44363 684.98057)"/>
  <ellipse cx="1108.2" cy="540.1" class="st9" rx="3.4" ry="3.5" transform="rotate(-56.489 1108.17605 540.1206)"/>
  <ellipse cx="1158.8" cy="594.9" class="st9" rx="3.4" ry="3.5" transform="rotate(-56.489 1158.78132 594.85339)"/>
  <path d="m1209.1 395.7.5-2.5s1.4 8.8 5.2 9.3l.6-2.8s1.5 8.5 5.5 9.1l.7-1.9s3.7 6.3 8.2 5.8l-.3-2.7s1.8-1.4 3.9 2.6c2.1 4 7.1 1.1 10.1 5.3 1.9 2.6 2.6-13 2.6-13l2 1.6s.1-6.2-2.2-8.1l1.9-.5s-1.6-5.3-3.7-6.6l2.5.8s-2.2-6.3-5.3-7l2.5.8s-4.1-6.1-7.1-7l3.1.9c.2.1-1.8-4.2-11.1-7.8-7.3-2.9-15.3-5.8-21.7 1.2-6.4 6.6-1.9 20.8 2.1 22.5z" class="st10"/>
  <path d="M1203.8 372.2c11.5 2.4 28.1 10.4 36.3 36.2" class="st10"/>
  <path d="M1212.8 387.6s-6.2-11.2-.8-12.8l3.1 1.4s4.2-5 10.2.4" class="st10"/>
  <path d="M1219.7 391.6s-6.6-12.5-1.5-13.7m3.7 2.6s4.6-3.7 11.8 2.5m-9 14.3s-6.6-14.3-.5-15m4.2 4.4s6.8-.5 10.5 4.1m-9.9 11.5s-2.4-9.9 2.4-11.9m2.6 4.1s6.3-2 8.5 1.7m-7.2 12.7s-1.9-11 1-10.1m1.5 3.4s5.3 0 5.6 3" class="st10"/>
  <path fill="#ededed" stroke="#333" stroke-miterlimit="10" stroke-width=".2637" d="M1163.2 348.7c6.1 12.8 30.8 29.8 31.3 21.2.5-7.9 11.1 10 17.3 3.4s9.5-3.2 11.6-9.2c2.1-6-.8-7.3.2-12.1s8.8-8.9.7-17.4c-8.1-8.5-25.9-7.1-22.4-4.3s21-17 13.6-21.9c-4.4-2.9-.6-4.9-2.4-8.5-3.4-6.9-12.7-4-13.7-6.6-1.3-3.4-11.8-9.5-21.1 2.3s-8.2 6.1-13.5 14.6c-5 8.2-2.9 13.9-1.4 19.4 1.4 5.4-6.3 6.3-.2 19.1z"/>
  <path d="M1202.3 380c3.6-3.7 7.5-18.5-5.3-22.5-15.5-4.9-10-2.5-15.5-6.9-4.9-4-20.2-10-31.8-3.6-9.5 5.3-17.8 2.7-18.4 13.8-.5 8-1.7 7.2-1.3 11.6.5 4.5 4.9 13.7 8.8 14.8 3.8 1.1 13.2-1 14.4 5.6 1.7 9.4 20.4-5.1 16.4-13.2-2.6-5.1 3.4-7.5 2-.3-2.2 11.3 1 20.2 13.2 14.6 6.9-3.2 4.4 6 12.8 1.6 8.5-4.7-1.1-9.5 4.7-15.5z" class="st10"/>
  <path d="M1165.7 353.2c-11.4 9.7-26.8 18.2-31.7 9.9-1.7-2.9-13.2 5.7-15.6-4-2.3-9.7-7.7-5.7-8.3-12.9-.6-6.9 3-6.4 4.4-11.8 1.4-5.3-3.4-17.6 6.9-23.9 7.4-4.5 17.4.4 13 1.4-4.4 1.1-3.7-22 5.2-23.2 5.3-.7 8.1-7.9 12.9-9.6 7.7-2.7 12.9 5 15.9 4.5 7.9-1.3 10.1.8 15 11 3.6 7.5-1.5 8-.9 19.2.6 10.7-4.1 15.3-7.9 20.1s2.6 9.6-8.9 19.3z" class="st10"/>
  <path d="M1200.3 310.6c3.9 7.7.6 10.2 4.1 13s4 7.5 2.1 12.9.8 10.6-5.4 15.3c-6.1 4.7-27.6 10.7-43.3-7.3-10-11.4-4.4-19.8-1.8-25.7 2.6-5.9 1.4-12.2 9.7-16.4 11.2-5.6 14.4-3.4 19.1.4s11.6.1 15.5 7.8z" class="st10"/>
  <path d="M1164.2 365c4 .3 6.3 10.3 13.6 6.4 5.1-2.8-2.5-23.7-18.6-29.1-6.2-2.1-5.3-24.6-18.6-26.6-8-1.2-13.7 36.2-1.7 35-.1 0-8.1 11.8 25.3 14.3zm15.3-13c1.9.9 5.3 1.4 6.8.6 2.8-1.4 2.5-3.2-4.3-4.8-9.8-2.2-12.3-4.1-16.8-11.2-4.3-6.8 3.6-24.2-.1-22.8-.3.1-.6.4-.8.7-1.5 2.1-7.1 12.8 1.5 25.3 6.6 9.9 9.9 10.4 13.7 12.2z" class="st10"/>
  <path d="M1166.3 339.2c0 .3.1.5.3.8 1.2 1.5 7.6 8 13.3-9.5 5.8-17.8 5.8-14.7 6.6-13.7 1 1.4 1.6 1.4-.3 4.4-4 6.4-12.4 18-14.9 18.3-3.1.1-5.1-1.4-5-.3z" class="st10"/>
  <path d="M1169.5 343.7c1.4.3 2.9.2 4.4-.1 13.8-3.8 16.6-2.7 16.6-2.7 3.8.6 2.1 2 4.2 1.5 1.8-.4 1.4 3.2-2 2.1-2-.7-1.2-1.7-3.8-2.1-1.9-.3-13.6.2-17.8 0-2.5-.1-3.8-2.1-3.2-3.1 2.4-3.9 1.3-5.3 1.8-12.1.8-10.7 2.5-8.6 3.1-9.4.5-.8.3-.9.6-1 .5-.2.4.4.7.2s.1-.2.5-.6c.6-.6.5.7.1 1.8-1.4 3.9-8.3 17.1-8.3 19.4-.1 3.5 1 5.6 3.1 6.1z" class="st10"/>
  <path d="M1159.4 329.5c-1.8-5.9-5.2-3.8-6.3-6.2-2-4.2 2.2-5.5 5.7 1.5 2.1 4 1.3 7.9 3.4 10.4 4.3 5.2 9.6 7.1 15.9 4.3 8.2-3.6 14.6-9.7 15.6-9.2 1.3.6 2 0 1.9-2.6-.1-2.2-8.1 3.9-13.2 9.1-2.9 3-5.2 6.4-9.3 6-1-.1-9.9-1.3-13.7-13.3z" class="st10"/>
  <path d="M1184.8 355.7c-.5-2.5-3.3-7-14.8-17.8s-11.1-14.5-9.1-13.9c4.3 1.1 11.4 18.7 16.5 25.4 5 6.7 7.9 8.8 7.4 6.3z" class="st10"/>
  <ellipse cx="1147.1" cy="291" class="st12" rx="3.1" ry="3" transform="rotate(-36.46 1147.00588 290.9467)"/>
  <ellipse cx="1141.5" cy="330.7" class="st12" rx="3.1" ry="3" transform="rotate(-36.46 1141.47121 330.70729)"/>
  <ellipse cx="1166.7" cy="336.3" class="st12" rx="3.1" ry="3" transform="rotate(-36.46 1166.63097 336.23566)"/>
  <ellipse cx="1164.3" cy="371.8" class="st12" rx="3.1" ry="3" transform="rotate(-36.46 1164.21155 371.81585)"/>
  <ellipse cx="1196" cy="371.9" class="st12" rx="3.1" ry="3" transform="rotate(-36.46 1195.94556 371.85251)"/>
  <ellipse cx="1203.1" cy="346.8" class="st12" rx="3.1" ry="3" transform="rotate(-36.46 1203.00145 346.76478)"/>
  <ellipse cx="1119.9" cy="327" class="st12" rx="3.1" ry="3" transform="rotate(-36.46 1119.87222 326.97835)"/>
  <ellipse cx="1136.1" cy="373.1" class="st12" rx="3.1" ry="3" transform="rotate(-36.46 1136.08183 373.08328)"/>
  <ellipse cx="1180.4" cy="301.7" class="st12" rx="3.1" ry="3" transform="rotate(-36.46 1180.3061 301.65286)"/>
  <path d="M1096.7 227.4c-.1.5-33.2-16.5-41.2-31.9-8-15.4-.8-27.1 6.7-26.4 0 0 5.3-6.2 15.5-2.5l-2.9 2.6s9.6-.3 11.7 5.7l-3.5.6s6.6.8 8.2 6.3l-4 .6s5.1 1.4 8.3 8.3l-5 .1s5.1 1.9 6.8 9.9l-3.5-.4s3.1 3.4 3.9 11.4l-3.6-.9c.1.1 3.8 6.5 2.6 16.6z" class="st0"/>
  <path d="M1086.2 215.6s-31.8-35.7-24.8-71.6" class="st0"/>
  <path d="M1064.4 177.3c-6.6.4-6.1 10.5-6.1 10.5m5.6-12.1s8-3.4 16.4 7.4m-16.7 16.6s-4.1-13.2 4-13.8m18.1 10.7s-9.8-12-16.5-7.4m2.8 19.3s-3.8-8.4.7-11.6m15.8 10.1s-4.4-10.2-13.6-7.3m7.3 16.6s-4.7-7.6-3-9.8m13.1 10.5s-8.3-9.3-11.3-8.7" class="st0"/>
  <g>
    <path d="m1048.1 176.3-.8-2.3s-.2 8.4-3.6 9.4l-.9-2.6s-.2 8.2-3.9 9.2l-.9-1.7s-2.6 6.4-6.9 6.5l-.1-2.6s-1.8-1.1-3.3 2.9-6.5 2-8.7 6.3c-1.4 2.7-4.2-11.8-4.2-11.8l-1.7 1.8s-.9-5.8 1-7.9l-1.8-.2s.7-5.2 2.5-6.7l-2.2 1.1s1.2-6.2 4.1-7.2l-2.2 1.1s3-6.3 5.7-7.5l-2.7 1.3c-.2.1 1.1-4.2 9.3-8.8 6.4-3.7 13.5-7.5 20.5-1.8 6.6 5.5 4.3 19.3.8 21.5z" class="st0"/>
    <path d="M1061.4 151.2s-33.8.2-40.5 41.2" class="st0"/>
    <path d="M1043.5 169.2s4.2-11.3-1-12.1l-2.7 1.7s-4.6-4.1-9.5 1.8" class="st0"/>
    <path d="M1037.7 173.9s4.4-12.6-.5-13m-3.2 3s-4.8-2.8-10.8 3.9m10.5 12.1s4.2-14.3-1.5-14.1m-3.4 4.7s-6.4.5-9.3 5.3m10.9 9.4s.9-9.6-3.9-10.8m-1.9 4.2s-6.2-1-7.8 2.8m8.6 10.8s.3-10.5-2.3-9.3m-1 3.4s-4.9.7-4.8 3.6" class="st0"/>
  </g>
  <g>
    <path d="M1091.1 101.5c14.4 10.2 28.6 25.2 20.7 33.1-2.8 2.9 10.4 13.4 0 18.9-10.4 5.5-4.2 10.4-12.2 13.2-7.7 2.7-8.2-1.5-14.7-1.5s-19 9-29.2-.7c-7.4-7.1-4.7-19.9-2.2-15.2s-23.9 10.7-27.9.9c-2.4-5.8-11.4-6.9-14.8-11.9-5.3-7.9 1.9-16.1.4-19.4-3.9-8.6-2.1-11.7 8.1-20.3 7.4-6.3 9.6-.7 22.1-4.7 12-3.8 18.6.1 25.2 3.1 6.6 3.1 10.1-5.6 24.5 4.5z" class="st1"/>
    <path d="M1110.8 52c-5.3-3-23.2-3.1-24.1 12.6-1 19.1.1 12.2-3.3 19.7-3.1 6.8-5.4 25.9 5.3 37.2 8.8 9.3 8.3 19.4 21.2 16.9 9.2-1.8 8.7-.1 13.6-2 4.9-1.8 14.1-9.6 14.3-14.4.2-4.6-5-14.7 2.2-18 10.2-4.7-11.8-21.7-19.8-14.7-5.1 4.4-9.5-1.7-.9-2.2 13.5-.8 22.7-7.1 12.7-19.3-5.7-7 5.6-6.8-2-15-8-8.3-10.7 4-19.2-.8z" class="st0"/>
    <path d="M1086.7 105.8c12.7-10.7 24.8-43.8 14.8-41.9-9.2 1.7 8.1-15.6-1.3-20.7s-6.4-9.8-13.9-10.5c-7.5-.6-8 3.1-13.8 3.3-5.8.3-12.7-7.4-19.9 4.3-7.3 11.7-.4 31.6 1.8 26.8s-25.5-18.9-28.9-9c-2 5.8-5.4 2.2-9 5.3-6.8 6-.8 15.6-3.5 17.5-3.5 2.5-7.4 16.2 8.8 23.3 16.2 7.2 9.4 7.6 20.7 11 10.8 3.3 16.7-.8 22.4-4.1s9.1 5.4 21.8-5.3z" class="st0"/>
    <path d="M1032.4 74.8c7.6-6.7 11.5-3.7 13.6-8.5 2.2-4.8 7.3-6.7 14-6.2 6.7.6 11.8-4 18.9 1.6 7.2 5.6 20.3 28.2 4.4 51.5-10.1 14.7-21.2 10.8-28.7 9.6-7.5-1.2-14.3 2-21.5-6.2-9.7-11-8.1-15.4-5.2-21.9 3.1-6.5-3.1-13.2 4.5-19.9z" class="st0"/>
    <path d="M1105 99.8c-.8-4.6 9.9-10.2 3.2-17.3-4.6-4.9-26.2 9.8-27.6 29.8-.6 7.7-26.5 13.3-24.8 29 1 9.4 45.3 4.8 40.4-8.4 0 0 15.8 5.6 8.8-33.1zm-19.3-13.6c.5-2.4 0-6.5-1.3-7.9-2.5-2.8-4.4-1.9-4.2 6.3.4 11.7-1 15.2-7.8 22.5-6.5 6.9-28.6 3.1-25.9 6.8.2.3.6.6 1 .7 2.8 1 16.7 4.3 28.4-9.2 9.2-10.4 8.8-14.3 9.8-19.2z" class="st0"/>
    <path d="M1075 105.1c.3-.1.6-.3.8-.6 1.3-1.8 6.9-11.1-14.8-12.3-21.9-1.3-18.5-2.3-17.5-3.4 1.2-1.6 1.1-2.2 5.1-1 8.4 2.7 24.2 8.8 25.2 11.6 1.1 3.4-.1 6.1 1.2 5.7z" class="st0"/>
    <path d="M1079.2 100.1c-.1-1.7-.6-3.4-1.4-4.9-8.4-14.6-7.9-18.1-7.9-18.1-.4-4.5 1.6-2.9.4-5.3-1-1.9 3.3-2.5 2.9 1.6-.2 2.5-1.6 1.8-1.3 4.9.2 2.2 4.2 15.5 5.3 20.2.6 2.8-1.3 4.9-2.6 4.5-5.2-1.6-6.4.1-14.3 1.6-12.4 2.3-10.6-.3-11.6-.7-1.1-.4-1.1-.1-1.4-.4-.4-.5.3-.5.1-.8s-.3 0-.8-.3c-.9-.5.6-.8 2-.7 4.8.4 21.9 4.4 24.5 3.8 4.1-1.1 6.1-2.9 6.1-5.4z" class="st0"/>
    <path d="M1065.9 115.7c-6.2 3.8-2.8 7-5.2 9-4.2 3.5-6.9-.9 0-7 4-3.5 8.6-3.8 10.8-6.9 4.7-6.5 5.2-13.1.2-19.3-6.6-8.2-15.3-13.8-15.1-15.1.4-1.6-.6-2.3-3.5-1.4-2.4.8 6.8 8.1 14.3 12.3 4.2 2.4 8.8 4 9.6 8.9.2 1.3 1.6 11.7-11.1 19.5z" class="st0"/>
    <path d="M1088.3 79.1c-2.7 1.4-7 5.8-15.9 22.1s-13.2 16.9-13.2 14.4c0-5.2 17.9-18.5 24-26.2 6.3-7.7 7.7-11.6 5.1-10.3z" class="st0"/>
  </g>
  <g>
    <ellipse cx="1073" cy="47.9" class="st13" rx="3.5" ry="3.4" transform="rotate(-84.986 1072.93862 47.9158)"/>
    <ellipse cx="1117.2" cy="64.3" class="st13" rx="3.5" ry="3.4" transform="rotate(-84.986 1117.16494 64.31544)"/>
    <ellipse cx="1021.4" cy="94.5" class="st13" rx="3.5" ry="3.4" transform="rotate(-84.986 1021.36012 94.45193)"/>
    <ellipse cx="1051.1" cy="129.1" class="st13" rx="3.5" ry="3.4" transform="rotate(-84.986 1051.07321 129.13087)"/>
    <ellipse cx="1074.8" cy="111.9" class="st13" rx="3.5" ry="3.4" transform="rotate(-84.986 1074.74286 111.85085)"/>
    <ellipse cx="1103.3" cy="140.7" class="st13" rx="3.5" ry="3.4" transform="rotate(-84.986 1103.24972 140.71947)"/>
    <ellipse cx="1127.2" cy="113.7" class="st13" rx="3.5" ry="3.4" transform="rotate(-84.986 1127.20492 113.70527)"/>
    <ellipse cx="1111.2" cy="88.8" class="st13" rx="3.5" ry="3.4" transform="rotate(-84.986 1111.12418 88.76981)"/>
    <ellipse cx="1031.6" cy="144.7" class="st13" rx="3.5" ry="3.4" transform="rotate(-84.986 1031.61887 144.72708)"/>
    <ellipse cx="1065.8" cy="159.6" class="st13" rx="3.5" ry="3.4" transform="rotate(-84.986 1065.76293 159.64445)"/>
    <ellipse cx="1055.6" cy="74.1" class="st13" rx="3.5" ry="3.4" transform="rotate(-84.986 1055.56985 74.14206)"/>
  </g>
  <g>
    <path d="M742.3 219.5c-1.2-1.7-4-7.3-4.5-10.2 0-.2-.1 3.2-.5 2.2-1.3-2.6-1.2-10.7-1.6-12.4 0 0-.5 3.1-.9.9-.9-6 .4-11.5 6.6-16.8 0 0 6.4-5.6 17-1.8 2.5.9-4.4 1.3-1 1.6 2.2.1 5.7 1.3 7.6 2.7.8.6 1.7 1.2 2.5 1.8 1.1.9-3.9.4-2.5.6 1.7.3 5.2 1.8 8.6 5.5.7.7 1.2 1.6 1.8 2.4.9 1.3-3.5-1.3-2.3-.3 1.4 1.1 5.7 7.4 6.1 8.9.3 1.5-3-2.7-2.4-1.3.7 1.9 3.3 9.1 3.2 10.6 0 1.1-1.8-2-1.5-.6.4 2.8.4 8.6.3 10.3 0 .1-.2.2-.3.1l-1.1-2.1-1 10.7c-3.3 0-10-1.1-11.5-2.4-.8-.7 1.8 1.7.5 1.5-2.6-.4-8.2-3.3-9.1-4.2-.6-.6 1.8 2.4 1 2.1-.8-.3-7.7-3.8-10.4-7.6-1-1.4.8 2.2.1 1.7-2.5-1.7-4-2.9-4.7-3.9z" class="st0"/>
    <path d="M770.3 224.8s-40.6-40.5-38.6-60.9" class="st0"/>
    <path d="M773.7 218.2s-6.9-2.8-9.8-.2m8.8-8.4s-11.9-9.6-19.9-4.6m12.2-10.8s-15-5.6-20.3.4m20.6 32.6s-1.4-3.8.6-7.1m-8.4 1.2c0-.2-3.3-5.7.3-10.1m-10.3 3.3s-3.8-6.6.8-14.9m-7.3 2s-2.7-7.1.6-11.6" class="st0"/>
  </g>
  <g>
    <path d="M822.3 115.2c0-7.6-11-27.1-28.9-17.6-21.7 11.6-13.3 8.2-23.7 9.4-9.4 1.1-31.9 11.2-37.7 30.2-4.8 15.6-16.2 21.7-5.4 33.9 7.7 8.7 5.5 9.3 10.6 13.4s19.3 8.9 24.7 5.9c5.2-2.9 13.1-15.1 21.2-9.6 11.5 7.9 16.5-27.1 3.9-31.1-8-2.6-4.1-11.4 1.8-2.5 9.3 14 21.9 19.8 29.1 1 4.1-10.8 11 1.5 15.3-12 4.5-14-10.8-8.8-10.9-21z" class="st1"/>
    <path d="M755.6 126.6c-2.2 22.3-9.9 47.4-23.7 44.1-4.9-1.2-8.3 20-20.8 12.5s-14.1 2.3-22.1-4.4c-7.8-6.5-3.4-9.9-7.5-16.9s-21.8-14.5-17.3-32c3.2-12.6 19-18.2 15.4-12.4S653 98.8 661.3 88.1c4.9-6.4.5-16.9 3.9-23.8 5.5-11 18.9-8.6 21.6-12.4 7.1-9.8 11.6-10 27.5-4.7 11.5 3.9 6.7 9.9 18.9 20.8 11.6 10.4 11.5 20.2 12.2 29.2s12.4 7.1 10.2 29.4z" class="st1"/>
    <path d="M748.2 124.6c19.7 6.6 63.7-2.2 55.4-11.7-7.6-8.8 22.2-1.6 22-15s6.8-13.4 2.9-21.9c-4-8.5-8.4-6.6-12.3-12.7s.2-18.5-17.2-18.7c-17.4-.1-35 20.4-28.4 19.6 6.7-.9 4.9-39.9-8.1-37-7.7 1.7-5.8-4.4-11.4-6.2-10.8-3.4-17.6 9.5-21.5 7.8-4.9-2.1-22.4 2.7-20.2 24.9s-2.5 15.1.7 29.6c3 13.8 11.3 17.4 18.5 21.5 7.3 3.9-.1 13.1 19.6 19.8z" class="st0"/>
    <path d="M748.6 45.6c12.1 3.8 11.2 9.9 17.9 9.1 6.6-.8 12 3.5 15.5 11.1s11.7 10.1 10 21.5-18.5 40.5-54 38.7c-22.4-1.1-25.1-15.7-28.4-24.6-3.3-8.9-11.1-14.1-6.5-27.3 6.1-17.7 11.9-18.9 20.9-20 9-1.2 12.5-12.3 24.6-8.5z" class="st0"/>
    <path d="M766.2 140.4c4.5-3.9 17.4 3.9 21-7.9 2.5-8.2-27.1-21.8-50-10.1-8.8 4.5-31.1-19.8-47.4-7.6-9.8 7.3 22.8 52 34.3 38 .1-.1 3.8 20.7 42.1-12.4zm3-29.8c3-1.1 7.1-4.3 7.9-6.6 1.6-4.5-.7-6.1-9.6-.3-12.7 8.2-17.4 9-29.5 6.5-11.6-2.4-21.2-28.9-23.6-23.5-.2.5-.3 1-.2 1.6.6 3.8 5.6 20.8 27.7 24.6 17.2 2.8 21.2-.1 27.3-2.3z" class="st0"/>
    <path d="M741.7 111.5c.3.3.7.4 1.1.4 2.9.2 16.5.2 4.4-24.1-12.2-24.5-9-21.4-7.1-21.2 2.5.3 3.1-.3 4.2 4.9 2.3 10.8 5.3 31.9 2.9 34.8-3 3.6-6.7 4.1-5.5 5.2z" class="st0"/>
    <path d="M749.8 112.7c1.9-1.2 3.4-2.9 4.5-4.8 10.9-18.7 15-20.5 15-20.5 4.7-3.5 4.2-.2 6.1-3 1.5-2.3 4.8 1.9 0 4.2-2.9 1.4-3-.5-6.2 1.9-2.3 1.7-14.4 14.8-19 19-2.8 2.5-6.2 1.9-6.6.2-1.5-6.6-4.1-6.8-10.6-14.4-10.3-11.9-6.2-11.6-6.5-13-.3-1.4-.6-1.2-.4-1.7.3-.7.8 0 1-.5.2-.5-.2-.3-.1-1.1 0-1.3 1.2.2 2 1.7 2.5 5.5 8.8 26.5 11.1 28.9 3.7 3.8 6.9 4.9 9.7 3.1z" class="st0"/>
    <path d="M724.4 108.8c-8-4.1-9.5 1.6-13.2.3-6.5-2.2-3.3-8 7.7-4.6 6.4 2 9.5 6.7 14.3 7.1 10.1.8 17.7-3 21.4-12.5 4.9-12.5 5.7-25.7 7.2-26.2 2-.7 2.1-2.2-.6-4.7-2.3-2.2-4.7 12.7-4.7 23.5 0 6.1 1.1 12.1-3.8 16.2-1.2 1-11.9 9.3-28.3.9z" class="st0"/>
    <path d="M778.5 108.7c-3.2-2-10.7-3.7-34.2-2.5-23.5 1.2-26.8-3-24.1-4.7 5.8-3.5 31.5 7.1 43.8 8.6 12.4 1.6 17.7.6 14.5-1.4z" class="st0"/>
  </g>
  <g>
    <path d="m652.2 140 1.8-1.8s-8 3.6-10.4.8l2-2s-7.8 3.4-10.4.4l1.2-1.6s-7.2.4-9.2-3.6l2.4-1.2s.2-2.2-4.2-1.8c-4.4.4-4.8-5.2-9.8-5.4-3.2-.1 9.2-9.2 9.2-9.2l-2.4-.8s5-3.4 7.8-2.6l-.6-1.8s5.2-1.6 7.4-.6l-2-1.6s6.4-1.6 8.6.6l-2-1.6s7.2 0 9.6 2l-2.4-2c-.2-.1 4.4-.8 12.4 4.8 6.3 4.4 13 9.4 10.8 18.4-2.2 9-16.2 13-19.8 10.6z" class="st0"/>
    <path d="M681.6 141.4s-15.2-31.7-56.7-19.8" class="st0"/>
    <path d="M656.8 132.6s12.5-1.1 10.9-6.3l-2.8-1.7s1.8-6.2-5.9-8.2" class="st0"/>
    <path d="M649.8 129.2s13.8-1.4 12-6.2m-4.2-1.7s.5-5.8-8.5-8.4m-6.8 15.3s15.3-2.4 12.5-7.7m-5.8-1.1s-3.3-5.8-9.1-6.4m-4 14.4s9.4-3.4 8.4-8.4m-4.7 0s-1.8-6.3-6.1-6.1m-6.4 12.9s10-4.4 7.7-6.3m-3.6.6s-2.9-4.3-5.5-2.9" class="st0"/>
  </g>
  <g>
    <ellipse cx="774.1" cy="166.7" class="st14" rx="3.4" ry="3.5" transform="rotate(-55.503 774.08003 166.73314)"/>
    <ellipse cx="675.9" cy="86.7" class="st14" rx="3.4" ry="3.5" transform="rotate(-55.503 675.88134 86.71594)"/>
    <ellipse cx="672.6" cy="127.3" class="st14" rx="3.4" ry="3.5" transform="rotate(-55.503 672.55385 127.28765)"/>
    <ellipse cx="705.3" cy="166.9" class="st14" rx="3.4" ry="3.5" transform="rotate(-55.503 705.2613 166.93535)"/>
    <ellipse cx="750.1" cy="158.1" class="st14" rx="3.4" ry="3.5" transform="rotate(-55.503 750.0821 158.13877)"/>
    <ellipse cx="746.7" cy="129" class="st14" rx="3.4" ry="3.5" transform="rotate(-55.503 746.68456 129.0182)"/>
    <ellipse cx="785.9" cy="118.4" class="st14" rx="3.4" ry="3.5" transform="rotate(-55.503 785.84795 118.41106)"/>
    <ellipse cx="812.2" cy="110.2" class="st14" rx="3.4" ry="3.5" transform="rotate(-55.503 812.10967 110.15128)"/>
    <ellipse cx="803.9" cy="69.5" class="st14" rx="3.4" ry="3.5" transform="rotate(-55.503 803.8734 69.51513)"/>
    <ellipse cx="774.1" cy="84.3" class="st14" rx="3.4" ry="3.5" transform="rotate(-55.503 774.1027 84.26412)"/>
    <ellipse cx="744.6" cy="86" class="st14" rx="3.4" ry="3.5" transform="rotate(-55.503 744.5172 85.99723)"/>
    <ellipse cx="713.6" cy="51.6" class="st14" rx="3.4" ry="3.5" transform="rotate(-55.503 713.5856 51.58348)"/>
    <ellipse cx="751.3" cy="37.8" class="st14" rx="3.4" ry="3.5" transform="rotate(-55.503 751.30352 37.8023)"/>
    <ellipse cx="807.3" cy="145.9" class="st14" rx="3.4" ry="3.5" transform="rotate(-55.503 807.29587 145.90724)"/>
    <ellipse cx="704.5" cy="127.2" class="st14" rx="3.4" ry="3.5" transform="rotate(-55.503 704.4183 127.14819)"/>
  </g>
  <g>
    <ellipse cx="549.1" cy="476.1" class="st6" rx="3.4" ry="3.5" transform="rotate(-47.538 549.11954 476.16625)"/>
    <ellipse cx="598.2" cy="547.2" class="st6" rx="3.4" ry="3.5" transform="rotate(-47.538 598.14927 547.26311)"/>
    <ellipse cx="598.8" cy="522.9" class="st6" rx="3.4" ry="3.5" transform="rotate(-47.538 598.83104 522.9592)"/>
    <ellipse cx="639.1" cy="517.9" class="st6" rx="3.4" ry="3.5" transform="rotate(-47.538 639.09257 517.89016)"/>
    <ellipse cx="651.2" cy="497.3" class="st6" rx="3.4" ry="3.5" transform="rotate(-47.538 651.2308 497.34484)"/>
    <ellipse cx="632.2" cy="482.4" class="st6" rx="3.4" ry="3.5" transform="rotate(-47.538 632.19864 482.44034)"/>
    <ellipse cx="602.6" cy="480" class="st6" rx="3.4" ry="3.5" transform="rotate(-47.538 602.63904 480.05073)"/>
    <ellipse cx="586.8" cy="451.7" class="st6" rx="3.4" ry="3.5" transform="rotate(-47.538 586.7953 451.68821)"/>
    <ellipse cx="557.2" cy="515.2" class="st6" rx="3.4" ry="3.5" transform="rotate(-47.538 557.2425 515.23978)"/>
  </g>
</svg>
