<svg version="1.1" id="Layer_1" xmlns="http://www.w3.org/2000/svg" x="0" y="0" viewBox="0 0 91.89 91.89" style="enable-background:new 0 0 91.89 91.89" xml:space="preserve">
  <path d="M90.15 41.85 50.04 1.73c-2.31-2.31-6.06-2.31-8.37 0l-8.33 8.33L43.9 20.63c2.46-.83 5.27-.27 7.23 1.68 1.97 1.97 2.52 4.81 1.67 7.27l10.19 10.18c2.46-.85 5.31-.3 7.28 1.67 2.75 2.75 2.75 7.21 0 9.96-2.75 2.75-7.21 2.75-9.96 0-2.07-2.07-2.58-5.11-1.53-7.66l-9.5-9.5v25c.67.33 1.3.77 1.86 1.33 2.75 2.75 2.75 7.21 0 9.96-2.75 2.75-7.21 2.75-9.96 0-2.75-2.75-2.75-7.21 0-9.96.68-.68 1.47-1.19 2.31-1.54V33.81c-.84-.34-1.62-.85-2.31-1.54-2.08-2.08-2.58-5.14-1.52-7.7L29.24 14.16 1.73 41.66c-2.31 2.31-2.31 6.06 0 8.37l40.12 40.12c2.31 2.31 6.06 2.31 8.37 0l39.93-39.93c2.32-2.31 2.32-6.06 0-8.37z"/>
</svg>
