<?xml version="1.0" encoding="utf-8"?>
<!-- Generator: Adobe Illustrator 26.0.2, SVG Export Plug-In . SVG Version: 6.00 Build 0)  -->
<svg version="1.1" id="Layer_1" xmlns="http://www.w3.org/2000/svg" xmlns:xlink="http://www.w3.org/1999/xlink" x="0px" y="0px"
	 viewBox="0 0 1280 7600" style="enable-background:new 0 0 1280 7600;" xml:space="preserve">
<style type="text/css">
	.st0{fill:none;stroke:#003818;stroke-width:0.5;stroke-miterlimit:10;}
</style>
<path class="st0" d="M289.32,0c-397.72,763.51,356.4,171.76,552.02,489.5S274.8,930.02,170.93,755.53
	C104.42,643.8,429.8,639.5,323.8,829.5s-43.79,375.63,134.45,239.95c176.18-134.11,163.94,109.41,77.15,247.41
	c-266.03,422.99,457.58,247.41,484.18,449.6c36.29,275.79-674.49,209.99-776.82,242.09c-135.68,42.57-227.75,201.08,106.41,348.5
	c271.35,119.71,544.82-12.62,379.8-61.19c-153.67-45.23,0,266.03-63.22,393.73c-58.71,118.59-432.67,83.49-476.2,332.54
	c-47.89,274.01,781.7-177.48,880.57,202.19c66.51,255.39-654.44,50.55-574.63,433.63c58.34,280.02,848.87,197.48,702.33,42.57
	c-186.22-196.86-57.68,412.19-380.43,377.77c-349.17-37.24-679.32-91.17-420.33,199.52c130.36,146.32-311.26,98.43-234.11,372.45
	c76.17,270.53,953.39,101.33,1000.28,468.22c24.75,193.64-914.84,264.74-1032.99,152.16c-137.05-130.59,38.03-274.54,102.07-11.18
	c77.43,318.38,531.87,252.95,749.71,340.09c119.59,47.84,275.61,225.4,153.28,395.71c-101.76,141.66-200.85,71.83-278,171.59
	c-53.54,69.23,82.47,179.57,134.6,69.54c59.66-125.94-693.12-244.39-841.35,101.76c-114.62,267.65,203.68,425.02,106.85,501.1
	c-111.73,87.79-40.5-153.02,101.76-201.52c438.95-149.64,715.82,224.74,710.31,397.05c-7.98,249.41-778.15,83.8-881.9,305.27
	C53.99,7625.16,1037.53,7600,1037.53,7600"/>
</svg>
