<svg version="1.1" id="Layer_1" xmlns="http://www.w3.org/2000/svg" x="0" y="0" viewBox="0 0 1280 7600" style="enable-background:new 0 0 1280 7600" xml:space="preserve">
  <path d="M289.3 0c-397.7 763.5 356.4 171.8 552 489.5S274.8 930 170.9 755.5c-66.5-111.7 258.9-116 152.9 74s-43.8 375.6 134.5 239.9c176.2-134.1 163.9 109.4 77.2 247.4-266 423 457.6 247.4 484.2 449.6 36.3 275.8-674.5 210-776.8 242.1C107.1 2051.1 15 2209.6 349.2 2357c271.4 119.7 544.8-12.6 379.8-61.2-153.7-45.2 0 266-63.2 393.7-58.7 118.6-432.7 83.5-476.2 332.5-47.9 274 781.7-177.5 880.6 202.2 66.5 255.4-654.4 50.6-574.6 433.6 58.3 280 848.9 197.5 702.3 42.6-186.2-196.9-57.7 412.2-380.4 377.8-349.2-37.2-679.3-91.2-420.3 199.5 130.4 146.3-311.3 98.4-234.1 372.5 76.2 270.5 953.4 101.3 1000.3 468.2 24.8 193.6-914.8 264.7-1033 152.2-137.1-130.6 38-274.5 102.1-11.2 77.4 318.4 531.9 253 749.7 340.1 119.6 47.8 275.6 225.4 153.3 395.7-101.8 141.7-200.8 71.8-278 171.6-53.5 69.2 82.5 179.6 134.6 69.5 59.7-125.9-693.1-244.4-841.3 101.8-114.6 267.6 203.7 425 106.9 501.1-111.7 87.8-40.5-153 101.8-201.5 439-149.6 715.8 224.7 710.3 397-8 249.4-778.2 83.8-881.9 305.3-133.6 285.1 850 260 850 260" style="fill:none;stroke:#c1c1c1;stroke-width:.5;stroke-miterlimit:10"/>
</svg>
