<?xml version="1.0" encoding="utf-8"?>
<!-- Generator: Adobe Illustrator 25.4.1, SVG Export Plug-In . SVG Version: 6.00 Build 0)  -->
<svg version="1.1" id="Layer_1" xmlns="http://www.w3.org/2000/svg" xmlns:xlink="http://www.w3.org/1999/xlink" x="0px" y="0px"
	 viewBox="0 0 56.3 53.1" style="enable-background:new 0 0 56.3 53.1;" xml:space="preserve">
<g>
	<g>
		<path d="M28.2,53.1c-4.3,0-8.1-0.6-11.6-1.9c-3.5-1.3-6.4-3.1-8.9-5.4c-2.4-2.3-4.4-5.1-5.7-8.4c-1.4-3.3-2-6.9-2-10.8
			c0-4,0.7-7.6,2-10.9c1.4-3.3,3.3-6,5.7-8.4c2.4-2.3,5.4-4.1,8.9-5.4C20.1,0.6,23.9,0,28.2,0c4.2,0,8,0.6,11.5,1.9s6.5,3.1,8.9,5.4
			c2.4,2.3,4.3,5.1,5.7,8.4c1.4,3.2,2,6.9,2,10.9s-0.7,7.6-2,10.8c-1.4,3.3-3.3,6.1-5.7,8.4s-5.4,4.1-8.9,5.4
			C36.2,52.5,32.4,53.1,28.2,53.1z M4.6,27.6c0,2.4,0.5,4.6,1.6,6.6c1,2,2.5,3.7,4.4,5.1c1.9,1.4,4.2,2.5,6.9,3.3s5.7,1.1,9,1.1
			c3.8,0,7.2-0.4,10.3-1.3c3.1-0.9,5.8-2.1,8-3.7c2.2-1.6,3.9-3.5,5.1-5.7c1.2-2.2,1.8-4.7,1.8-7.4c0-2.4-0.5-4.7-1.6-6.7
			c-1-2-2.5-3.7-4.4-5.1s-4.2-2.5-6.9-3.3s-5.6-1.2-8.9-1.2c-3.8,0-7.3,0.4-10.4,1.3c-3.1,0.9-5.8,2.1-8,3.7s-3.9,3.5-5.1,5.8
			C5.2,22.4,4.6,24.9,4.6,27.6z"/>
	</g>
	<path d="M29.4,31.4v-3.7h5.9v-1.9h-5.9v-3.4h6.4v-1.9h-6.4h-0.7h-1.5v0.4c-0.1,0-0.1-0.1-0.2-0.1c-0.7-0.3-1.4-0.5-2.3-0.5
		c-0.8,0-1.5,0.1-2.1,0.4s-1.1,0.7-1.5,1.2s-0.6,1.2-0.6,1.9c0,0.7,0.1,1.2,0.3,1.6s0.5,0.8,0.9,1s0.8,0.5,1.2,0.7
		c0.4,0.2,0.9,0.3,1.3,0.5s0.8,0.3,1.2,0.5s0.7,0.4,0.9,0.7c0.2,0.3,0.3,0.6,0.3,1c0,0.5-0.2,0.9-0.6,1.2s-1,0.4-1.7,0.4
		c-0.8,0-1.4-0.1-1.9-0.4s-0.9-0.7-1.3-1.2l-1.4,1.4c0.6,0.7,1.2,1.2,1.9,1.6c0.7,0.4,1.6,0.6,2.6,0.6c1.2,0,2.2-0.3,3-0.8v0.6h1.5
		h0.7H36v-1.9h-6.6V31.4z M26.5,26.2c-0.4-0.2-0.9-0.3-1.3-0.5c-0.4-0.1-0.8-0.3-1.2-0.5c-0.4-0.2-0.7-0.4-0.9-0.6
		c-0.2-0.2-0.3-0.6-0.3-0.9c0-0.5,0.2-0.8,0.5-1.1c0.4-0.3,0.9-0.4,1.5-0.4c0.5,0,1,0.1,1.4,0.3c0.4,0.2,0.8,0.5,1.1,0.9v3.2
		C27.1,26.5,26.8,26.4,26.5,26.2z"/>
</g>
</svg>
