<?xml version="1.0" encoding="utf-8"?>
<!-- Generator: Adobe Illustrator 26.0.2, SVG Export Plug-In . SVG Version: 6.00 Build 0)  -->
<svg version="1.1" id="Layer_1" xmlns="http://www.w3.org/2000/svg" xmlns:xlink="http://www.w3.org/1999/xlink" x="0px" y="0px"
	 viewBox="0 0 125 52.5" style="enable-background:new 0 0 125 52.5;" xml:space="preserve">
<style type="text/css">
	.st0{fill:#00A696;}
	.st1{fill:#B2A89F;stroke:#B2A89F;stroke-width:0.45;stroke-miterlimit:10;}
	.st2{fill:#00A696;stroke:#00A696;stroke-width:0.3;stroke-miterlimit:10;}
</style>
<g>
	<polygon class="st0" points="5.3,52 5.3,24.3 25.3,41.7 25.3,24.3 35.8,24.3 35.8,52 24,52 12.7,42.2 13.1,52 	"/>
	<path class="st0" d="M35.8,16.5l6.4,18.2V52h12.7l-0.9-11.8c0,0,5.5-4.6,6.4-6L57,31.2c0,0-0.4,0.5-4.6,1.2
		C48,33.1,39,16.5,39,16.5"/>
	<path class="st0" d="M0,28.3c0,0,13.2-25.9,41.7-25.4S63,26.3,63,26.3S71.9,3.2,45.9,0.2C14.5-2.8,0,25.5,0,28.3z"/>
	<g>
		<path class="st1" d="M74.5,52h-2c0-0.4,0.1-0.9,0.2-1.6c-1,1.1-2.6,1.8-4.9,1.8c-4.2,0-5.6-3.2-4.4-7.3c1.2-4.4,4.7-7.6,9.2-7.6
			c3.6,0,5.2,2,4.9,4.5h-2.7c0-1.2-0.6-2.4-2.8-2.4c-3.1,0-4.9,2.6-5.7,5.4c-0.8,2.7-0.4,5.2,2.6,5.2c2.9,0,4-2,4.5-3.7l0-0.1H70
			l0.6-2.3h6.2L74.5,52z"/>
		<path class="st1" d="M84.5,37.5L80.4,52h-2.7l4.1-14.5H84.5z"/>
		<path class="st1" d="M88.3,46l-1.7,6h-2.7l4.1-14.5h6.1c3.1,0,4.3,1.7,3.6,4c-0.5,1.9-1.9,3-3.2,3.4c0.8,0.3,1.6,1.1,0.9,3.7
			l-0.2,0.7c-0.3,1-0.6,2.2-0.6,2.8h-2.6c-0.1-0.6,0.2-1.7,0.6-3.2l0.1-0.2c0.5-1.8,0.3-2.6-2.2-2.6H88.3z M88.9,43.8h2.8
			c1.9,0,2.9-0.7,3.2-2.1c0.4-1.3-0.3-2-2-2h-2.9L88.9,43.8z"/>
		<path class="st1" d="M101.8,37.5h2.7l-3.5,12.3h7.3l-1,2.3h-9.7L101.8,37.5z"/>
		<path class="st1" d="M109.7,50l11.2-10.2H113l0.6-2.3h11l-0.6,2.2l-10.9,10h8.4l-1,2.3h-11.4L109.7,50z"/>
	</g>
	<g>
		<path class="st0" d="M51.7,26.8c-0.4,1.4-1,2.3-2.2,2.5c-1.1-0.4-1.9-1.2-2.2-2.5c-0.3-1.5,1-2.5,2.2-2.5S52,25.4,51.7,26.8z"/>
		<polygon class="st0" points="49,24.6 49.5,22.2 50.1,24.6 		"/>
		<polygon class="st0" points="47.8,25.8 46.6,23.6 48.6,25 		"/>
		<polygon class="st0" points="47.7,26.8 45.7,25.4 48.1,25.7 		"/>
		<polygon class="st0" points="50.8,25.8 53.3,25.9 51.1,26.9 		"/>
		<polygon class="st0" points="51.3,25.8 52.5,23.6 50.5,25 		"/>
	</g>
	<g>
		<path class="st2" d="M35.8,8.1c-0.5,3.2,0,6.8,0,6.8S36.3,11.4,35.8,8.1z"/>
		<path class="st2" d="M36.8,10.2c-1-0.4-2.1,0-2.1,0S35.8,10.5,36.8,10.2z"/>
		<path class="st2" d="M36.8,11.2c-1-0.4-2.1,0-2.1,0S35.8,11.6,36.8,11.2z"/>
		<path class="st2" d="M36.8,12.1c-1-0.4-2.1,0-2.1,0S35.8,12.5,36.8,12.1z"/>
		<path class="st2" d="M36.8,13.1c-1-0.4-2.1,0-2.1,0S35.8,13.4,36.8,13.1z"/>
	</g>
</g>
</svg>
